<?xml version="1.0" encoding="UTF-8"?>
<svg version="1.1" xmlns="http://www.w3.org/2000/svg" width="492" height="512">
<path d="M0 0 C2.89709211 1.50004686 5.7126082 3.07177857 8.50146484 4.76586914 C10.67368266 6.0497917 12.72157363 6.93567174 15.08740234 7.79711914 C19.80768202 9.62455178 24.27134605 11.81345157 28.77490234 14.10961914 C33.05355648 16.28871432 37.27824651 18.4081818 41.77490234 20.10961914 C46.08784125 21.74853592 50.16861115 23.76679923 54.27490234 25.85961914 C60.91624551 29.24396611 67.64787019 32.34884434 74.48388672 35.31958008 C78.66161591 37.14088654 82.74527309 39.080526 86.81005859 41.14086914 C89.99564867 42.71149805 93.25901246 44.09102172 96.52490234 45.48461914 C102.17266602 47.92724611 107.69965857 50.51722828 113.18505859 53.30883789 C124.9088579 59.23557769 136.75454544 65.00006267 148.95849609 69.86743164 C153.20237711 71.73921273 157.21751434 74.00804496 161.28076172 76.23925781 C165.70711446 78.63459562 170.11291014 80.39003069 174.89208984 81.98071289 C179.20381993 83.66918172 183.19269801 85.91256025 187.21044922 88.20532227 C190.45626782 90.02114009 193.5719769 91.43556353 197.12646484 92.54711914 C202.23518668 94.16243279 206.81419197 96.51896278 211.52490234 99.04711914 C212.34861328 99.47702148 213.17232422 99.90692383 214.02099609 100.34985352 C225.45600367 106.41722066 225.45600367 106.41722066 227.77490234 112.10961914 C228.02790201 114.38205326 228.02790201 114.38205326 228.03217125 116.92667961 C228.03862014 117.89932758 228.04506903 118.87197555 228.05171335 119.8740977 C228.04706754 121.47300702 228.04706754 121.47300702 228.04232788 123.10421753 C228.04685899 124.23862939 228.05139011 125.37304125 228.05605853 126.54182923 C228.06875662 130.35727283 228.06707866 134.17257467 228.06542969 137.98803711 C228.07032308 140.71777894 228.07815932 143.44751072 228.08578491 146.17724609 C228.10240244 152.83092875 228.10789479 159.48457597 228.10900967 166.13827763 C228.10995976 171.54622185 228.11406809 176.95415436 228.12041092 182.36209488 C228.13802515 197.69190714 228.14724947 213.02169139 228.14574997 228.35151385 C228.14567006 229.17806066 228.14559015 230.00460748 228.14550781 230.85620117 C228.14542605 231.68375621 228.14534429 232.51131125 228.14526005 233.36394371 C228.14444703 246.77772666 228.16358824 260.19139735 228.19178455 273.60514782 C228.22050253 287.37564256 228.23432545 301.14608253 228.23259699 314.91660798 C228.23193273 322.64879796 228.2374409 330.38087026 228.25895309 338.11303329 C228.27715063 344.69602967 228.28152406 351.27885501 228.26793425 357.86186562 C228.26139719 361.22072326 228.26348003 364.57898434 228.27864075 367.93785477 C228.29401422 371.5792165 228.28483619 375.21971118 228.26937866 378.86105347 C228.27966579 379.92253157 228.28995291 380.98400966 228.30055177 382.07765377 C228.24413547 388.0756853 227.76667024 391.53580717 223.77490234 396.10961914 C215.28203344 403.04462451 203.39902184 407.29229124 193.34912109 411.56665039 C188.93654486 413.47153303 184.60952766 415.5347511 180.27490234 417.60961914 C175.92892601 419.68992061 171.59513535 421.76024422 167.16162109 423.64868164 C163.38352713 425.27844767 159.74776884 427.10986284 156.08740234 428.98461914 C151.43644677 431.33968859 146.799286 433.59192814 141.96240234 435.54711914 C131.37055142 439.83226313 121.1477658 445.00003979 110.86083984 449.96118164 C93.3639785 458.38648868 93.3639785 458.38648868 84.66162109 461.86743164 C80.19293488 463.79035751 75.88937853 466.03044076 71.55664062 468.23925781 C67.99175135 470.04393491 64.45942672 471.70682299 60.71240234 473.10961914 C56.35361037 474.75611054 52.3560368 476.88189482 48.27490234 479.10961914 C43.43660315 481.75064871 38.67636837 484.04916784 33.50537109 485.98071289 C29.10023814 487.80200534 24.88765602 490.01141641 20.65795898 492.20532227 C17.41117304 493.87071528 14.20772672 495.36491002 10.77099609 496.59790039 C6.61135823 498.10168358 2.82482958 500.09361887 -1.03759766 502.23461914 C-9.04476495 506.63658894 -15.97932488 508.78366274 -25.22509766 507.10961914 C-32.16608984 504.81059533 -38.71783267 501.24010676 -44.95166016 497.45336914 C-47.12387797 496.16944658 -49.17176895 495.28356654 -51.53759766 494.42211914 C-56.25787733 492.5946865 -60.72154136 490.40578671 -65.22509766 488.10961914 C-69.50375179 485.93052396 -73.72844182 483.81105648 -78.22509766 482.10961914 C-82.53803656 480.47070236 -86.61880646 478.45243905 -90.72509766 476.35961914 C-97.36644082 472.97527217 -104.0980655 469.87039395 -110.93408203 466.8996582 C-115.11181122 465.07835174 -119.19546841 463.13871228 -123.26025391 461.07836914 C-126.44584399 459.50774023 -129.70920777 458.12821656 -132.97509766 456.73461914 C-138.62286133 454.29199218 -144.14985389 451.70201 -149.63525391 448.91040039 C-161.35905321 442.98366059 -173.20474075 437.21917561 -185.40869141 432.35180664 C-189.65257243 430.48002555 -193.66770965 428.21119332 -197.73095703 425.97998047 C-202.15730978 423.58464266 -206.56310545 421.82920759 -211.34228516 420.23852539 C-215.65401524 418.55005656 -219.64289332 416.30667803 -223.66064453 414.01391602 C-226.90646314 412.19809819 -230.02217222 410.78367475 -233.57666016 409.67211914 C-238.685382 408.05680549 -243.26438728 405.70027551 -247.97509766 403.17211914 C-248.79880859 402.7422168 -249.62251953 402.31231445 -250.47119141 401.86938477 C-261.90619898 395.80201762 -261.90619898 395.80201762 -264.22509766 390.10961914 C-264.47809732 387.83718503 -264.47809732 387.83718503 -264.48236656 385.29255867 C-264.48881545 384.3199107 -264.49526435 383.34726273 -264.50190866 382.34514058 C-264.49726285 380.74623126 -264.49726285 380.74623126 -264.49252319 379.11502075 C-264.49705431 377.98060889 -264.50158542 376.84619703 -264.50625384 375.67740905 C-264.51895194 371.86196546 -264.51727397 368.04666361 -264.515625 364.23120117 C-264.5205184 361.50145934 -264.52835464 358.77172756 -264.53598022 356.04199219 C-264.55259775 349.38830953 -264.5580901 342.73466231 -264.55920498 336.08096065 C-264.56015507 330.67301643 -264.5642634 325.26508392 -264.57060623 319.8571434 C-264.58822046 304.52733114 -264.59744478 289.19754689 -264.59594528 273.86772443 C-264.59586537 273.04117762 -264.59578546 272.2146308 -264.59570312 271.36303711 C-264.59562136 270.53548207 -264.5955396 269.70792703 -264.59545536 268.85529457 C-264.59464234 255.44151162 -264.61378356 242.02784093 -264.64197986 228.61409046 C-264.67069785 214.84359572 -264.68452076 201.07315575 -264.68279231 187.30263031 C-264.68212804 179.57044032 -264.68763622 171.83836802 -264.70914841 164.10620499 C-264.72734594 157.52320861 -264.73171937 150.94038328 -264.71812956 144.35737266 C-264.7115925 140.99851502 -264.71367535 137.64025394 -264.72883606 134.28138351 C-264.74420954 130.64002178 -264.7350315 126.9995271 -264.71957397 123.35818481 C-264.7298611 122.29670672 -264.74014823 121.23522862 -264.75074708 120.14158452 C-264.69433078 114.14355298 -264.21686556 110.68343111 -260.22509766 106.10961914 C-251.73222876 99.17461377 -239.84921715 94.92694704 -229.79931641 90.65258789 C-225.38674018 88.74770526 -221.05972297 86.68448718 -216.72509766 84.60961914 C-212.37912133 82.52931767 -208.04533066 80.45899406 -203.61181641 78.57055664 C-199.83372244 76.94079062 -196.19796415 75.10937545 -192.53759766 73.23461914 C-187.88664208 70.8795497 -183.24948131 68.62731014 -178.41259766 66.67211914 C-167.82074674 62.38697515 -157.59796111 57.21919849 -147.31103516 52.25805664 C-129.81417382 43.8327496 -129.81417382 43.8327496 -121.11181641 40.35180664 C-116.6431302 38.42888078 -112.33957385 36.18879752 -108.00683594 33.97998047 C-104.44194666 32.17530337 -100.90962203 30.51241529 -97.16259766 29.10961914 C-92.80380569 27.46312774 -88.80623211 25.33734346 -84.72509766 23.10961914 C-79.88679846 20.46858957 -75.12656369 18.17007044 -69.95556641 16.23852539 C-65.55043345 14.41723294 -61.33785133 12.20782187 -57.1081543 10.01391602 C-53.86136835 8.348523 -50.65792203 6.85432826 -47.22119141 5.62133789 C-43.06155354 4.1175547 -39.27502489 2.12561941 -35.41259766 -0.01538086 C-22.60941818 -7.05397608 -12.76573084 -6.36268928 0 0 Z M-25.85009766 39.85961914 C-29.51460358 41.75809811 -33.11269713 43.53130911 -36.97509766 44.98461914 C-42.2859978 47.02132356 -47.29742 49.58888882 -52.34130859 52.20483398 C-55.57461171 53.86349748 -58.76161196 55.3519354 -62.18603516 56.57446289 C-66.60286407 58.17143235 -70.62015919 60.34405201 -74.72509766 62.60961914 C-79.49235147 65.24072643 -84.1479725 67.53497936 -89.27783203 69.36743164 C-92.55202325 70.61536811 -95.61897515 72.24656671 -98.72509766 73.85961914 C-104.84500525 76.98297673 -111.03472302 79.82620895 -117.35058594 82.52783203 C-121.85052948 84.46769202 -126.23687617 86.56779685 -130.60009766 88.79711914 C-134.3890068 90.72570803 -138.12626167 92.53706147 -142.10009766 94.04711914 C-146.54856339 95.7462872 -150.73750992 97.82574405 -154.97509766 99.98461914 C-161.19260665 103.15185009 -167.46241983 105.97389763 -173.90087891 108.66821289 C-178.21694731 110.53969261 -182.39112053 112.64861474 -186.58056641 114.78540039 C-189.74657207 116.37074148 -192.94902516 117.76940766 -196.22509766 119.10961914 C-192.84313655 121.36425988 -189.34758216 123.0870474 -185.70556641 124.87915039 C-183.86022575 125.7945556 -182.03636416 126.75351645 -180.22509766 127.73461914 C-177.65004559 128.91485134 -175.34217437 129.67099151 -172.62744141 130.41821289 C-167.39305942 131.96393643 -162.66223408 134.11811083 -157.78759766 136.54711914 C-151.98106478 139.37138704 -146.26323977 141.94957554 -140.14306641 144.02758789 C-135.37019046 145.79744952 -130.7683443 147.94950625 -126.13037109 150.04296875 C-121.26720586 152.22834728 -116.37774194 154.29275381 -111.41259766 156.23461914 C-106.68638182 158.09080636 -102.06844213 160.07049925 -97.47509766 162.23461914 C-93.64373768 164.0384346 -89.85075057 165.66046216 -85.85009766 167.04711914 C-81.52571988 168.55909583 -77.41350818 170.37951019 -73.28759766 172.35961914 C-66.41165897 175.65809619 -59.38929112 178.47971528 -52.29125977 181.26220703 C-47.25991565 183.24960494 -42.45084021 185.42708512 -37.66259766 187.94946289 C-32.38359085 190.46206709 -26.7752792 192.29217934 -21.22509766 194.10961914 C-20.55349609 194.36485352 -19.88189453 194.62008789 -19.18994141 194.88305664 C-16.14721015 195.23390836 -13.97564563 194.12624493 -11.16259766 192.98461914 C-10.00244141 192.51540039 -8.84228516 192.04618164 -7.64697266 191.56274414 C-3.81058157 189.93359176 -0.0112605 188.2431705 3.77099609 186.49243164 C12.18963147 182.61701301 20.65468499 178.85629328 29.33740234 175.60961914 C34.10208612 173.81918173 38.68542082 171.79853874 43.27490234 169.60961914 C48.89216832 166.93050528 54.55841373 164.60078934 60.39208984 162.42211914 C64.95849208 160.65039726 69.42509624 158.67681447 73.90356445 156.69555664 C77.84266046 154.95347356 81.79283838 153.25215299 85.77490234 151.60961914 C90.51308924 149.65366461 95.20924085 147.61351624 99.89990234 145.54711914 C104.12531391 143.68614837 108.347048 141.84874859 112.64990234 140.17211914 C117.36682652 138.32671204 121.96920769 136.248805 126.58740234 134.17211914 C132.91712684 131.32815009 139.28115477 128.70556289 145.78271484 126.27368164 C150.53964965 124.42307254 155.1585463 122.28365455 159.77490234 120.10961914 C156.5151987 117.40118891 153.18682591 115.89625006 149.27490234 114.29711914 C144.63972872 112.37154388 140.12155538 110.33603917 135.64990234 108.04711914 C131.76894974 106.06295 127.88270226 104.29448058 123.83740234 102.67211914 C119.43480854 100.88806152 115.31053892 98.83961526 111.14990234 96.54711914 C106.7417398 94.11951076 102.41885101 92.09689271 97.72412109 90.31274414 C93.73150112 88.68396672 89.85434931 86.83920549 85.96240234 84.98461914 C85.15456299 84.59967285 84.34672363 84.21472656 83.5144043 83.81811523 C80.0242423 82.15051427 76.53732887 80.47620715 73.05126953 78.80004883 C70.31430949 77.48448272 67.57628161 76.17118475 64.83740234 74.85961914 C63.94400146 74.43156982 63.05060059 74.00352051 62.13012695 73.5625 C57.63986238 71.42481737 53.14742393 69.38727479 48.52490234 67.54711914 C42.75398511 65.23213801 37.37493778 62.29003909 31.9128418 59.33813477 C27.50156976 56.97118327 23.12483925 54.9419889 18.42724609 53.19946289 C14.77468557 51.69863169 11.29153923 49.90220766 7.77490234 48.10961914 C2.53950844 45.4428194 -2.67486898 42.99582124 -8.17822266 40.91821289 C-10.22509766 40.10961914 -10.22509766 40.10961914 -13.60009766 38.35961914 C-18.49393939 36.02921832 -21.38029967 37.47729937 -25.85009766 39.85961914 Z M-226.22509766 151.10961914 C-226.22509766 223.04961914 -226.22509766 294.98961914 -226.22509766 369.10961914 C-218.30509766 372.73961914 -210.38509766 376.36961914 -202.22509766 380.10961914 C-195.48789931 383.23173545 -188.76231515 386.36829055 -182.06884766 389.58227539 C-180.22523349 390.4666732 -178.38148187 391.35078451 -176.53759766 392.23461914 C-175.63050049 392.6695166 -174.72340332 393.10441406 -173.78881836 393.55249023 C-169.14620564 395.76487588 -164.49991968 397.88086606 -159.72509766 399.79711914 C-154.34163309 401.95970747 -149.36463025 404.70037772 -144.28759766 407.49633789 C-140.98133495 409.23802985 -137.66091939 410.58147272 -134.17431641 411.90649414 C-130.18169643 413.53527156 -126.30454462 415.38003279 -122.41259766 417.23461914 C-121.6047583 417.61956543 -120.79691895 418.00451172 -119.96459961 418.40112305 C-116.47443761 420.06872401 -112.98752418 421.74303113 -109.50146484 423.41918945 C-106.7645048 424.73475556 -104.02647693 426.04805354 -101.28759766 427.35961914 C-99.94749634 428.00169312 -99.94749634 428.00169312 -98.58032227 428.65673828 C-94.09005769 430.79442091 -89.59761924 432.83196349 -84.97509766 434.67211914 C-79.20724838 436.98586957 -73.83067352 439.92568972 -68.37182617 442.87670898 C-63.88553239 445.28443253 -59.42349066 447.36795908 -54.64306641 449.13696289 C-50.52598573 450.79310681 -46.62723034 452.88995213 -42.69384766 454.93774414 C-40.37942946 456.25256032 -40.37942946 456.25256032 -38.22509766 456.10961914 C-38.11110118 427.36967173 -38.02258377 398.62975092 -37.96977101 369.88962204 C-37.96351727 366.49867995 -37.95704568 363.1077383 -37.95043945 359.71679688 C-37.9491279 359.04170487 -37.94781635 358.36661286 -37.94646505 357.67106352 C-37.92469238 346.73165785 -37.88526072 335.7923832 -37.83933368 324.85305532 C-37.79262063 313.63315988 -37.76518762 302.41333003 -37.75465518 291.19333249 C-37.74812273 284.88912012 -37.73271384 278.58520516 -37.69644737 272.28108788 C-37.66261625 266.35250346 -37.6520187 260.42434018 -37.65955925 254.49566841 C-37.65817893 252.31511525 -37.6481703 250.13454862 -37.62907028 247.95407867 C-37.60433399 244.98560026 -37.61012157 242.01872927 -37.62382507 239.05021667 C-37.60926087 238.17960088 -37.59469666 237.30898509 -37.57969111 236.41198701 C-37.55566137 233.74627152 -37.55566137 233.74627152 -38.22509766 230.10961914 C-40.48978675 227.99367589 -40.48978675 227.99367589 -43.22509766 227.10961914 C-43.98306641 226.81700195 -44.74103516 226.52438477 -45.52197266 226.22290039 C-46.33150391 225.95864258 -47.14103516 225.69438477 -47.97509766 225.42211914 C-53.11444518 223.62543667 -57.95311702 221.40640835 -62.85009766 219.04711914 C-67.85475528 216.63998762 -72.7203455 214.46718583 -78.04541016 212.85961914 C-80.75393369 211.92765405 -83.26544234 210.71988298 -85.85009766 209.48461914 C-93.02854139 206.08608793 -100.40031787 203.25330367 -107.82714844 200.44506836 C-113.39618407 198.3142986 -118.70801475 195.93746534 -124.01196289 193.21435547 C-126.74768993 191.84875538 -129.53605126 190.76722554 -132.41259766 189.73461914 C-137.30750493 187.90549985 -142.01585226 185.86039694 -146.72509766 183.60961914 C-151.23255536 181.45885252 -155.72565653 179.4749686 -160.41259766 177.73461914 C-167.03797498 175.2674626 -173.42238994 172.3457763 -179.84960938 169.41137695 C-185.52174234 166.8361662 -191.23650218 164.52019744 -197.08056641 162.35961914 C-201.95572348 160.4216685 -206.62964504 158.09073156 -211.32666016 155.75805664 C-216.11816706 153.73198859 -221.20614718 152.47842382 -226.22509766 151.10961914 Z M162.15356445 161.80615234 C156.48283298 164.38131641 150.76815706 166.69464828 144.92724609 168.85961914 C140.54724319 170.59642326 136.3279593 172.63407392 132.07836914 174.66479492 C128.85399068 176.19017235 125.68752853 177.57043598 122.27490234 178.60961914 C117.70306789 180.01243711 113.50743196 182.07472144 109.20117188 184.13867188 C102.502997 187.31049813 95.64627255 190.06047154 88.77490234 192.83154297 C82.60757471 195.32924633 76.5817207 198.00436944 70.56787109 200.85180664 C67.87699627 202.06364118 65.18650738 203.07892644 62.39990234 204.04711914 C57.88196511 205.62115267 53.58724268 207.54874484 49.27490234 209.60961914 C45.1052521 211.60086949 40.96412134 213.4867781 36.58740234 214.98461914 C30.21666695 217.18175529 24.14570263 220.03411208 18.0300293 222.84936523 C14.1320972 224.63580578 10.25045815 226.34607727 6.22412109 227.82446289 C2.98782679 228.75811993 2.98782679 228.75811993 1.77490234 230.10961914 C1.67694423 233.01742519 1.64498239 235.9014846 1.65464783 238.80970764 C1.6537934 239.7334449 1.65293898 240.65718216 1.65205866 241.60891145 C1.65040103 244.72903963 1.65592984 247.84911499 1.66137695 250.96923828 C1.66165879 253.19595844 1.66150116 255.4226787 1.66093445 257.6493988 C1.66064634 263.71526991 1.66654526 269.78112143 1.67350841 275.84698796 C1.67973969 282.17846278 1.68034556 288.509938 1.68153381 294.84141541 C1.68429351 305.47517274 1.69054903 316.10892229 1.69946289 326.74267578 C1.7086363 337.69742802 1.71571748 348.65217829 1.7199707 359.60693359 C1.72023343 360.28173187 1.72049615 360.95653015 1.72076683 361.65177686 C1.72207183 365.03690631 1.72333555 368.42203579 1.72457874 371.80716527 C1.7349522 399.90798825 1.75264538 428.00880325 1.77490234 456.10961914 C6.6150838 454.20347728 11.29466754 452.00952561 15.98388672 449.76391602 C19.19146989 448.2473049 22.38157076 446.86133479 25.72412109 445.66821289 C30.13829125 444.0537437 34.16668369 441.87699665 38.27490234 439.60961914 C43.04215615 436.97851185 47.69777718 434.68425892 52.82763672 432.85180664 C56.10182794 431.60387017 59.16877984 429.97267158 62.27490234 428.35961914 C68.39480993 425.23626155 74.58452771 422.39302933 80.90039062 419.69140625 C85.40033417 417.75154627 89.78668086 415.65144143 94.14990234 413.42211914 C97.93881149 411.49353025 101.67606636 409.68217682 105.64990234 408.17211914 C110.09836808 406.47295108 114.28731461 404.39349424 118.52490234 402.23461914 C124.75017882 399.06343139 131.02896155 396.23999637 137.47412109 393.53930664 C141.66724953 391.72311136 145.71985203 389.67874198 149.79052734 387.60571289 C153.92895949 385.53108002 158.13181151 383.6091901 162.34130859 381.68383789 C167.26560425 379.42616878 172.16755342 377.12143703 177.07177734 374.82055664 C181.28629483 372.87334287 185.53243452 370.9951604 189.77490234 369.10961914 C189.77490234 297.16961914 189.77490234 225.22961914 189.77490234 151.10961914 C180.97759925 151.10961914 170.07850341 158.18874284 162.15356445 161.80615234 Z " fill="#000000" transform="translate(264.22509765625,4.890380859375)"/>
</svg>
