<?xml version="1.0" encoding="UTF-8"?>
<svg version="1.1" xmlns="http://www.w3.org/2000/svg" width="200" height="200">
<path d="M0 0 C1.11336296 -0.00445668 1.11336296 -0.00445668 2.24921811 -0.0090034 C4.74339673 -0.01769466 7.23752739 -0.019199 9.73171997 -0.02069092 C11.51713158 -0.02531875 13.3025422 -0.03034336 15.08795166 -0.03573608 C19.94332641 -0.04886444 24.79868733 -0.05530575 29.65407705 -0.05974674 C32.68622747 -0.06267642 35.7183741 -0.066781 38.75052261 -0.07125092 C48.23375935 -0.08492624 57.71698743 -0.09459305 67.20023334 -0.09845281 C78.15430581 -0.1029355 89.10825361 -0.12049308 100.06228817 -0.1494534 C108.52520437 -0.17105265 116.98808546 -0.18115613 125.45102894 -0.18249393 C130.50768328 -0.1835431 135.56422043 -0.18947496 140.62084579 -0.20731354 C145.37653875 -0.22376412 150.13202605 -0.22596441 154.88773727 -0.21717453 C156.63365733 -0.21640257 158.3795883 -0.22076775 160.12548065 -0.23063278 C162.50821642 -0.24330726 164.89021885 -0.23750042 167.27294922 -0.22705078 C167.96449124 -0.23510719 168.65603327 -0.24316359 169.36853111 -0.25146413 C175.13744276 -0.19225649 178.06632683 1.4094312 182.0433712 5.465868 C184.04682629 8.58105259 184.26982157 10.2585237 184.28485107 13.93362427 C184.29902069 15.09153473 184.31319031 16.24944519 184.32778931 17.44244385 C184.32283447 18.70387207 184.31787964 19.96530029 184.31277466 21.26495361 C184.32147423 22.61393358 184.33184232 23.96290367 184.34375 25.31185913 C184.3704985 28.96905289 184.37169099 32.62583288 184.3666234 36.28310537 C184.36448148 39.33968391 184.37425718 42.39617916 184.38383424 45.45273983 C184.4060143 52.66624966 184.40690572 59.8795512 184.39480591 67.09307861 C184.38272925 74.5261064 184.40734173 81.95837673 184.44994605 89.39127529 C184.48521649 95.78044127 184.49717474 102.16936658 184.49067056 108.55862629 C184.48705002 112.37133388 184.49226341 116.18350131 184.52009964 119.99612045 C184.54531109 123.58339711 184.54132084 127.16949659 184.51527786 130.75675583 C184.50831534 132.69366291 184.53086512 134.63060637 184.55441284 136.56738281 C184.47555627 143.10783632 184.06571937 147.24100493 179.34274864 151.98204231 C175.78912809 154.58860067 172.23283364 154.26157183 167.99710083 154.25396729 C167.31391281 154.25411331 166.63072479 154.25425934 165.92683411 154.25440979 C163.67052018 154.25371358 161.41428899 154.24593485 159.1579895 154.23809814 C157.59286036 154.23623293 156.02773064 154.23480951 154.46260071 154.23381042 C150.34442532 154.22999341 146.22628523 154.22017007 142.10812378 154.20910645 C137.9053495 154.1988748 133.70256952 154.19430904 129.49978638 154.18927002 C121.25432747 154.17854709 113.00889726 154.16148044 104.76345825 154.14044189 C105.05256804 155.57145036 105.34971346 157.00083671 105.650177 158.42950439 C105.81477417 159.22566162 105.97937134 160.02181885 106.1489563 160.84210205 C107.29875402 165.14253737 109.41308257 168.13785391 112.962677 170.77325439 C116.37848355 172.44066345 118.97652477 172.54250396 122.76345825 172.64044189 C127.70442742 172.76822558 130.74966085 173.16432282 134.76345825 176.14044189 C136.92578706 178.8992752 137.70288588 180.65586293 138.13845825 184.14044189 C137.70720595 187.59046032 136.8919431 189.40381852 134.76345825 192.14044189 C132.00956733 193.80656619 129.9490709 194.3915155 126.7474823 194.40113831 C125.95827896 194.40822311 125.16907562 194.41530792 124.35595703 194.42260742 C123.49922394 194.42013 122.64249084 194.41765259 121.75979614 194.4151001 C120.39571373 194.42276649 120.39571373 194.42276649 119.0040741 194.43058777 C115.99802062 194.44448768 112.9921963 194.44352672 109.9861145 194.44122314 C107.89630549 194.44510979 105.80649726 194.44944439 103.71669006 194.45420837 C99.33617594 194.4616714 94.95574241 194.46137864 90.57522583 194.45611572 C84.96172267 194.45032033 79.34854937 194.46725352 73.73510075 194.4904604 C69.41911388 194.50519197 65.10320657 194.50607022 60.78719902 194.50295067 C58.71754744 194.50346415 56.64789145 194.50870685 54.57826424 194.51876259 C51.68412969 194.53109866 48.79063913 194.52435223 45.89651489 194.51275635 C45.04180603 194.52040009 44.18709717 194.52804382 43.30648804 194.53591919 C38.6305327 194.49450801 35.57057737 194.16060412 31.76345825 191.14044189 C29.237387 187.49333311 29.63178183 184.49829028 30.21658325 180.26544189 C30.98421345 177.28265025 32.27268962 175.89863152 34.76345825 174.14044189 C38.16237356 173.00747013 40.9980753 172.96130281 44.57595825 172.82794189 C51.91633369 172.33770037 51.91633369 172.33770037 57.76345825 168.14044189 C60.7415034 163.59092016 61.91724589 159.49537236 62.76345825 154.14044189 C61.46466484 154.15043465 61.46466484 154.15043465 60.13963318 154.16062927 C51.97376055 154.22077754 43.80796249 154.26643521 35.64191914 154.29587841 C31.44381053 154.31152443 27.24588521 154.3327431 23.04788208 154.36676025 C18.99543141 154.39939192 14.94315687 154.41730292 10.89058495 154.42507362 C9.34563614 154.43061032 7.80069682 154.44142224 6.25582314 154.45763206 C4.08929348 154.47945755 1.92348862 154.48240677 -0.24313354 154.48101807 C-1.47557297 154.4876799 -2.70801239 154.49434174 -3.97779846 154.50120544 C-8.73456442 153.97460128 -11.11110817 152.33936382 -14.3485117 148.89056492 C-16.5300399 145.71292962 -16.74234912 144.15830263 -16.75793457 140.34725952 C-16.77210419 139.18934906 -16.7862738 138.0314386 -16.8008728 136.83843994 C-16.79591797 135.57701172 -16.79096313 134.3155835 -16.78585815 133.01593018 C-16.79455773 131.66695021 -16.80492582 130.31798012 -16.8168335 128.96902466 C-16.843582 125.3118309 -16.84477449 121.65505091 -16.8397069 117.99777842 C-16.83756498 114.94119987 -16.84734068 111.88470463 -16.85691774 108.82814395 C-16.8790978 101.61463413 -16.87998922 94.40133259 -16.8678894 87.18780518 C-16.85581275 79.75477739 -16.88042523 72.32250706 -16.92302954 64.8896085 C-16.95829998 58.50044252 -16.97025824 52.11151721 -16.96375406 45.72225749 C-16.96013351 41.90954991 -16.9653469 38.09738248 -16.99318314 34.28476334 C-17.01839459 30.69748668 -17.01440434 27.1113872 -16.98836136 23.52412796 C-16.98139884 21.58722088 -17.00394862 19.65027742 -17.02749634 17.71350098 C-16.94863977 11.17304747 -16.53880286 7.03987886 -11.81583214 2.29884148 C-8.19517025 -0.35689128 -4.27346943 -0.00532021 0 0 Z M-7.23654175 9.14044189 C-9.33898865 12.29411224 -9.48539729 13.0081306 -9.47705078 16.6013031 C-9.47980011 17.51415573 -9.48254944 18.42700836 -9.48538208 19.36752319 C-9.47819153 20.36661713 -9.47100098 21.36571106 -9.46359253 22.39508057 C-9.46388458 23.44890427 -9.46417664 24.50272797 -9.46447754 25.58848572 C-9.46308202 29.07854389 -9.44751021 32.56838968 -9.43185425 36.05841064 C-9.42812491 38.47550846 -9.42527757 40.89260778 -9.42327881 43.30970764 C-9.41563613 49.67689169 -9.39598212 56.04398475 -9.37387085 62.41113281 C-9.35342613 68.90617644 -9.34428003 75.40123475 -9.334198 81.89630127 C-9.31273688 94.644387 -9.27897673 107.39240961 -9.23654175 120.14044189 C-7.25654175 120.14044189 -5.27654175 120.14044189 -3.23654175 120.14044189 C-3.23654175 85.16044189 -3.23654175 50.18044189 -3.23654175 14.14044189 C39.85635806 14.10013886 39.85635806 14.10013886 57.85525513 14.09161377 C70.30407115 14.08567026 82.75288042 14.07866716 95.20169067 14.06500244 C104.26636099 14.05505711 113.33102585 14.04858883 122.39570147 14.0463534 C127.19848433 14.04504603 132.00125159 14.04195856 136.80402946 14.03471184 C141.31912625 14.027954 145.83420093 14.02582445 150.34930229 14.02733421 C152.01143005 14.02705778 153.67355851 14.02505126 155.33568192 14.02123642 C157.59495517 14.01630285 159.85414359 14.01744234 162.11341858 14.02018738 C163.38088393 14.01926558 164.64834929 14.01834379 165.95422268 14.01739407 C168.76345825 14.14044189 168.76345825 14.14044189 169.76345825 15.14044189 C169.87087596 16.50605956 169.91024813 17.87711432 169.92167664 19.24690247 C169.93635986 20.57419373 169.93635986 20.57419373 169.95133972 21.92829895 C169.95709518 22.90653122 169.96285065 23.88476349 169.96878052 24.89263916 C169.97868011 25.9169101 169.98857971 26.94118103 169.9987793 27.99649048 C170.03049996 31.3999191 170.05519333 34.80336171 170.0798645 38.20684814 C170.10042492 40.55954868 170.12142113 42.91224545 170.14283752 45.26493835 C170.19815249 51.47096716 170.24752006 57.67702981 170.29568481 63.88311768 C170.3458312 70.21045968 170.401553 76.53775226 170.45681763 82.86505127 C170.56451441 95.2901393 170.66593362 107.71527016 170.76345825 120.14044189 C172.74345825 120.14044189 174.72345825 120.14044189 176.76345825 120.14044189 C176.83354017 106.12811074 176.88624293 92.11580677 176.91889477 78.10333633 C176.93456437 71.59708842 176.95582654 65.09095808 176.98977661 58.58477783 C177.02232348 52.30837597 177.04030151 46.03208733 177.04808998 39.7556076 C177.05364186 37.35856086 177.06448304 34.96152045 177.08064842 32.56452179 C177.10236018 29.21241258 177.10542774 25.86077393 177.10403442 22.50860596 C177.11482025 21.5131073 177.12560608 20.51760864 177.13671875 19.49194336 C177.13053276 18.12060242 177.13053276 18.12060242 177.1242218 16.72155762 C177.12698718 15.92881565 177.12975256 15.13607368 177.13260174 14.31930923 C176.66227956 11.54323523 175.67704693 10.18186884 173.76345825 8.14044189 C170.27463597 6.97750113 167.55146221 7.01160233 163.86859131 7.00672913 C163.1631013 7.00446357 162.4576113 7.00219801 161.73074281 6.9998638 C159.36093481 6.99352123 156.99118397 6.99435333 154.62136841 6.99517822 C152.92462591 6.99218689 151.2278841 6.98878442 149.53114319 6.98500061 C144.91749226 6.97615367 140.30385987 6.9738222 135.69020128 6.97318482 C131.84074659 6.97223611 127.99129623 6.96855823 124.1418432 6.96501273 C115.06063453 6.95686548 105.97943578 6.95442873 96.89822388 6.95513916 C87.52619044 6.95573999 78.15421456 6.94518781 68.78219569 6.9293955 C60.73965802 6.91632566 52.69713917 6.91095503 44.65459096 6.91159457 C39.84947588 6.91184973 35.04441192 6.90898876 30.2393074 6.89841652 C25.72002815 6.88874494 21.20084899 6.8886499 16.68156624 6.89593315 C15.02272839 6.89698017 13.36388434 6.89460914 11.70505714 6.88857269 C9.44068411 6.88086632 7.17665793 6.88548846 4.91229248 6.89320374 C3.01140838 6.89238658 3.01140838 6.89238658 1.07212257 6.89155293 C-2.1882729 7.13681095 -4.36777432 7.59681169 -7.23654175 9.14044189 Z M3.76345825 21.14044189 C3.76345825 53.81044189 3.76345825 86.48044189 3.76345825 120.14044189 C56.23345825 120.14044189 108.70345825 120.14044189 162.76345825 120.14044189 C162.76345825 87.47044189 162.76345825 54.80044189 162.76345825 21.14044189 C110.29345825 21.14044189 57.82345825 21.14044189 3.76345825 21.14044189 Z M-9.23654175 127.14044189 C-10.73654175 140.97377523 -10.73654175 140.97377523 -6.23654175 146.14044189 C-3.70322563 146.54246764 -1.59778713 146.68118218 0.93753052 146.64837646 C1.67301652 146.65461643 2.40850252 146.66085639 3.16627598 146.66728544 C5.63779552 146.68327672 8.10833715 146.67058797 10.5798645 146.65802002 C12.34882179 146.66343844 14.11777456 146.67055952 15.88671875 146.67926025 C20.69661856 146.69752993 25.50617603 146.6904111 30.316082 146.67774391 C35.34355357 146.66763508 40.37099533 146.67700369 45.39846802 146.68328857 C53.84212521 146.69057116 62.28564258 146.68096125 70.72927856 146.66192627 C80.49906781 146.64015637 90.26852318 146.64720731 100.03830433 146.66923189 C108.41798929 146.68736848 116.7975736 146.68995275 125.17727184 146.67947721 C130.18580284 146.6732327 135.19417677 146.67243292 140.20269775 146.68562317 C144.91087644 146.69715576 149.61862359 146.68920357 154.32675552 146.66604614 C156.05737719 146.66074515 157.78803501 146.6622965 159.51864243 146.6710968 C161.87605157 146.68198159 164.2320664 146.66837628 166.58938599 146.64837646 C167.2789718 146.65729935 167.96855761 146.66622224 168.67903996 146.67541552 C170.81190057 146.68492772 170.81190057 146.68492772 173.76345825 146.14044189 C178.26345825 140.97377523 178.26345825 140.97377523 176.76345825 127.14044189 C115.38345825 127.14044189 54.00345825 127.14044189 -9.23654175 127.14044189 Z M70.76345825 154.14044189 C70.33033325 156.16169189 69.89720825 158.18294189 69.45095825 160.26544189 C68.3846446 165.24157226 67.1146535 168.43805141 64.76345825 173.14044189 C77.30345825 173.14044189 89.84345825 173.14044189 102.76345825 173.14044189 C101.44345825 170.17044189 100.12345825 167.20044189 98.76345825 164.14044189 C98.10345825 160.84044189 97.44345825 157.54044189 96.76345825 154.14044189 C88.18345825 154.14044189 79.60345825 154.14044189 70.76345825 154.14044189 Z M38.76345825 181.14044189 C38.17275811 183.08647464 38.17275811 183.08647464 37.76345825 185.14044189 C39.59703269 186.97401634 42.1598152 186.26044156 44.59939575 186.26486206 C45.43736694 186.26126678 46.27533813 186.25767151 47.13870239 186.25396729 C48.45565346 186.25418633 48.45565346 186.25418633 49.79920959 186.25440979 C52.7157026 186.25371034 55.63213258 186.24591645 58.5486145 186.23809814 C60.56500717 186.23623408 62.58140029 186.23481012 64.59779358 186.23381042 C69.91610963 186.22998434 75.23439856 186.22015328 80.55270386 186.20910645 C85.97516513 186.19889427 91.39763077 186.19431322 96.82009888 186.18927002 C107.46789728 186.17853109 118.11567551 186.16145359 128.76345825 186.14044189 C129.35415839 184.19440915 129.35415839 184.19440915 129.76345825 182.14044189 C127.92988381 180.30686745 125.3671013 181.02044223 122.92752075 181.01602173 C122.08954956 181.019617 121.25157837 181.02321228 120.38821411 181.0269165 C119.51024673 181.02677048 118.63227936 181.02662445 117.72770691 181.026474 C114.8112139 181.02717345 111.89478392 181.03496734 108.978302 181.04278564 C106.96190933 181.04464971 104.94551621 181.04607367 102.92912292 181.04707336 C97.61080688 181.05089945 92.29251795 181.06073051 86.97421265 181.07177734 C81.55175137 181.08198952 76.12928574 181.08657057 70.70681763 181.09161377 C60.05901922 181.1023527 49.41124099 181.1194302 38.76345825 181.14044189 Z " fill="#000000" transform="translate(16.236541748046875,2.85955810546875)"/>
<path d="M0 0 C0.9222084 -0.00350464 1.84441681 -0.00700928 2.79457092 -0.01062012 C5.84814951 -0.0194349 8.90149711 -0.01358913 11.95507812 -0.00683594 C14.07352747 -0.00818266 16.19197652 -0.01012325 18.3104248 -0.01263428 C22.75238993 -0.0155852 27.19427468 -0.01128888 31.63623047 -0.00195312 C37.33621366 0.00944135 43.03600852 0.00288171 48.7359848 -0.00909805 C53.11107813 -0.01631748 57.48612665 -0.01402833 61.86122131 -0.00884247 C63.96322146 -0.0075062 66.06522564 -0.00915288 68.16722107 -0.01380157 C71.10247612 -0.01886812 74.03742413 -0.01115467 76.97265625 0 C77.84547745 -0.00404846 78.71829865 -0.00809692 79.61756897 -0.01226807 C85.64353214 0.03025841 85.64353214 0.03025841 88.98632812 2.25878906 C89.34709167 4.35952759 89.34709167 4.35952759 89.3269043 6.98388672 C89.3266777 7.9647525 89.32645111 8.94561829 89.32621765 9.95620728 C89.3107338 11.01769989 89.29524994 12.0791925 89.27929688 13.17285156 C89.27505203 14.25762787 89.27080719 15.34240417 89.26643372 16.46005249 C89.24960112 19.93488073 89.21194001 23.40913525 89.17382812 26.88378906 C89.15878724 29.2353432 89.1450978 31.58690641 89.1328125 33.93847656 C89.09968266 39.7121108 89.04943795 45.48540895 88.98632812 51.25878906 C89.58960938 51.37996094 90.19289063 51.50113281 90.81445312 51.62597656 C92.01328125 51.87734375 92.01328125 51.87734375 93.23632812 52.13378906 C94.4196875 52.37742187 94.4196875 52.37742187 95.62695312 52.62597656 C97.95463956 53.25028981 99.87664764 54.10717449 101.98632812 55.25878906 C102.39809566 58.86175501 102.13991342 60.04280974 99.98632812 63.07128906 C99.32632813 63.79316406 98.66632813 64.51503906 97.98632812 65.25878906 C98.57542969 65.77828125 99.16453125 66.29777344 99.77148438 66.83300781 C100.52300781 67.53039062 101.27453125 68.22777344 102.04882812 68.94628906 C103.17998047 69.97302734 103.17998047 69.97302734 104.33398438 71.02050781 C105.98632812 73.25878906 105.98632812 73.25878906 106.02929688 75.69628906 C104.66502033 79.04821946 102.79330064 81.01809905 100.23632812 83.57128906 C99.37523437 84.45429687 98.51414062 85.33730469 97.62695312 86.24707031 C94.98632812 88.25878906 94.98632812 88.25878906 92.39648438 88.77050781 C89.35781205 88.125344 88.24999581 87.0385026 86.17382812 84.75878906 C85.56925781 84.10910156 84.9646875 83.45941406 84.34179688 82.79003906 C83.89449219 82.28472656 83.4471875 81.77941406 82.98632812 81.25878906 C80.51832766 82.41052261 78.93849247 83.30662472 76.98632812 85.25878906 C74.54882812 85.38378906 74.54882812 85.38378906 71.98632812 84.25878906 C69.68845021 80.22577884 68.87165984 75.76745732 67.98632812 71.25878906 C66.99883072 71.26100967 66.01133331 71.26323029 64.99391174 71.26551819 C55.70833784 71.28574989 46.42276838 71.30076134 37.13717747 71.31060123 C32.36284533 71.31582999 27.58853092 71.3229275 22.81420898 71.33422852 C18.21066551 71.34505766 13.60713913 71.35106595 9.00358391 71.35366631 C7.24323189 71.35552051 5.48288086 71.35914102 3.72253609 71.36451912 C1.26560535 71.37172992 -1.19125383 71.37277999 -3.64819336 71.37231445 C-4.38330643 71.37590973 -5.11841949 71.379505 -5.87580872 71.38320923 C-10.89961971 71.37284122 -10.89961971 71.37284122 -12.01367188 70.25878906 C-12.12368147 68.15298492 -12.16280411 66.043456 -12.17480469 63.93481445 C-12.17976959 63.27463821 -12.1847345 62.61446198 -12.18984985 61.9342804 C-12.20450293 59.74165826 -12.21127832 57.54910845 -12.21679688 55.35644531 C-12.22254535 53.83808895 -12.22830312 52.31973263 -12.23406982 50.80137634 C-12.24458851 47.61440694 -12.25042561 44.42746284 -12.25390625 41.24047852 C-12.25939557 37.15001913 -12.28342895 33.05989187 -12.3118782 28.96953678 C-12.33047005 25.83234164 -12.3357083 22.69522708 -12.33724213 19.55798149 C-12.34027659 18.04963806 -12.34833169 16.5412963 -12.36142731 15.03300667 C-12.37841809 12.92579752 -12.37662545 10.8194074 -12.37011719 8.7121582 C-12.37376282 7.51160294 -12.37740845 6.31104767 -12.38116455 5.07411194 C-12.25989197 4.14505539 -12.13861938 3.21599884 -12.01367188 2.25878906 C-8.04322817 -0.38817341 -4.6083024 -0.02137498 0 0 Z M-5.01367188 8.25878906 C-5.01367188 11.22878906 -5.01367188 14.19878906 -5.01367188 17.25878906 C23.36632812 17.25878906 51.74632813 17.25878906 80.98632812 17.25878906 C80.98632812 14.28878906 80.98632812 11.31878906 80.98632812 8.25878906 C52.60632813 8.25878906 24.22632812 8.25878906 -5.01367188 8.25878906 Z M-5.01367188 25.25878906 C-5.01367188 38.12878906 -5.01367188 50.99878906 -5.01367188 64.25878906 C18.41632813 64.25878906 41.84632812 64.25878906 65.98632812 64.25878906 C64.66632813 59.63878906 63.34632812 55.01878906 61.98632812 50.25878906 C61.98632812 48.27878906 61.98632812 46.29878906 61.98632812 44.25878906 C63.10652344 44.54753906 64.22671875 44.83628906 65.38085938 45.13378906 C66.85346802 45.50897598 68.3261269 45.88396571 69.79882812 46.25878906 C70.90581055 46.54496094 70.90581055 46.54496094 72.03515625 46.83691406 C75.09168153 47.61141821 77.8200629 48.25878906 80.98632812 48.25878906 C80.98632812 40.66878906 80.98632812 33.07878906 80.98632812 25.25878906 C52.60632813 25.25878906 24.22632812 25.25878906 -5.01367188 25.25878906 Z M70.98632812 54.25878906 C72.51418636 60.85783635 74.06250389 67.13268115 76.98632812 73.25878906 C77.64632812 72.92878906 78.30632812 72.59878906 78.98632812 72.25878906 C81.67382812 71.75878906 81.67382812 71.75878906 84.98632812 72.25878906 C87.59961742 74.35361014 89.80230912 76.72584394 91.98632812 79.25878906 C93.30632812 78.26878906 94.62632812 77.27878906 95.98632812 76.25878906 C94.81163747 73.37545746 93.69360185 71.98697181 91.36132812 69.82128906 C88.98632812 67.25878906 88.98632812 67.25878906 88.54882812 64.63378906 C88.98632812 62.25878906 88.98632812 62.25878906 90.98632812 59.25878906 C88.21691207 58.42047934 85.44597743 57.58796873 82.67382812 56.75878906 C81.88814453 56.5203125 81.10246094 56.28183594 80.29296875 56.03613281 C79.15698242 55.69775391 79.15698242 55.69775391 77.99804688 55.35253906 C77.30155029 55.14306641 76.60505371 54.93359375 75.88745117 54.71777344 C73.82624979 54.14144642 73.82624979 54.14144642 70.98632812 54.25878906 Z " fill="#000000" transform="translate(55.013671875,28.7412109375)"/>
<path d="M0 0 C1.92283813 0.00616333 1.92283813 0.00616333 3.88452148 0.01245117 C4.90883522 0.0131385 4.90883522 0.0131385 5.95384216 0.01383972 C7.39714292 0.01686101 8.84044046 0.0247437 10.28369141 0.03710938 C12.50036077 0.05537662 14.71661281 0.057619 16.93334961 0.05737305 C27.79569055 0.09549524 27.79569055 0.09549524 28.94311523 1.24291992 C29.04171655 2.64640728 29.0739046 4.05472469 29.07592773 5.46166992 C29.07786133 6.7359082 29.07786133 6.7359082 29.07983398 8.03588867 C29.0759668 8.92920898 29.07209961 9.8225293 29.06811523 10.74291992 C29.07391602 12.08290039 29.07391602 12.08290039 29.07983398 13.44995117 C29.07854492 14.29944336 29.07725586 15.14893555 29.07592773 16.02416992 C29.0747998 16.80856445 29.07367188 17.59295898 29.07250977 18.40112305 C28.94311523 20.24291992 28.94311523 20.24291992 27.94311523 21.24291992 C23.54312579 21.46124981 19.13776712 21.42871138 14.73291016 21.42822266 C12.51827741 21.43040743 10.304144 21.44855523 8.08959961 21.4675293 C6.68790861 21.47046349 5.28621524 21.47244811 3.88452148 21.47338867 C2.60262939 21.47749756 1.3207373 21.48160645 0 21.48583984 C-3.05688477 21.24291992 -3.05688477 21.24291992 -5.05688477 19.24291992 C-5.25545448 16.36949931 -5.33517422 13.61430004 -5.30688477 10.74291992 C-5.31461914 9.95788086 -5.32235352 9.1728418 -5.33032227 8.36401367 C-5.30307493 0.42141678 -5.30307493 0.42141678 0 0 Z M2.94311523 8.24291992 C2.94311523 9.89291992 2.94311523 11.54291992 2.94311523 13.24291992 C9.21311523 13.24291992 15.48311523 13.24291992 21.94311523 13.24291992 C21.94311523 11.59291992 21.94311523 9.94291992 21.94311523 8.24291992 C15.67311523 8.24291992 9.40311523 8.24291992 2.94311523 8.24291992 Z " fill="#000000" transform="translate(61.056884765625,65.757080078125)"/>
<path d="M0 0 C1.12341797 -0.01224609 2.24683594 -0.02449219 3.40429688 -0.03710938 C5.01208008 -0.04000977 5.01208008 -0.04000977 6.65234375 -0.04296875 C8.13528931 -0.04913208 8.13528931 -0.04913208 9.64819336 -0.05541992 C12.0625 0.1875 12.0625 0.1875 14.0625 2.1875 C13.50694444 6.74305556 13.50694444 6.74305556 12.0625 8.1875 C8.08974185 8.44006877 4.10483825 8.37272451 0.125 8.375 C-0.99841797 8.38724609 -2.12183594 8.39949219 -3.27929688 8.41210938 C-4.35115234 8.41404297 -5.42300781 8.41597656 -6.52734375 8.41796875 C-8.01028931 8.42413208 -8.01028931 8.42413208 -9.52319336 8.43041992 C-11.9375 8.1875 -11.9375 8.1875 -13.9375 6.1875 C-12.90978703 -2.23974632 -7.24125851 0.00414023 0 0 Z " fill="#000000" transform="translate(99.9375,135.8125)"/>
</svg>
