<?xml version="1.0" encoding="UTF-8" standalone="no"?>
<svg xmlns:ffdec="https://www.free-decompiler.com/flash" xmlns:xlink="http://www.w3.org/1999/xlink" ffdec:objectType="shape" height="29.55px" width="23.9px" xmlns="http://www.w3.org/2000/svg">
  <g transform="matrix(1.0, 0.0, 0.0, 1.0, 11.7, 86.7)">
    <path d="M11.6 -85.65 L11.0 -86.0 12.0 -86.7 12.2 -86.25 11.6 -85.65 M9.3 -75.05 L9.5 -74.6 8.9 -74.0 8.3 -74.4 Q8.7 -74.95 9.3 -75.05 M3.3 -69.3 L5.1 -69.15 5.25 -67.3 5.1 -65.7 Q4.7 -65.0 2.55 -65.0 L1.7 -65.25 0.5 -65.0 Q0.05 -65.8 0.35 -66.55 L0.55 -67.45 0.45 -67.65 -0.3 -66.75 -0.7 -66.9 Q-0.9 -67.05 -0.9 -67.55 -0.9 -68.4 -0.3 -68.8 L-0.5 -69.05 -0.6 -69.05 Q-1.3 -69.35 -2.3 -70.15 L-4.65 -72.0 -4.65 -72.65 Q-3.3 -73.2 -1.65 -71.7 L-0.8 -70.85 -0.1 -70.65 1.4 -70.5 1.85 -69.3 1.85 -69.25 2.85 -69.3 3.3 -69.3 M0.8 -73.2 L0.35 -73.35 Q0.2 -73.45 0.2 -73.95 0.2 -74.8 0.8 -74.9 1.4 -74.5 1.4 -73.5 1.1 -73.2 0.8 -73.2 M8.7 -67.05 L8.1 -67.4 Q8.1 -68.0 8.7 -68.25 L9.3 -67.65 8.7 -67.05 M1.1 -57.75 L0.5 -57.15 0.0 -57.45 0.9 -58.1 1.1 -57.75 M-6.75 -82.5 L-7.25 -82.1 -7.85 -82.5 Q-7.85 -83.05 -7.25 -83.3 -6.75 -83.1 -6.75 -82.5 M-5.4 -76.25 Q-5.25 -76.2 -5.25 -75.75 -5.25 -75.3 -5.4 -74.95 L-5.75 -74.45 -5.65 -74.35 -6.15 -74.3 -6.6 -74.4 -6.75 -74.7 Q-6.75 -75.6 -5.85 -76.35 L-5.4 -76.25 M-5.55 -62.4 Q-5.65 -62.0 -6.15 -61.8 L-6.75 -62.15 -5.75 -62.85 -5.55 -62.4 M-10.5 -70.8 Q-10.65 -70.35 -11.1 -70.25 L-11.5 -70.6 -11.7 -71.1 -10.7 -71.25 -10.5 -70.8" fill="#990000" fill-rule="evenodd" stroke="none"/>
  </g>
</svg>
