<?xml version="1.0" encoding="UTF-8"?>
<svg version="1.1" xmlns="http://www.w3.org/2000/svg" width="348" height="313">
<path d="M0 0 C114.84 0 229.68 0 348 0 C348 103.29 348 206.58 348 313 C233.16 313 118.32 313 0 313 C0 209.71 0 106.42 0 0 Z " fill="#53C1DE" transform="translate(0,0)"/>
<path d="M0 0 C114.84 0 229.68 0 348 0 C348 103.29 348 206.58 348 313 C233.16 313 118.32 313 0 313 C0 209.71 0 106.42 0 0 Z M90 29 C81.68492502 39.88395993 79.60616829 52.8551165 79.625 66.25 C79.62443604 67.27834961 79.62387207 68.30669922 79.62329102 69.36621094 C79.79272755 81.48786746 82.01939832 93.27641052 85 105 C84.35675781 105.15855469 83.71351562 105.31710938 83.05078125 105.48046875 C65.94326973 109.89767215 50.96497001 117.16908266 37 128 C36.40445313 128.44085938 35.80890625 128.88171875 35.1953125 129.3359375 C30.95441534 132.609998 27.94589217 136.58116175 25 141 C24.58234375 141.60585937 24.1646875 142.21171875 23.734375 142.8359375 C19.72099841 149.53431955 19.90394978 157.2527325 21.625 164.70703125 C27.43130524 181.16686977 42.44488464 190.17071412 57 198 C57.73089844 198.40089844 58.46179687 198.80179688 59.21484375 199.21484375 C67.32873022 203.48621316 75.86660766 206.9519058 85 208 C84.72285156 209.21816406 84.44570312 210.43632812 84.16015625 211.69140625 C83.79412758 213.31507188 83.4282502 214.93877162 83.0625 216.5625 C82.88009766 217.36236328 82.69769531 218.16222656 82.50976562 218.98632812 C78.07901556 238.72330568 77.2645379 262.21769776 87.265625 280.4375 C91.59208359 286.82974513 96.76978001 290.39014095 104 293 C123.61238319 295.28194396 142.06696883 286.81929088 157.39453125 275.0859375 C158.25433594 274.39757812 159.11414063 273.70921875 160 273 C160.99386719 272.20851563 161.98773438 271.41703125 163.01171875 270.6015625 C168.71292395 266.03118088 168.71292395 266.03118088 174 261 C177.64230431 262.54065286 179.98962422 264.7595123 182.8125 267.5 C198.66411425 282.31433964 218.39414859 293.68279947 240.40625 293.30859375 C247.97327335 292.65881675 253.35328949 289.60118359 258.44140625 284.01953125 C270.28502267 268.67329142 270.61858925 247.59294397 268.70410156 229.14941406 C268.00492105 223.72447055 267.06403786 218.36429449 266 213 C265.80277344 212.00355469 265.60554687 211.00710937 265.40234375 209.98046875 C265.26957031 209.32691406 265.13679687 208.67335937 265 208 C266.0415625 207.6596875 267.083125 207.319375 268.15625 206.96875 C289.25616764 199.90318125 313.57364439 189.62001527 324.87890625 169.32421875 C328.36365269 162.09974442 329.61790462 155.7737414 326.97265625 147.96875 C316.8805039 126.27481585 294.86493815 115.81234305 273.5 108 C270.67176134 106.98416709 267.83840644 105.9872718 265 105 C265.48953913 99.65394282 266.0752707 94.40484853 267.0625 89.125 C269.69882136 70.79149801 271.1611185 48.44783709 260.625 32.375 C256.24801491 26.74744774 251.64138691 22.7971959 245 20 C242.20894394 19.6854749 239.71869035 19.52272361 236.9375 19.5625 C236.19161621 19.57007324 235.44573242 19.57764648 234.67724609 19.58544922 C213.34092357 20.21070616 195.60893423 34.82019113 180 48 C178.0016938 49.66870698 176.00072157 51.33418815 174 53 C173.28457031 52.31035156 172.56914062 51.62070312 171.83203125 50.91015625 C155.32996512 35.2411878 134.10808856 20.3296495 110.5625 19.5625 C102.0017227 19.91824276 95.8329869 22.68211932 90 29 Z " fill="#FEFEFE" transform="translate(0,0)"/>
<path d="M0 0 C2.56475719 0.00536611 5.12933987 0.00002562 7.6940918 -0.00634766 C9.35099322 -0.00568688 11.00789453 -0.00440572 12.66479492 -0.00244141 C13.41817642 -0.00446564 14.17155792 -0.00648987 14.94776917 -0.00857544 C17.13639562 0.00090326 19.31747663 0.05035945 21.50463867 0.13037109 C22.30751816 0.15968216 23.11039764 0.18899323 23.93760681 0.2191925 C29.91969295 0.63098315 29.91969295 0.63098315 32.56103516 2.88598633 C33.2118103 4.02596069 33.2118103 4.02596069 33.87573242 5.18896484 C34.63575562 6.46767456 34.63575562 6.46767456 35.41113281 7.7722168 C36.16898071 9.15606567 36.16898071 9.15606567 36.94213867 10.56787109 C37.48926514 11.50912842 38.0363916 12.45038574 38.60009766 13.42016602 C40.26706997 16.30662572 41.88843889 19.21524399 43.50463867 22.13037109 C44.47434875 23.83703546 45.44561426 25.54281733 46.41870117 27.24755859 C48.46365792 30.8589588 50.49330201 34.47654118 52.44262695 38.140625 C53.17757441 39.51759552 53.93260029 40.88396705 54.70336914 42.24121094 C57.50698602 47.37217773 57.50698602 47.37217773 57.49682617 50.65380859 C56.09699045 54.14788674 54.42621839 57.45392139 52.62963867 60.75537109 C52.23542725 61.48884766 51.84121582 62.22232422 51.43505859 62.97802734 C48.3126705 68.74281003 45.08736979 74.44835862 41.81713867 80.13037109 C41.37837402 80.89430176 40.93960938 81.65823242 40.48754883 82.4453125 C39.18305326 84.68834317 37.84707261 86.90987626 36.50463867 89.13037109 C36.02430176 89.96439453 35.54396484 90.79841797 35.04907227 91.65771484 C34.30584717 92.88167969 34.30584717 92.88167969 33.54760742 94.13037109 C33.10827881 94.87287109 32.6689502 95.61537109 32.21630859 96.38037109 C28.87283634 99.798715 24.20955073 99.17296819 19.69604492 99.27563477 C17.8197746 99.28891837 15.94345475 99.29615666 14.06713867 99.29833984 C12.56969116 99.30333244 12.56969116 99.30333244 11.04199219 99.3084259 C8.93742329 99.31347429 6.83284643 99.31583488 4.72827148 99.31567383 C1.51557229 99.31786364 -1.69678514 99.33605078 -4.90942383 99.35498047 C-6.95890183 99.35791419 -9.00838145 99.35989913 -11.05786133 99.36083984 C-12.01426514 99.36802536 -12.97066895 99.37521088 -13.95605469 99.38261414 C-18.80751328 99.36605043 -23.04394721 99.29606294 -27.49536133 97.13037109 C-29.18286133 95.33374023 -29.18286133 95.33374023 -30.49536133 93.16552734 C-30.98681641 92.37122314 -31.47827148 91.57691895 -31.98461914 90.75854492 C-32.48316406 89.91187256 -32.98170898 89.0652002 -33.49536133 88.19287109 C-34.28571777 86.89289185 -34.28571777 86.89289185 -35.09204102 85.56665039 C-38.74559082 79.51722811 -42.26511486 73.41672675 -45.49536133 67.13037109 C-46.21743058 65.79411623 -46.94013914 64.45820672 -47.66333008 63.12255859 C-48.42103161 61.68829138 -49.17754495 60.25339582 -49.93286133 58.81787109 C-50.29992187 58.14731689 -50.66698242 57.4767627 -51.04516602 56.78588867 C-53.33788822 52.3397166 -53.6563041 49.93186663 -52.49536133 45.13037109 C-51.37890625 42.54760742 -51.37890625 42.54760742 -49.97583008 39.96240234 C-49.19224121 38.51136108 -49.19224121 38.51136108 -48.39282227 37.03100586 C-47.82853516 36.01192139 -47.26424805 34.99283691 -46.68286133 33.94287109 C-45.81902832 32.36493774 -45.81902832 32.36493774 -44.93774414 30.75512695 C-31.07651689 5.71152666 -31.07651689 5.71152666 -26.49536133 1.13037109 C-17.69228203 -0.13101867 -8.87321196 -0.02210439 0 0 Z " fill="#FDFEFE" transform="translate(172.495361328125,106.86962890625)"/>
<path d="M0 0 C0.9855957 1.6796875 0.9855957 1.6796875 1.67578125 3.875 C2.0771228 5.09401001 2.0771228 5.09401001 2.48657227 6.33764648 C2.75912842 7.21622314 3.03168457 8.0947998 3.3125 9 C5.82465724 16.71715246 8.59802707 24.17569984 12.04223633 31.52929688 C14.16734158 36.34500656 14.16734158 36.34500656 13.36328125 39.4921875 C12.91339844 40.31976563 12.46351562 41.14734375 12 42 C11.03723755 44.56094811 10.07890199 47.12326363 9.125 49.6875 C7.4072386 54.2938197 5.66685789 58.88394163 3.8125 63.4375 C2.00388385 67.89471722 0.46086612 72.41819262 -1 77 C-19.86765552 72.80274612 -42.15339967 62.8639744 -53.5625 46.6875 C-54.84822845 44.28374681 -55.67561812 42.67615053 -56 40 C-56.2165625 38.4221875 -56.2165625 38.4221875 -56.4375 36.8125 C-55.51562904 28.77905306 -49.65238821 23.01480531 -43.66796875 17.97265625 C-34.26646826 11.02132719 -11.55284968 -4.43925662 0 0 Z " fill="#FDFEFE" transform="translate(90,119)"/>
<path d="M0 0 C4.00923045 20.32352039 8.88091232 45.31800006 -3 64 C-7.05975759 67.96073911 -10.40723746 69.15804871 -16 69.3125 C-36.02413382 69.04971609 -54.06335336 52.89229844 -68 40 C-63.65379356 34.08433013 -59.09095087 28.36920723 -54.47583008 22.66333008 C-50.87405094 18.17870122 -47.53415858 13.58702315 -44.40234375 8.7578125 C-41.63720721 5.29176392 -37.14448781 5.60128186 -33 5.125 C-26.5414182 4.35484856 -20.1129821 3.44718339 -13.6875 2.4375 C-12.86958984 2.31068848 -12.05167969 2.18387695 -11.20898438 2.05322266 C-7.49924828 1.46275373 -3.69671392 0 0 0 Z " fill="#FDFEFE" transform="translate(252,211)"/>
<path d="M0 0 C5.77448235 0.46774384 11.52853009 1.03284072 17.28515625 1.68457031 C19.2376353 1.89229453 21.1930105 2.07461531 23.15039062 2.22949219 C40.27084217 3.61243255 40.27084217 3.61243255 45.80200195 9.54785156 C48.46570058 12.90099648 50.71776625 16.46233162 52.8793335 20.15454102 C54.29017601 22.47784771 55.94049165 24.47130587 57.76171875 26.484375 C58.25994141 27.04640625 58.75816406 27.6084375 59.27148438 28.1875 C60.25819548 29.27628466 61.24519693 30.36480623 62.23242188 31.453125 C66.62571894 36.41386523 66.62571894 36.41386523 67 40 C51.96113652 53.36510293 32.63006688 69.26331718 11.33984375 68.31640625 C6.09133844 67.60667515 3.44841967 64.73740433 0.18554688 60.75732422 C-1.80963524 57.79988583 -2.58301118 54.56243376 -3.3125 51.125 C-3.47564697 50.38032471 -3.63879395 49.63564941 -3.80688477 48.8684082 C-6.99057407 33.10656386 -5.2768582 15.18831647 0 0 Z " fill="#FEFEFE" transform="translate(98,212)"/>
<path d="M0 0 C8.06110715 5.50220237 15.65017495 11.58730596 23 18 C20.80022366 22.70784988 17.43326077 26.24598996 13.9831543 30.06958008 C11.07860535 33.35516403 8.58187722 36.54889457 6.41796875 40.37109375 C0.25407351 50.86901461 0.25407351 50.86901461 -5.71142578 52.94238281 C-12.08221361 54.25723326 -18.4955391 54.56505115 -24.98193359 54.82128906 C-29.25941386 55.07457458 -33.37370339 55.81588496 -37.5625 56.6875 C-38.82191406 56.93886719 -40.08132812 57.19023438 -41.37890625 57.44921875 C-42.24386719 57.63097656 -43.10882813 57.81273438 -44 58 C-49.42609242 38.90015467 -52.51981797 16.94994129 -45 -2 C-42.76155388 -5.79615931 -40.37602675 -8.1671417 -36.625 -10.4375 C-23.37422047 -13.27695276 -10.93879499 -6.91830574 0 0 Z " fill="#FDFEFE" transform="translate(142,44)"/>
<path d="M0 0 C7.62793238 7.62793238 9.83525466 18.30500524 9.95336914 28.76806641 C9.94551392 30.02756104 9.94551392 30.02756104 9.9375 31.3125 C9.93548584 32.20372559 9.93347168 33.09495117 9.93139648 34.01318359 C9.77192576 44.97751178 9.11359848 57.15920456 5.625 67.625 C4.85260986 67.49802734 4.08021973 67.37105469 3.28442383 67.24023438 C-2.6318655 66.29525613 -8.52361919 65.47814762 -14.48828125 64.90625 C-15.67357422 64.77734375 -16.85886719 64.6484375 -18.08007812 64.515625 C-20.50121089 64.25345578 -22.9261759 64.02469167 -25.35351562 63.828125 C-31.88443724 63.05684065 -35.67063082 62.15555725 -39.8828125 56.9140625 C-41.07307237 55.16862118 -42.23919269 53.40635502 -43.375 51.625 C-44.33986756 50.36033927 -45.31874304 49.1061404 -46.31640625 47.8671875 C-46.75170654 47.30789551 -47.18700684 46.74860352 -47.63549805 46.17236328 C-52.04977119 40.50242685 -56.53601331 34.94293077 -61.375 29.625 C-59.81780123 25.59129233 -56.98713865 23.20283492 -53.75 20.5 C-53.18095947 20.02353027 -52.61191895 19.54706055 -52.02563477 19.05615234 C-38.90036994 8.34287834 -17.7057542 -7.21345541 0 0 Z " fill="#FDFEFE" transform="translate(245.375,34.375)"/>
<path d="M0 0 C18.95281329 5.22104375 42.22051283 12.98325207 52.93359375 30.77734375 C54.9157296 34.90860859 55.68769064 38.33046075 54.50390625 42.92578125 C48.57824278 57.07365718 32.47461112 65.44682408 19.11328125 71.1484375 C12.81970213 73.70441416 6.78063172 76.13506902 0 77 C-0.1858667 76.45174561 -0.3717334 75.90349121 -0.56323242 75.33862305 C-6.24192015 58.57051388 -6.24192015 58.57051388 -13.875 42.625 C-15.53150177 38.75982921 -14.41646534 36.163267 -13.03198242 32.29614258 C-12.64373291 31.33861084 -12.2554834 30.3810791 -11.85546875 29.39453125 C-11.21061523 27.79448242 -11.21061523 27.79448242 -10.55273438 26.16210938 C-10.10220703 25.05673828 -9.65167969 23.95136719 -9.1875 22.8125 C-8.52911133 21.18344727 -8.52911133 21.18344727 -7.85742188 19.52148438 C-6.9903935 17.37645875 -6.12177576 15.23207479 -5.25146484 13.08837891 C-3.48600455 8.73155628 -1.74111582 4.36659819 0 0 Z " fill="#FEFEFE" transform="translate(260,118)"/>
<path d="M0 0 C7.57031681 4.51819965 11.49016568 11.13846579 14.21875 19.32421875 C15.21886855 28.25970417 13.0518286 35.97299059 7.59375 43.13671875 C2.68629626 48.43226194 -4.69308804 51.82687961 -11.859375 52.52734375 C-21.64563535 52.738558 -27.48221793 49.59379699 -34.5703125 42.84375 C-40.04357821 36.60654791 -41.39659652 29.93695046 -41.03125 21.78515625 C-40.2653218 14.24555052 -36.36577735 7.26035037 -30.4921875 2.44921875 C-21.07875832 -3.92860949 -10.49322902 -4.85482187 0 0 Z " fill="#52C1DE" transform="translate(187.78125,131.67578125)"/>
<path d="M0 0 C10.89 0 21.78 0 33 0 C33 44.55 33 89.1 33 135 C32.01 135 31.02 135 30 135 C30 130.05 30 125.1 30 120 C25.05 120 20.1 120 15 120 C15 115.05 15 110.1 15 105 C19.95 105 24.9 105 30 105 C30 100.05 30 95.1 30 90 C25.05 90 20.1 90 15 90 C15 85.05 15 80.1 15 75 C19.95 75 24.9 75 30 75 C30 70.05 30 65.1 30 60 C25.05 60 20.1 60 15 60 C15 55.05 15 50.1 15 45 C19.95 45 24.9 45 30 45 C30 40.05 30 35.1 30 30 C25.05 30 20.1 30 15 30 C15 25.05 15 20.1 15 15 C10.05 15 5.1 15 0 15 C0 10.05 0 5.1 0 0 Z " fill="#F5F6F6" transform="translate(315,0)"/>
<path d="M0 0 C4.95 0 9.9 0 15 0 C15 4.95 15 9.9 15 15 C19.95 15 24.9 15 30 15 C30 10.05 30 5.1 30 0 C34.95 0 39.9 0 45 0 C45 4.95 45 9.9 45 15 C49.95 15 54.9 15 60 15 C60 19.29 60 23.58 60 28 C40.2 28 20.4 28 0 28 C0 18.76 0 9.52 0 0 Z " fill="#EEEFEF" transform="translate(0,285)"/>
<path d="M0 0 C2.38977826 2.92036771 3.77612056 5.62111334 5.04296875 9.16796875 C5.39423828 10.14314453 5.74550781 11.11832031 6.10742188 12.12304688 C6.46384766 13.13431641 6.82027344 14.14558594 7.1875 15.1875 C7.55552734 16.21037109 7.92355469 17.23324219 8.30273438 18.28710938 C11 25.82844388 11 25.82844388 11 27 C1.67490566 28.8815863 -7.47850555 30.47703913 -17 31 C-15.67945723 27.51168589 -14.14554233 24.32479682 -12.28515625 21.09375 C-11.76373047 20.18496094 -11.24230469 19.27617187 -10.70507812 18.33984375 C-10.16302734 17.40269531 -9.62097656 16.46554688 -9.0625 15.5 C-8.52431641 14.56285156 -7.98613281 13.62570313 -7.43164062 12.66015625 C-4.99112363 8.41708725 -2.52688449 4.19234168 0 0 Z " fill="#FBFDFD" transform="translate(237,172)"/>
<path d="M0 0 C11.55 0 23.1 0 35 0 C33.56001055 2.87997891 32.43396444 4.90200247 30.50390625 7.34765625 C30.02759766 7.95287109 29.55128906 8.55808594 29.06054688 9.18164062 C28.56619141 9.80232422 28.07183594 10.42300781 27.5625 11.0625 C27.07201172 11.68705078 26.58152344 12.31160156 26.07617188 12.95507812 C21.42921651 18.83118768 21.42921651 18.83118768 19 21 C17.0859375 21.00390625 17.0859375 21.00390625 15 20 C12.8515625 17.77734375 12.8515625 17.77734375 10.625 14.9375 C9.84511719 13.94878906 9.06523437 12.96007812 8.26171875 11.94140625 C7.51535156 10.97074219 6.76898438 10.00007812 6 9 C5.36707031 8.18402344 4.73414063 7.36804688 4.08203125 6.52734375 C0 1.18482779 0 1.18482779 0 0 Z " fill="#FBFDFD" transform="translate(157,219)"/>
<path d="M0 0 C2.00877871 2.58819237 3.73877153 5.17048098 5.3046875 8.046875 C5.72363281 8.81 6.14257812 9.573125 6.57421875 10.359375 C7.00347656 11.14828125 7.43273437 11.9371875 7.875 12.75 C10.78080898 18.0817596 13.75035346 23.30308321 17.08642578 28.37988281 C18 30 18 30 18 32 C14.62367841 31.55108327 11.24925386 31.08918307 7.875 30.625 C6.92367187 30.49867188 5.97234375 30.37234375 4.9921875 30.2421875 C0.12289062 29.56589627 -4.38642347 28.78640169 -9 27 C-7.71011592 20.49194848 -5.8622531 14.57980187 -3.375 8.4375 C-3.05015625 7.61958984 -2.7253125 6.80167969 -2.390625 5.95898438 C-1.59978204 3.97024694 -0.80075781 1.98476601 0 0 Z " fill="#FAFDFD" transform="translate(111,172)"/>
<path d="M0 0 C3.65076122 1.51151426 5.76019504 3.63116602 8.375 6.5625 C9.10460937 7.36816406 9.83421875 8.17382812 10.5859375 9.00390625 C13.65038681 12.80719528 16.2907079 16.93606185 19 21 C7.45 21 -4.1 21 -16 21 C-11.50260571 13.12956 -11.50260571 13.12956 -9.23828125 10.76171875 C-8.75939453 10.25189453 -8.28050781 9.74207031 -7.78710938 9.21679688 C-7.30048828 8.71212891 -6.81386719 8.20746094 -6.3125 7.6875 C-2.75483054 4.14100237 -2.75483054 4.14100237 0 0 Z " fill="#FCFDFE" transform="translate(173,73)"/>
<path d="M0 0 C18.34042553 2 18.34042553 2 27 4 C24.75424696 13.29820555 21.45076489 22.09948344 18 31 C15.42023408 28.67670204 13.96734716 26.32295066 12.375 23.25 C9.42332009 17.68205835 6.21168074 12.30835573 2.89599609 6.95214844 C0 2.21369751 0 2.21369751 0 0 Z " fill="#FBFDFD" transform="translate(220,110)"/>
<path d="M0 0 C-3.13514383 6.4368895 -6.56861676 12.66214558 -10.125 18.875 C-10.66253906 19.82375 -11.20007813 20.7725 -11.75390625 21.75 C-12.27082031 22.65492188 -12.78773437 23.55984375 -13.3203125 24.4921875 C-13.78711426 25.31058105 -14.25391602 26.12897461 -14.73486328 26.97216797 C-16 29 -16 29 -18 31 C-27 8.13114754 -27 8.13114754 -27 4 C-23.43884042 3.32603699 -19.87587859 2.66212182 -16.3125 2 C-15.30509766 1.80921875 -14.29769531 1.6184375 -13.25976562 1.421875 C-12.28330078 1.24140625 -11.30683594 1.0609375 -10.30078125 0.875 C-9.40528564 0.70742187 -8.50979004 0.53984375 -7.5871582 0.3671875 C-5.01987068 0.00282018 -2.58907987 -0.06528807 0 0 Z " fill="#FBFDFD" transform="translate(129,110)"/>
<path d="M0 0 C0.99 0 1.98 0 3 0 C3 14.19 3 28.38 3 43 C2.01 43 1.02 43 0 43 C0 38.71 0 34.42 0 30 C-4.95 30 -9.9 30 -15 30 C-15 25.05 -15 20.1 -15 15 C-10.05 15 -5.1 15 0 15 C0 10.05 0 5.1 0 0 Z " fill="#F0F1F1" transform="translate(345,270)"/>
<path d="M0 0 C4.95 0 9.9 0 15 0 C15 4.95 15 9.9 15 15 C10.05 15 5.1 15 0 15 C0 10.05 0 5.1 0 0 Z " fill="#EEEFEF" transform="translate(300,285)"/>
<path d="M0 0 C4.95 0 9.9 0 15 0 C15 4.95 15 9.9 15 15 C10.05 15 5.1 15 0 15 C0 10.05 0 5.1 0 0 Z " fill="#EEEFEF" transform="translate(30,285)"/>
<path d="M0 0 C4.95 0 9.9 0 15 0 C15 4.95 15 9.9 15 15 C10.05 15 5.1 15 0 15 C0 10.05 0 5.1 0 0 Z " fill="#EEEFEF" transform="translate(315,270)"/>
<path d="M0 0 C4.95 0 9.9 0 15 0 C15 4.95 15 9.9 15 15 C10.05 15 5.1 15 0 15 C0 10.05 0 5.1 0 0 Z " fill="#EEEFEF" transform="translate(285,270)"/>
<path d="M0 0 C4.95 0 9.9 0 15 0 C15 4.95 15 9.9 15 15 C10.05 15 5.1 15 0 15 C0 10.05 0 5.1 0 0 Z " fill="#EEEFEF" transform="translate(45,270)"/>
<path d="M0 0 C4.95 0 9.9 0 15 0 C15 4.95 15 9.9 15 15 C10.05 15 5.1 15 0 15 C0 10.05 0 5.1 0 0 Z " fill="#EEEFEF" transform="translate(15,270)"/>
<path d="M0 0 C4.95 0 9.9 0 15 0 C15 4.95 15 9.9 15 15 C10.05 15 5.1 15 0 15 C0 10.05 0 5.1 0 0 Z " fill="#EEEFEF" transform="translate(330,255)"/>
<path d="M0 0 C4.95 0 9.9 0 15 0 C15 4.95 15 9.9 15 15 C10.05 15 5.1 15 0 15 C0 10.05 0 5.1 0 0 Z " fill="#EEEFEF" transform="translate(300,255)"/>
<path d="M0 0 C4.95 0 9.9 0 15 0 C15 4.95 15 9.9 15 15 C10.05 15 5.1 15 0 15 C0 10.05 0 5.1 0 0 Z " fill="#EEEFEF" transform="translate(30,255)"/>
<path d="M0 0 C4.95 0 9.9 0 15 0 C15 4.95 15 9.9 15 15 C10.05 15 5.1 15 0 15 C0 10.05 0 5.1 0 0 Z " fill="#EEEFEF" transform="translate(0,255)"/>
<path d="M0 0 C4.95 0 9.9 0 15 0 C15 4.95 15 9.9 15 15 C10.05 15 5.1 15 0 15 C0 10.05 0 5.1 0 0 Z " fill="#EEEFEF" transform="translate(315,240)"/>
<path d="M0 0 C4.95 0 9.9 0 15 0 C15 4.95 15 9.9 15 15 C10.05 15 5.1 15 0 15 C0 10.05 0 5.1 0 0 Z " fill="#EEEFEF" transform="translate(285,240)"/>
<path d="M0 0 C4.95 0 9.9 0 15 0 C15 4.95 15 9.9 15 15 C10.05 15 5.1 15 0 15 C0 10.05 0 5.1 0 0 Z " fill="#EEEFEF" transform="translate(45,240)"/>
<path d="M0 0 C4.95 0 9.9 0 15 0 C15 4.95 15 9.9 15 15 C10.05 15 5.1 15 0 15 C0 10.05 0 5.1 0 0 Z " fill="#EEEFEF" transform="translate(15,240)"/>
<path d="M0 0 C4.95 0 9.9 0 15 0 C15 4.95 15 9.9 15 15 C10.05 15 5.1 15 0 15 C0 10.05 0 5.1 0 0 Z " fill="#EEEFEF" transform="translate(330,225)"/>
<path d="M0 0 C4.95 0 9.9 0 15 0 C15 4.95 15 9.9 15 15 C10.05 15 5.1 15 0 15 C0 10.05 0 5.1 0 0 Z " fill="#EEEFEF" transform="translate(300,225)"/>
<path d="M0 0 C4.95 0 9.9 0 15 0 C15 4.95 15 9.9 15 15 C10.05 15 5.1 15 0 15 C0 10.05 0 5.1 0 0 Z " fill="#EEEFEF" transform="translate(30,225)"/>
<path d="M0 0 C4.95 0 9.9 0 15 0 C15 4.95 15 9.9 15 15 C10.05 15 5.1 15 0 15 C0 10.05 0 5.1 0 0 Z " fill="#EEEFEF" transform="translate(0,225)"/>
<path d="M0 0 C4.95 0 9.9 0 15 0 C15 4.95 15 9.9 15 15 C10.05 15 5.1 15 0 15 C0 10.05 0 5.1 0 0 Z " fill="#EEEFEF" transform="translate(315,210)"/>
<path d="M0 0 C4.95 0 9.9 0 15 0 C15 4.95 15 9.9 15 15 C10.05 15 5.1 15 0 15 C0 10.05 0 5.1 0 0 Z " fill="#EEEFEF" transform="translate(15,210)"/>
<path d="M0 0 C4.95 0 9.9 0 15 0 C15 4.95 15 9.9 15 15 C10.05 15 5.1 15 0 15 C0 10.05 0 5.1 0 0 Z " fill="#EEEFEF" transform="translate(330,195)"/>
<path d="M0 0 C4.95 0 9.9 0 15 0 C15 4.95 15 9.9 15 15 C10.05 15 5.1 15 0 15 C0 10.05 0 5.1 0 0 Z " fill="#EEEFEF" transform="translate(0,195)"/>
<path d="M0 0 C4.95 0 9.9 0 15 0 C15 4.95 15 9.9 15 15 C10.05 15 5.1 15 0 15 C0 10.05 0 5.1 0 0 Z " fill="#EEEFEF" transform="translate(0,105)"/>
<path d="M0 0 C4.95 0 9.9 0 15 0 C15 4.95 15 9.9 15 15 C10.05 15 5.1 15 0 15 C0 10.05 0 5.1 0 0 Z " fill="#EEEFEF" transform="translate(315,90)"/>
<path d="M0 0 C4.95 0 9.9 0 15 0 C15 4.95 15 9.9 15 15 C10.05 15 5.1 15 0 15 C0 10.05 0 5.1 0 0 Z " fill="#EEEFEF" transform="translate(15,90)"/>
<path d="M0 0 C4.95 0 9.9 0 15 0 C15 4.95 15 9.9 15 15 C10.05 15 5.1 15 0 15 C0 10.05 0 5.1 0 0 Z " fill="#FFFFFF" transform="translate(0,90)"/>
<path d="M0 0 C4.95 0 9.9 0 15 0 C15 4.95 15 9.9 15 15 C10.05 15 5.1 15 0 15 C0 10.05 0 5.1 0 0 Z " fill="#EEEFEF" transform="translate(300,75)"/>
<path d="M0 0 C4.95 0 9.9 0 15 0 C15 4.95 15 9.9 15 15 C10.05 15 5.1 15 0 15 C0 10.05 0 5.1 0 0 Z " fill="#EEEFEF" transform="translate(30,75)"/>
<path d="M0 0 C4.95 0 9.9 0 15 0 C15 4.95 15 9.9 15 15 C10.05 15 5.1 15 0 15 C0 10.05 0 5.1 0 0 Z " fill="#FFFFFF" transform="translate(15,75)"/>
<path d="M0 0 C4.95 0 9.9 0 15 0 C15 4.95 15 9.9 15 15 C10.05 15 5.1 15 0 15 C0 10.05 0 5.1 0 0 Z " fill="#EEEFEF" transform="translate(0,75)"/>
<path d="M0 0 C4.95 0 9.9 0 15 0 C15 4.95 15 9.9 15 15 C10.05 15 5.1 15 0 15 C0 10.05 0 5.1 0 0 Z " fill="#EEEFEF" transform="translate(315,60)"/>
<path d="M0 0 C4.95 0 9.9 0 15 0 C15 4.95 15 9.9 15 15 C10.05 15 5.1 15 0 15 C0 10.05 0 5.1 0 0 Z " fill="#EEEFEF" transform="translate(285,60)"/>
<path d="M0 0 C4.95 0 9.9 0 15 0 C15 4.95 15 9.9 15 15 C10.05 15 5.1 15 0 15 C0 10.05 0 5.1 0 0 Z " fill="#EEEFEF" transform="translate(45,60)"/>
<path d="M0 0 C4.95 0 9.9 0 15 0 C15 4.95 15 9.9 15 15 C10.05 15 5.1 15 0 15 C0 10.05 0 5.1 0 0 Z " fill="#FFFFFF" transform="translate(30,60)"/>
<path d="M0 0 C4.95 0 9.9 0 15 0 C15 4.95 15 9.9 15 15 C10.05 15 5.1 15 0 15 C0 10.05 0 5.1 0 0 Z " fill="#EEEFEF" transform="translate(15,60)"/>
<path d="M0 0 C4.95 0 9.9 0 15 0 C15 4.95 15 9.9 15 15 C10.05 15 5.1 15 0 15 C0 10.05 0 5.1 0 0 Z " fill="#FFFFFF" transform="translate(0,60)"/>
<path d="M0 0 C4.95 0 9.9 0 15 0 C15 4.95 15 9.9 15 15 C10.05 15 5.1 15 0 15 C0 10.05 0 5.1 0 0 Z " fill="#EEEFEF" transform="translate(330,45)"/>
<path d="M0 0 C4.95 0 9.9 0 15 0 C15 4.95 15 9.9 15 15 C10.05 15 5.1 15 0 15 C0 10.05 0 5.1 0 0 Z " fill="#EEEFEF" transform="translate(300,45)"/>
<path d="M0 0 C4.95 0 9.9 0 15 0 C15 4.95 15 9.9 15 15 C10.05 15 5.1 15 0 15 C0 10.05 0 5.1 0 0 Z " fill="#EEEFEF" transform="translate(30,45)"/>
<path d="M0 0 C4.95 0 9.9 0 15 0 C15 4.95 15 9.9 15 15 C10.05 15 5.1 15 0 15 C0 10.05 0 5.1 0 0 Z " fill="#FFFFFF" transform="translate(15,45)"/>
<path d="M0 0 C4.95 0 9.9 0 15 0 C15 4.95 15 9.9 15 15 C10.05 15 5.1 15 0 15 C0 10.05 0 5.1 0 0 Z " fill="#EEEFEF" transform="translate(0,45)"/>
<path d="M0 0 C4.95 0 9.9 0 15 0 C15 4.95 15 9.9 15 15 C10.05 15 5.1 15 0 15 C0 10.05 0 5.1 0 0 Z " fill="#EEEFEF" transform="translate(315,30)"/>
<path d="M0 0 C4.95 0 9.9 0 15 0 C15 4.95 15 9.9 15 15 C10.05 15 5.1 15 0 15 C0 10.05 0 5.1 0 0 Z " fill="#EEEFEF" transform="translate(285,30)"/>
<path d="M0 0 C4.95 0 9.9 0 15 0 C15 4.95 15 9.9 15 15 C10.05 15 5.1 15 0 15 C0 10.05 0 5.1 0 0 Z " fill="#EEEFEF" transform="translate(45,30)"/>
<path d="M0 0 C4.95 0 9.9 0 15 0 C15 4.95 15 9.9 15 15 C10.05 15 5.1 15 0 15 C0 10.05 0 5.1 0 0 Z " fill="#FFFFFF" transform="translate(30,30)"/>
<path d="M0 0 C4.95 0 9.9 0 15 0 C15 4.95 15 9.9 15 15 C10.05 15 5.1 15 0 15 C0 10.05 0 5.1 0 0 Z " fill="#EEEFEF" transform="translate(15,30)"/>
<path d="M0 0 C4.95 0 9.9 0 15 0 C15 4.95 15 9.9 15 15 C10.05 15 5.1 15 0 15 C0 10.05 0 5.1 0 0 Z " fill="#FFFFFF" transform="translate(0,30)"/>
<path d="M0 0 C4.95 0 9.9 0 15 0 C15 4.95 15 9.9 15 15 C10.05 15 5.1 15 0 15 C0 10.05 0 5.1 0 0 Z " fill="#EEEFEF" transform="translate(330,15)"/>
<path d="M0 0 C4.95 0 9.9 0 15 0 C15 4.95 15 9.9 15 15 C10.05 15 5.1 15 0 15 C0 10.05 0 5.1 0 0 Z " fill="#EEEFEF" transform="translate(300,15)"/>
<path d="M0 0 C4.95 0 9.9 0 15 0 C15 4.95 15 9.9 15 15 C10.05 15 5.1 15 0 15 C0 10.05 0 5.1 0 0 Z " fill="#EEEFEF" transform="translate(30,15)"/>
<path d="M0 0 C4.95 0 9.9 0 15 0 C15 4.95 15 9.9 15 15 C10.05 15 5.1 15 0 15 C0 10.05 0 5.1 0 0 Z " fill="#FFFFFF" transform="translate(15,15)"/>
<path d="M0 0 C4.95 0 9.9 0 15 0 C15 4.95 15 9.9 15 15 C10.05 15 5.1 15 0 15 C0 10.05 0 5.1 0 0 Z " fill="#EEEFEF" transform="translate(0,15)"/>
<path d="M0 0 C4.95 0 9.9 0 15 0 C15 4.95 15 9.9 15 15 C10.05 15 5.1 15 0 15 C0 10.05 0 5.1 0 0 Z " fill="#EEEFEF" transform="translate(315,0)"/>
<path d="M0 0 C4.95 0 9.9 0 15 0 C15 4.95 15 9.9 15 15 C10.05 15 5.1 15 0 15 C0 10.05 0 5.1 0 0 Z " fill="#EEEFEF" transform="translate(285,0)"/>
<path d="M0 0 C4.95 0 9.9 0 15 0 C15 4.95 15 9.9 15 15 C10.05 15 5.1 15 0 15 C0 10.05 0 5.1 0 0 Z " fill="#EEEFEF" transform="translate(165,0)"/>
<path d="M0 0 C4.95 0 9.9 0 15 0 C15 4.95 15 9.9 15 15 C10.05 15 5.1 15 0 15 C0 10.05 0 5.1 0 0 Z " fill="#EEEFEF" transform="translate(45,0)"/>
<path d="M0 0 C4.95 0 9.9 0 15 0 C15 4.95 15 9.9 15 15 C10.05 15 5.1 15 0 15 C0 10.05 0 5.1 0 0 Z " fill="#FFFFFF" transform="translate(30,0)"/>
<path d="M0 0 C4.95 0 9.9 0 15 0 C15 4.95 15 9.9 15 15 C10.05 15 5.1 15 0 15 C0 10.05 0 5.1 0 0 Z " fill="#FFFFFF" transform="translate(0,0)"/>
<path d="M0 0 C3.3 0 6.6 0 10 0 C15 8.25 15 8.25 15 15 C10.05 15 5.1 15 0 15 C0 10.05 0 5.1 0 0 Z " fill="#EEEFEF" transform="translate(60,285)"/>
<path d="M0 0 C4.95 0 9.9 0 15 0 C15 4.29 15 8.58 15 13 C10.05 13 5.1 13 0 13 C0 8.71 0 4.42 0 0 Z " fill="#EEEFEF" transform="translate(315,300)"/>
<path d="M0 0 C4.95 0 9.9 0 15 0 C15 4.29 15 8.58 15 13 C10.05 13 5.1 13 0 13 C0 8.71 0 4.42 0 0 Z " fill="#EEEFEF" transform="translate(285,300)"/>
<path d="M0 0 C4.95 0 9.9 0 15 0 C15 4.29 15 8.58 15 13 C10.05 13 5.1 13 0 13 C0 8.71 0 4.42 0 0 Z " fill="#EEEFEF" transform="translate(165,300)"/>
<path d="M0 0 C4.95 0 9.9 0 15 0 C15 4.29 15 8.58 15 13 C10.05 13 5.1 13 0 13 C0 8.71 0 4.42 0 0 Z " fill="#EEEFEF" transform="translate(45,300)"/>
<path d="M0 0 C4.95 0 9.9 0 15 0 C15 4.29 15 8.58 15 13 C10.05 13 5.1 13 0 13 C0 8.71 0 4.42 0 0 Z " fill="#FFFFFF" transform="translate(30,300)"/>
<path d="M0 0 C4.95 0 9.9 0 15 0 C15 4.29 15 8.58 15 13 C10.05 13 5.1 13 0 13 C0 8.71 0 4.42 0 0 Z " fill="#EEEFEF" transform="translate(15,300)"/>
<path d="M0 0 C4.95 0 9.9 0 15 0 C15 4.29 15 8.58 15 13 C10.05 13 5.1 13 0 13 C0 8.71 0 4.42 0 0 Z " fill="#FFFFFF" transform="translate(0,300)"/>
<path d="M0 0 C4.95 0 9.9 0 15 0 C14.18663133 4.88021201 13.77939233 6.9117976 11.4375 10.875 C10.98246094 11.65617187 10.52742188 12.43734375 10.05859375 13.2421875 C9.70925781 13.82226562 9.35992187 14.40234375 9 15 C6.03 15 3.06 15 0 15 C0 10.05 0 5.1 0 0 Z " fill="#EEEFEF" transform="translate(60,15)"/>
<path d="M0 0 C4.95 0 9.9 0 15 0 C15 2.97 15 5.94 15 9 C13.25595212 10.01034498 11.50450439 11.00792422 9.75 12 C8.77546875 12.556875 7.8009375 13.11375 6.796875 13.6875 C4 15 4 15 0 15 C0 10.05 0 5.1 0 0 Z " fill="#EEEFEF" transform="translate(195,0)"/>
<path d="M0 0 C0 4.95 0 9.9 0 15 C-4.95 15 -9.9 15 -15 15 C-15 12.03 -15 9.06 -15 6 C-12.6884227 4.99781939 -10.37581116 3.99816342 -8.0625 3 C-7.40314453 2.71382812 -6.74378906 2.42765625 -6.06445312 2.1328125 C-1.11328125 0 -1.11328125 0 0 0 Z " fill="#EEEFEF" transform="translate(300,210)"/>
<path d="M0 0 C6.75 0 6.75 0 10.875 2.5 C11.65617188 2.9640625 12.43734375 3.428125 13.2421875 3.90625 C13.82226562 4.2671875 14.40234375 4.628125 15 5 C15 7.64 15 10.28 15 13 C10.05 13 5.1 13 0 13 C0 8.71 0 4.42 0 0 Z " fill="#EEEFEF" transform="translate(195,300)"/>
<path d="M0 0 C4.95 0 9.9 0 15 0 C15 6 15 6 12.734375 8.30078125 C11.74953125 8.96464844 10.7646875 9.62851563 9.75 10.3125 C8.77546875 10.98925781 7.8009375 11.66601562 6.796875 12.36328125 C4 14 4 14 0 15 C0 10.05 0 5.1 0 0 Z " fill="#EEEFEF" transform="translate(75,0)"/>
<path d="M0 0 C2.31 0 4.62 0 7 0 C7 4.95 7 9.9 7 15 C2.05 15 -2.9 15 -8 15 C-6.53713194 12.07426389 -5.03438375 9.22555666 -3.4375 6.375 C-2.25527911 4.26313955 -1.08234999 2.16469998 0 0 Z " fill="#EEEFEF" transform="translate(278,285)"/>
<path d="M0 0 C4.95 0 9.9 0 15 0 C15 2.31 15 4.62 15 7 C12.68868934 8.16907584 10.37604377 9.33535892 8.0625 10.5 C7.40314453 10.83386719 6.74378906 11.16773437 6.06445312 11.51171875 C1.11328125 14 1.11328125 14 0 14 C0 9.38 0 4.76 0 0 Z " fill="#EEEFEF" transform="translate(45,90)"/>
<path d="M0 0 C4.95 2.31 9.9 4.62 15 7 C15 9.31 15 11.62 15 14 C10.05 14 5.1 14 0 14 C0 9.38 0 4.76 0 0 Z " fill="#EEEFEF" transform="translate(45,211)"/>
<path d="M0 0 C4.95 0 9.9 0 15 0 C15 4.62 15 9.24 15 14 C10.05 11.69 5.1 9.38 0 7 C0 4.69 0 2.38 0 0 Z " fill="#EEEFEF" transform="translate(135,0)"/>
<path d="M0 0 C5.61411765 0 5.61411765 0 9.1875 2.9375 C11.94820463 5.19431415 11.94820463 5.19431415 15 7 C15 8.98 15 10.96 15 13 C10.05 13 5.1 13 0 13 C0 8.71 0 4.42 0 0 Z " fill="#EEEFEF" transform="translate(75,300)"/>
<path d="M0 0 C4.62 0 9.24 0 14 0 C14 4.95 14 9.9 14 15 C12.02 15 10.04 15 8 15 C7.67386719 14.33613281 7.34773438 13.67226563 7.01171875 12.98828125 C6.57472656 12.10527344 6.13773437 11.22226562 5.6875 10.3125 C5.25824219 9.44238281 4.82898438 8.57226562 4.38671875 7.67578125 C3.03074206 5.05931918 1.51619608 2.52699347 0 0 Z " fill="#EEEFEF" transform="translate(271,15)"/>
<path d="M0 0 C4.95 0 9.9 0 15 0 C15 3.96 15 7.92 15 12 C9.74576086 10.32819664 4.87138415 8.62305301 0 6 C0 4.02 0 2.04 0 0 Z " fill="#EEEFEF" transform="translate(285,90)"/>
<path d="M0 0 C0 3.96 0 7.92 0 12 C-4.95 12 -9.9 12 -15 12 C-15 10.02 -15 8.04 -15 6 C-12.87717331 4.99539469 -10.75166979 3.99644398 -8.625 3 C-7.44164062 2.443125 -6.25828125 1.88625 -5.0390625 1.3125 C-2 0 -2 0 0 0 Z " fill="#EEEFEF" transform="translate(150,301)"/>
<path d="M0 0 C2.20162555 1.46775037 4.40245399 2.93672259 6.59765625 4.4140625 C8.02365377 5.35545274 9.46447486 6.27586991 10.93359375 7.1484375 C12.5625 8.125 12.5625 8.125 15 10 C15 11.32 15 12.64 15 14 C10.05 14 5.1 14 0 14 C0 9.38 0 4.76 0 0 Z " fill="#EEEFEF" transform="translate(180,286)"/>
<path d="M0 0 C4.95 0 9.9 0 15 0 C15 4.62 15 9.24 15 14 C13.2365625 12.63875 13.2365625 12.63875 11.4375 11.25 C7.76578729 8.48803429 4.03684438 6.18662404 0 4 C0 2.68 0 1.36 0 0 Z " fill="#EEEFEF" transform="translate(255,0)"/>
<path d="M0 0 C0 4.29 0 8.58 0 13 C-4.95 13 -9.9 13 -15 13 C-15 11.68 -15 10.36 -15 9 C-12.8828125 7.296875 -12.8828125 7.296875 -10.125 5.75 C-9.22007812 5.22921875 -8.31515625 4.7084375 -7.3828125 4.171875 C-5 3 -5 3 -3 3 C-3 2.34 -3 1.68 -3 1 C-1 0 -1 0 0 0 Z " fill="#EEEFEF" transform="translate(270,300)"/>
<path d="M0 0 C4.95 0 9.9 0 15 0 C12.75494435 4.4901113 11.08298414 5.58186956 6.9375 8.25 C5.85339844 8.95640625 4.76929688 9.6628125 3.65234375 10.390625 C1 12 1 12 0 12 C0 8.04 0 4.08 0 0 Z " fill="#EEEFEF" transform="translate(180,15)"/>
<path d="M0 0 C1.32 0 2.64 0 4 0 C4.3351658 2.12471175 4.66807829 4.24977905 5 6.375 C5.185625 7.55835937 5.37125 8.74171875 5.5625 9.9609375 C6 13 6 13 6 15 C4.02 15 2.04 15 0 15 C0 10.05 0 5.1 0 0 Z " fill="#EEEFEF" transform="translate(60,75)"/>
<path d="M0 0 C1.98 0 3.96 0 6 0 C5.03644647 10.55808656 5.03644647 10.55808656 4 15 C2.68 15 1.36 15 0 15 C0 10.05 0 5.1 0 0 Z " fill="#EEEFEF" transform="translate(60,225)"/>
<path d="M0 0 C0.99 0.33 1.98 0.66 3 1 C4.1328125 3.3984375 4.1328125 3.3984375 5.125 6.375 C5.45757813 7.35210937 5.79015625 8.32921875 6.1328125 9.3359375 C6.41898437 10.21507812 6.70515625 11.09421875 7 12 C7.33 12.99 7.66 13.98 8 15 C5.36 15 2.72 15 0 15 C0 10.05 0 5.1 0 0 Z " fill="#EEEFEF" transform="translate(0,165)"/>
<path d="M0 0 C1.32 0 2.64 0 4 0 C4.33 4.95 4.66 9.9 5 15 C3.35 15 1.7 15 0 15 C0 10.05 0 5.1 0 0 Z " fill="#EEEFEF" transform="translate(60,255)"/>
<path d="M0 0 C4.29 0 8.58 0 13 0 C13 2.97 13 5.94 13 9 C8.53390039 6.49898422 4.18095889 3.95726361 0 1 C0 0.67 0 0.34 0 0 Z " fill="#EEEFEF" transform="translate(152,15)"/>
<path d="M0 0 C0 2.97 0 5.94 0 9 C-4.29 9 -8.58 9 -13 9 C-1.75 0 -1.75 0 0 0 Z " fill="#EEEFEF" transform="translate(165,291)"/>
<path d="M0 0 C2.31 0 4.62 0 7 0 C5.33333333 5 3.66666667 10 2 15 C1.34 15 0.68 15 0 15 C0 10.05 0 5.1 0 0 Z " fill="#EEEFEF" transform="translate(0,135)"/>
<path d="M0 0 C1.65 0 3.3 0 5 0 C4.67 4.62 4.34 9.24 4 14 C2.68 14.33 1.36 14.66 0 15 C0 10.05 0 5.1 0 0 Z " fill="#EEEFEF" transform="translate(60,45)"/>
<path d="M0 0 C0 2.31 0 4.62 0 7 C-4.62 7 -9.24 7 -14 7 C-11.51520614 5.34347076 -9.0363745 3.83927526 -6.4375 2.375 C-5.65246094 1.92898437 -4.86742187 1.48296875 -4.05859375 1.0234375 C-2 0 -2 0 0 0 Z " fill="#EEEFEF" transform="translate(315,203)"/>
<path d="M0 0 C4.30764815 1.56641751 8.06171464 3.68336156 12 6 C12 6.33 12 6.66 12 7 C8.04 7 4.08 7 0 7 C0 4.69 0 2.38 0 0 Z " fill="#EEEFEF" transform="translate(30,203)"/>
<path d="M0 0 C3.96 0 7.92 0 12 0 C3.55172414 7 3.55172414 7 0 7 C0 4.69 0 2.38 0 0 Z " fill="#EEEFEF" transform="translate(30,105)"/>
<path d="M0 0 C0.99 0 1.98 0 3 0 C3 4.95 3 9.9 3 15 C2.01 15 1.02 15 0 15 C0 10.05 0 5.1 0 0 Z " fill="#EEEFEF" transform="translate(345,270)"/>
<path d="M0 0 C0.99 0 1.98 0 3 0 C3 4.95 3 9.9 3 15 C2.01 15 1.02 15 0 15 C0 10.05 0 5.1 0 0 Z " fill="#EEEFEF" transform="translate(345,240)"/>
<path d="M0 0 C0.99 0 1.98 0 3 0 C3 4.95 3 9.9 3 15 C2.01 15 1.02 15 0 15 C0 10.05 0 5.1 0 0 Z " fill="#EEEFEF" transform="translate(345,210)"/>
<path d="M0 0 C0.99 0 1.98 0 3 0 C3 4.95 3 9.9 3 15 C2.01 15 1.02 15 0 15 C0 10.05 0 5.1 0 0 Z " fill="#EEEFEF" transform="translate(345,180)"/>
<path d="M0 0 C0.99 0 1.98 0 3 0 C3 4.95 3 9.9 3 15 C2.01 15 1.02 15 0 15 C0 10.05 0 5.1 0 0 Z " fill="#EEEFEF" transform="translate(345,120)"/>
<path d="M0 0 C0.99 0 1.98 0 3 0 C3 4.95 3 9.9 3 15 C2.01 15 1.02 15 0 15 C0 10.05 0 5.1 0 0 Z " fill="#FFFFFF" transform="translate(345,105)"/>
<path d="M0 0 C0.99 0 1.98 0 3 0 C3 4.95 3 9.9 3 15 C2.01 15 1.02 15 0 15 C0 10.05 0 5.1 0 0 Z " fill="#EEEFEF" transform="translate(345,90)"/>
<path d="M0 0 C0.99 0 1.98 0 3 0 C3 4.95 3 9.9 3 15 C2.01 15 1.02 15 0 15 C0 10.05 0 5.1 0 0 Z " fill="#EEEFEF" transform="translate(345,60)"/>
<path d="M0 0 C0.99 0 1.98 0 3 0 C3 4.95 3 9.9 3 15 C2.01 15 1.02 15 0 15 C0 10.05 0 5.1 0 0 Z " fill="#EEEFEF" transform="translate(345,30)"/>
<path d="M0 0 C0.99 0 1.98 0 3 0 C3 4.95 3 9.9 3 15 C2.01 15 1.02 15 0 15 C0 10.05 0 5.1 0 0 Z " fill="#EEEFEF" transform="translate(345,0)"/>
<path d="M0 0 C0.99 0 1.98 0 3 0 C3 4.29 3 8.58 3 13 C2.01 13 1.02 13 0 13 C0 8.71 0 4.42 0 0 Z " fill="#EEEFEF" transform="translate(345,300)"/>
<path d="M0 0 C0.33 0 0.66 0 1 0 C1 3.3 1 6.6 1 10 C-0.65 10 -2.3 10 -4 10 C-2.68 6.7 -1.36 3.4 0 0 Z " fill="#EEEFEF" transform="translate(344,170)"/>
<path d="M0 0 C2.97 0 5.94 0 9 0 C9 1.65 9 3.3 9 5 C5.54074837 3.7508258 2.85306797 2.32472205 0 0 Z " fill="#EEEFEF" transform="translate(306,105)"/>
<path d="M0 0 C4.95 0 9.9 0 15 0 C15 0.33 15 0.66 15 1 C10.05 1.66 5.1 2.32 0 3 C0 2.01 0 1.02 0 0 Z " fill="#EEEFEF" transform="translate(225,0)"/>
<path d="M0 0 C0.33 0.66 0.66 1.32 1 2 C1.66 2 2.32 2 3 2 C3 2.66 3 3.32 3 4 C3.99 4.33 4.98 4.66 6 5 C6 5.33 6 5.66 6 6 C4.02 6 2.04 6 0 6 C0 4.02 0 2.04 0 0 Z " fill="#EEEFEF" transform="translate(15,189)"/>
<path d="M0 0 C1.32 0 2.64 0 4 0 C4 2.64 4 5.28 4 8 C1.53721199 5.53721199 1.00228745 3.29323018 0 0 Z " fill="#EEEFEF" transform="translate(341,135)"/>
</svg>
