<?xml version="1.0" encoding="UTF-8"?>
<svg version="1.1" xmlns="http://www.w3.org/2000/svg" width="512" height="456">
<path d="M0 0 C2.48941072 1.46630848 4.91515759 3.0113827 7.34765625 4.5703125 C8.58183512 5.32147755 9.81765115 6.06995632 11.0546875 6.81640625 C19.95139073 12.21858917 28.25857665 18.01738622 36.34765625 24.5703125 C36.91629395 25.02535156 37.48493164 25.48039062 38.07080078 25.94921875 C45.51441424 31.91574341 45.51441424 31.91574341 48.34765625 34.5703125 C48.34765625 35.2303125 48.34765625 35.8903125 48.34765625 36.5703125 C49.55421875 37.0034375 49.55421875 37.0034375 50.78515625 37.4453125 C53.34765625 38.5703125 53.34765625 38.5703125 54.34765625 40.5703125 C54.92515625 40.2815625 55.50265625 39.9928125 56.09765625 39.6953125 C58.34765625 38.5703125 58.34765625 38.5703125 60.47265625 37.6953125 C62.48847835 36.71894236 62.48847835 36.71894236 63.25805664 34.68457031 C64.46007617 32.35217302 65.62046653 31.24892871 67.65625 29.6171875 C68.64540405 28.81764648 68.64540405 28.81764648 69.65454102 28.00195312 C70.35764404 27.44701172 71.06074707 26.89207031 71.78515625 26.3203125 C72.50437256 25.74474609 73.22358887 25.16917969 73.96459961 24.57617188 C79.63801218 20.06327323 85.42890561 15.75650161 91.34765625 11.5703125 C91.95480469 11.11398438 92.56195313 10.65765625 93.1875 10.1875 C98.25658315 6.39463308 103.74592036 3.49802514 109.34765625 0.5703125 C109.92660645 0.25658691 110.50555664 -0.05713867 111.10205078 -0.38037109 C126.67746971 -8.81791592 140.87414367 -13.92850156 158.78515625 -14.1171875 C160.52587402 -14.14619141 160.52587402 -14.14619141 162.30175781 -14.17578125 C175.11988263 -13.99993958 185.16076225 -9.25502216 194.34765625 -0.4296875 C215.41407371 22.58132234 213.36421211 57.74979373 212.22314453 86.73291016 C211.44592002 100.9439513 208.51159476 114.72310962 205.34765625 128.5703125 C206.91649991 129.04352195 208.48555153 129.51604197 210.0546875 129.98828125 C210.92843018 130.2514917 211.80217285 130.51470215 212.70239258 130.78588867 C215.14055852 131.50889995 217.58539295 132.20037647 220.03515625 132.8828125 C237.68868449 138.1844224 255.98985112 146.33177575 271.34765625 156.5703125 C271.34765625 157.2303125 271.34765625 157.8903125 271.34765625 158.5703125 C272.99765625 158.9003125 274.64765625 159.2303125 276.34765625 159.5703125 C276.34765625 160.2303125 276.34765625 160.8903125 276.34765625 161.5703125 C277.05148437 161.79332031 277.7553125 162.01632813 278.48046875 162.24609375 C281.97492806 163.86001978 284.4735036 166.13071711 287.22265625 168.7578125 C287.74786865 169.25104004 288.27308105 169.74426758 288.81420898 170.25244141 C290.33276297 171.68417408 291.84102926 173.1260502 293.34765625 174.5703125 C294.08371094 175.26511719 294.81976563 175.95992187 295.578125 176.67578125 C298.73417308 179.72416031 301.40560739 182.57197661 303.34765625 186.5703125 C303.34765625 187.2303125 303.34765625 187.8903125 303.34765625 188.5703125 C304.00765625 188.5703125 304.66765625 188.5703125 305.34765625 188.5703125 C312.33683555 200.75977402 314.05175784 214.81553843 310.45703125 228.51953125 C305.70670484 241.89961731 294.8890189 255.25895578 283.34765625 263.5703125 C282.68765625 263.5703125 282.02765625 263.5703125 281.34765625 263.5703125 C281.34765625 264.2303125 281.34765625 264.8903125 281.34765625 265.5703125 C279.71184705 266.62002963 278.03810366 267.61106001 276.34765625 268.5703125 C273.8605345 270.30459708 271.40280907 272.07562203 268.9453125 273.8515625 C266.16383918 275.69193582 263.353114 277.12488325 260.34765625 278.5703125 C259.07838827 279.20234519 257.81021686 279.83658333 256.54296875 280.47265625 C248.41796875 284.53515625 248.41796875 284.53515625 246.38989258 285.54663086 C245.00678178 286.23992238 243.62647464 286.93883068 242.2487793 287.64282227 C238.52758766 289.53569037 234.85644486 291.24530463 230.91015625 292.6328125 C229.50636719 293.12974609 229.50636719 293.12974609 228.07421875 293.63671875 C225.65016169 294.46673256 223.22053631 295.27429605 220.78515625 296.0703125 C215.88193531 297.67807154 211.11819017 299.60831838 206.34765625 301.5703125 C206.60160156 302.42367188 206.85554688 303.27703125 207.1171875 304.15625 C216.2904963 337.48250295 220.10161729 385.02664792 203.34765625 416.5703125 C197.77018332 425.6010477 191.11846206 433.98561682 181.34765625 438.5703125 C180.64906494 438.90949707 179.95047363 439.24868164 179.23071289 439.59814453 C172.45942075 442.60463486 166.46558599 443.30661408 159.09765625 443.2578125 C157.96666504 443.25201172 156.83567383 443.24621094 155.67041016 443.24023438 C138.05662023 442.75678628 122.59633303 435.88256112 107.34765625 427.5703125 C106.01776142 426.89681271 104.68627484 426.22630221 103.34765625 425.5703125 C103.34765625 424.9103125 103.34765625 424.2503125 103.34765625 423.5703125 C102.56390625 423.3846875 101.78015625 423.1990625 100.97265625 423.0078125 C88.72240345 418.14995363 77.716345 407.40606539 67.53515625 399.0703125 C66.04048828 397.84828125 66.04048828 397.84828125 64.515625 396.6015625 C63.80019531 395.93125 63.08476562 395.2609375 62.34765625 394.5703125 C62.34765625 393.9103125 62.34765625 393.2503125 62.34765625 392.5703125 C61.70828125 392.3021875 61.06890625 392.0340625 60.41015625 391.7578125 C58.34765625 390.5703125 58.34765625 390.5703125 57.34765625 387.5703125 C56.82816406 388.02921875 56.30867188 388.488125 55.7734375 388.9609375 C52.75450596 391.61715084 49.74518573 394.25409587 46.59765625 396.7578125 C44.27602539 398.55315538 44.27602539 398.55315538 42.16015625 400.8203125 C40.34765625 402.5703125 40.34765625 402.5703125 38.34765625 402.5703125 C38.01765625 403.5603125 37.68765625 404.5503125 37.34765625 405.5703125 C35.2734375 407.21875 35.2734375 407.21875 32.66015625 408.9453125 C29.74000444 410.91270291 27.06874066 412.81362184 24.41015625 415.1328125 C20.81022049 417.99806749 17.02062887 420.01378771 12.9609375 422.15625 C9.95763554 423.7813551 7.17716621 425.66203834 4.34765625 427.5703125 C2.35660874 428.58802063 0.355449 429.58605224 -1.65234375 430.5703125 C-3.05419922 431.27800781 -3.05419922 431.27800781 -4.484375 432 C-23.34557733 441.14632354 -46.87076042 447.34408384 -67.46484375 440.5703125 C-73.72458571 437.89727432 -78.74835326 434.25594349 -83.65234375 429.5703125 C-84.21308594 429.06113281 -84.77382812 428.55195313 -85.3515625 428.02734375 C-101.44082059 411.60025347 -103.15605162 382.7575825 -103.00537109 361.3190918 C-102.57184064 340.99150358 -99.72950172 321.23677419 -94.65234375 301.5703125 C-95.20994385 301.45929199 -95.76754395 301.34827148 -96.34204102 301.23388672 C-101.62837391 300.12854736 -106.56541519 298.66231487 -111.58984375 296.6953125 C-112.28875732 296.42630127 -112.9876709 296.15729004 -113.70776367 295.88012695 C-115.0852519 295.34855716 -116.46168795 294.8142505 -117.83691406 294.27685547 C-119.29940236 293.70767296 -120.76794788 293.15406745 -122.23828125 292.60546875 C-135.26357847 287.64671525 -148.23918065 281.59378419 -159.65234375 273.5703125 C-161.01552734 272.63251953 -161.01552734 272.63251953 -162.40625 271.67578125 C-168.9220283 267.08120601 -174.86095529 262.04317459 -180.65234375 256.5703125 C-181.36390625 255.91160156 -182.07546875 255.25289063 -182.80859375 254.57421875 C-194.04175338 243.83791041 -200.76247416 232.12426157 -201.18383789 216.48486328 C-201.19406982 215.41993652 -201.20430176 214.35500977 -201.21484375 213.2578125 C-201.2295874 212.23155762 -201.24433105 211.20530273 -201.25952148 210.14794922 C-201.17008082 203.55933206 -199.96949195 199.20496523 -196.65234375 193.5703125 C-196.31203125 192.68988281 -195.97171875 191.80945313 -195.62109375 190.90234375 C-194.44803494 188.07848847 -192.90328149 185.76180186 -191.15234375 183.2578125 C-190.54390625 182.37480469 -189.93546875 181.49179688 -189.30859375 180.58203125 C-188.76203125 179.91816406 -188.21546875 179.25429687 -187.65234375 178.5703125 C-186.99234375 178.5703125 -186.33234375 178.5703125 -185.65234375 178.5703125 C-185.38421875 177.9309375 -185.11609375 177.2915625 -184.83984375 176.6328125 C-183.65234375 174.5703125 -183.65234375 174.5703125 -180.65234375 173.5703125 C-180.20568359 172.66925781 -180.20568359 172.66925781 -179.75 171.75 C-172.37712047 157.10919297 -143.21917432 145.03556355 -128.65234375 139.5703125 C-127.66621094 139.18101562 -126.68007812 138.79171875 -125.6640625 138.390625 C-104.04010774 129.8888992 -104.04010774 129.8888992 -94.65234375 128.5703125 C-94.78809814 128.02544189 -94.92385254 127.48057129 -95.0637207 126.91918945 C-104.04002509 90.18965618 -110.78067068 41.77364655 -90.27734375 7.5078125 C-83.85955497 -1.72038051 -77.05015003 -7.0764726 -66.65234375 -11.4296875 C-65.31623047 -11.99236328 -65.31623047 -11.99236328 -63.953125 -12.56640625 C-42.41507479 -18.19943477 -18.87832808 -10.17594709 0 0 Z M-64.70703125 14.3046875 C-66.51813321 16.3101137 -68.1055767 18.35590605 -69.65234375 20.5703125 C-70.73515625 22.1171875 -70.73515625 22.1171875 -71.83984375 23.6953125 C-76.88953359 33.11994914 -78.75962692 44.62647909 -78.92578125 55.1953125 C-78.93817337 55.92736404 -78.95056549 56.65941559 -78.96333313 57.41365051 C-78.99576499 59.79925143 -79.01456962 62.18452729 -79.02734375 64.5703125 C-79.03190582 65.38567474 -79.0364679 66.20103699 -79.04116821 67.04110718 C-79.07808862 85.57220626 -77.89508815 105.30242042 -70.65234375 122.5703125 C-69.18667969 122.22419922 -69.18667969 122.22419922 -67.69140625 121.87109375 C-56.64851587 119.36365743 -45.5355923 117.53986624 -34.33984375 115.8828125 C-33.62008362 115.7745816 -32.90032349 115.66635071 -32.15875244 115.55484009 C-30.03639047 115.23726126 -27.91310584 114.92721387 -25.7890625 114.62109375 C-25.10579895 114.52109573 -24.4225354 114.42109772 -23.71856689 114.31806946 C-20.3491453 113.84956913 -17.03707922 113.5104247 -13.63525391 113.41552734 C-6.61118039 113.53268612 -6.61118039 113.53268612 -1.0625 109.92578125 C-0.59714844 108.81847656 -0.13179688 107.71117188 0.34765625 106.5703125 C1.07285436 105.44498228 1.82536423 104.33687176 2.6015625 103.24609375 C2.98119141 102.69244141 3.36082031 102.13878906 3.75195312 101.56835938 C4.13416016 101.01212891 4.51636719 100.45589844 4.91015625 99.8828125 C5.29623047 99.31498047 5.68230469 98.74714844 6.08007812 98.16210938 C7.99445525 95.38022916 9.91280895 92.90236941 12.34765625 90.5703125 C13.73854705 88.91688408 15.11163684 87.24841528 16.47265625 85.5703125 C17.26027344 84.60351562 18.04789062 83.63671875 18.859375 82.640625 C20.53264301 80.57596463 22.20207386 78.50869153 23.8671875 76.4375 C24.66511719 75.45007813 25.46304688 74.46265625 26.28515625 73.4453125 C27.38150391 72.08019531 27.38150391 72.08019531 28.5 70.6875 C30.34765625 68.5703125 30.34765625 68.5703125 32.34765625 67.5703125 C32.63640625 66.9721875 32.92515625 66.3740625 33.22265625 65.7578125 C34.5473071 63.18210252 36.24181486 61.53576446 38.34765625 59.5703125 C34.13161202 54.40565832 29.72846386 49.55744247 24.34765625 45.5703125 C23.68765625 45.5703125 23.02765625 45.5703125 22.34765625 45.5703125 C22.01765625 44.5803125 21.68765625 43.5903125 21.34765625 42.5703125 C19.86265625 42.0753125 19.86265625 42.0753125 18.34765625 41.5703125 C17.01004259 40.24127328 15.67739733 38.90722844 14.34765625 37.5703125 C10.44072896 34.76290617 6.38624138 32.18382397 2.34765625 29.5703125 C1.68765625 29.12558594 1.02765625 28.68085937 0.34765625 28.22265625 C-6.03625753 24.01896302 -12.98437268 20.779641 -19.85058594 17.45117188 C-21.29655141 16.74425542 -22.73049162 16.01276563 -24.16015625 15.2734375 C-35.44259781 9.69656525 -54.16001143 5.40187989 -64.70703125 14.3046875 Z M113.34765625 26.5703125 C111.69491617 27.51010588 110.04141569 28.44869268 108.37890625 29.37109375 C102.49716426 32.84358373 97.14782649 36.71885839 92.34765625 41.5703125 C91.02245122 42.25299388 89.68953443 42.9210166 88.34765625 43.5703125 C87.33622881 44.55875295 86.33808752 45.56083447 85.34765625 46.5703125 C84.04293934 47.72500036 82.72996028 48.87039982 81.41015625 50.0078125 C80.36214844 50.93013672 80.36214844 50.93013672 79.29296875 51.87109375 C77.80892648 53.16739573 76.30194674 54.43748624 74.78515625 55.6953125 C73.1104931 57.49917839 73.1104931 57.49917839 73.28515625 60.0078125 C74.67300702 63.35498201 76.70533954 65.11234347 79.34765625 67.5703125 C80.43046875 68.9625 80.43046875 68.9625 81.53515625 70.3828125 C82.13328125 71.1046875 82.73140625 71.8265625 83.34765625 72.5703125 C84.00765625 72.5703125 84.66765625 72.5703125 85.34765625 72.5703125 C85.58613281 73.11816406 85.82460938 73.66601562 86.0703125 74.23046875 C87.66008925 77.14262861 89.64488944 79.4739334 91.78515625 82.0078125 C94.02815305 84.66467362 96.11293937 87.17314526 97.8828125 90.16796875 C99.44425656 92.72873701 101.21232353 94.47534524 103.34765625 96.5703125 C104.73522372 98.35737157 106.08836585 100.17156803 107.41015625 102.0078125 C108.08175781 102.93464844 108.75335938 103.86148438 109.4453125 104.81640625 C111.34765625 107.5703125 111.34765625 107.5703125 112.58203125 110.35546875 C114.26205112 112.9445117 114.26205112 112.9445117 117.890625 113.3203125 C119.43765008 113.42283137 120.98614053 113.50438043 122.53515625 113.5703125 C131.32236341 114.19542039 139.98522341 115.30623322 148.68228149 116.67651367 C150.06434584 116.89425194 151.44680574 117.10949685 152.8296814 117.32202148 C160.89802193 118.56238069 168.83258616 120.04213055 176.75805664 122.00415039 C179.39432407 122.67710463 179.39432407 122.67710463 182.34765625 122.5703125 C191.3893393 92.33853528 196.09854715 50.75922893 181.34765625 21.9453125 C177.7783304 16.34672526 174.28310589 12.20036995 167.7578125 10.078125 C149.88999753 6.31343141 127.02709472 14.88423483 113.34765625 26.5703125 Z M54.34765625 76.5703125 C52.80913859 78.28983224 51.34033866 80.07218747 49.91015625 81.8828125 C45.56283765 87.36172309 45.56283765 87.36172309 43.5625 89.30078125 C42.11719823 90.51828751 42.11719823 90.51828751 42.34765625 92.5703125 C41.70828125 92.8178125 41.06890625 93.0653125 40.41015625 93.3203125 C38.14870618 94.36719544 38.14870618 94.36719544 37.78515625 96.6328125 C37.64078125 97.2721875 37.49640625 97.9115625 37.34765625 98.5703125 C36.35765625 98.9003125 35.36765625 99.2303125 34.34765625 99.5703125 C32.45311346 101.62190347 32.45311346 101.62190347 30.66015625 104.0703125 C30.03753906 104.885 29.41492188 105.6996875 28.7734375 106.5390625 C27.25190321 108.29311133 27.25190321 108.29311133 27.34765625 109.5703125 C45.82765625 109.5703125 64.30765625 109.5703125 83.34765625 109.5703125 C78.5117617 102.19215789 78.5117617 102.19215789 73.03515625 95.6953125 C68.92367311 91.24990179 65.08332144 86.63892774 61.29296875 81.91796875 C58.96598193 79.10064466 58.96598193 79.10064466 56.34765625 76.5703125 C55.68765625 76.5703125 55.02765625 76.5703125 54.34765625 76.5703125 Z M31.93258667 132.76739502 C30.04572539 132.80261562 28.15877153 132.83318935 26.27175903 132.85906982 C23.64539286 132.8980385 21.02033378 132.95719398 18.39453125 133.0234375 C17.2305909 133.0378035 17.2305909 133.0378035 16.0431366 133.05245972 C11.95766719 133.15510649 11.95766719 133.15510649 8.42260742 135.00585938 C8.06787354 135.52212891 7.71313965 136.03839844 7.34765625 136.5703125 C6.73083984 137.35148438 6.73083984 137.35148438 6.1015625 138.1484375 C3.66391234 141.56914002 1.47435219 145.02206683 -0.5625 148.703125 C-1.79342325 150.81201859 -3.14737581 152.80591773 -4.52734375 154.8203125 C-7.4196865 159.09309157 -9.85934586 163.5359719 -12.28515625 168.0859375 C-13.65234375 170.5703125 -13.65234375 170.5703125 -15.65234375 173.5078125 C-18.20562745 177.41752817 -20.15194881 181.54809513 -22.203125 185.73828125 C-23.79789357 188.85474273 -25.6966895 191.67054931 -27.65234375 194.5703125 C-28.36364294 196.18690157 -29.07102658 197.80612376 -29.71875 199.44921875 C-30.65234375 201.5703125 -30.65234375 201.5703125 -32.2421875 204.47265625 C-32.81066406 205.51550781 -33.37914062 206.55835938 -33.96484375 207.6328125 C-34.51785156 208.61378906 -35.07085937 209.59476562 -35.640625 210.60546875 C-37.19039546 215.14707409 -35.45690111 217.82004737 -33.5390625 221.9921875 C-32.94544922 223.14460938 -32.94544922 223.14460938 -32.33984375 224.3203125 C-30.59811984 227.72227615 -28.88938114 231.13480998 -27.21484375 234.5703125 C-25.07978704 238.84709796 -22.69127856 242.91388935 -20.1953125 246.98828125 C-18.55886654 249.72673893 -17.03699848 252.51014916 -15.52734375 255.3203125 C-13.42162781 259.2246608 -11.1528425 262.90291434 -8.65234375 266.5703125 C-7.67030321 268.25601989 -6.71621471 269.95397611 -5.77734375 271.6640625 C-4.86491113 273.21012888 -3.86039231 274.70158357 -2.83084106 276.17225647 C-1.21508421 278.56604292 0.02983688 280.96681135 1.21194458 283.6000824 C4.84115209 291.36892495 4.84115209 291.36892495 11.40059662 296.46718216 C17.41363116 297.84650358 23.5346235 297.43196273 29.65234375 297.16796875 C31.62378745 297.14061968 33.59533932 297.12026094 35.56692505 297.10655212 C40.73400998 297.05139028 45.89383647 296.89939489 51.0581665 296.72723389 C56.32039911 296.57022048 61.58368937 296.51022442 66.84765625 296.43945312 C74.5273537 296.32056083 82.20516861 296.1704814 89.88232422 295.93774414 C90.68444839 295.9162027 91.48657257 295.89466125 92.31300354 295.87246704 C95.7845979 295.75752767 99.03252585 295.64115371 102.34765625 294.5703125 C104.02773569 292.7125952 104.02773569 292.7125952 105.41015625 290.3828125 C105.92835938 289.56296875 106.4465625 288.743125 106.98046875 287.8984375 C108.42587847 285.50448276 108.42587847 285.50448276 109.78515625 282.6328125 C111.68389508 278.91128439 114.0545831 275.68575396 116.53125 272.328125 C118.3727849 269.53216018 119.80742369 266.70636708 121.26977539 263.70263672 C123.48929317 259.31186248 126.10340459 255.14029481 128.63671875 250.92578125 C133.87014869 243.15578754 133.87014869 243.15578754 136.34765625 234.5703125 C137.00765625 234.5703125 137.66765625 234.5703125 138.34765625 234.5703125 C138.90453125 233.2090625 138.90453125 233.2090625 139.47265625 231.8203125 C141.41561975 227.19870028 143.83935537 222.83553078 146.23828125 218.4375 C147.51429953 215.13962178 147.48281273 213.87593022 146.34765625 210.5703125 C145.49302308 208.80965998 144.57081678 207.08082714 143.59765625 205.3828125 C141.57907191 201.79742222 139.64558892 198.20875183 137.84765625 194.5078125 C135.74263643 190.24397044 133.37351572 186.20539159 130.890625 182.15234375 C129.25417904 179.41388607 127.73231098 176.63047584 126.22265625 173.8203125 C124.11694031 169.9159642 121.848155 166.23771066 119.34765625 162.5703125 C118.67126231 161.40925833 118.00497296 160.24227252 117.34765625 159.0703125 C116.12332207 156.89213657 114.86268912 154.84286181 113.47265625 152.7578125 C110.02443759 147.58548452 106.85728415 142.23013309 103.7890625 136.82421875 C102.54569543 134.45575959 102.54569543 134.45575959 100.34765625 133.5703125 C97.35336286 133.39869045 94.37995478 133.28645707 91.3828125 133.21875 C90.45800583 133.19505341 89.53319916 133.17135681 88.58036804 133.14694214 C85.52374763 133.0724171 82.46705172 133.00749508 79.41015625 132.9453125 C78.37064819 132.92351929 77.33114014 132.90172607 76.26013184 132.87927246 C61.48161414 132.58285195 46.71208096 132.49035287 31.93258667 132.76739502 Z M-49.83984375 141.5703125 C-51.2830094 141.86034062 -52.72636811 142.14940985 -54.16992188 142.4375 C-57.66635348 143.13741674 -61.16000768 143.85020372 -64.65234375 144.5703125 C-63.44904989 150.82264949 -61.67748378 156.55534319 -59.27734375 162.4453125 C-58.64861658 164.01778061 -58.02100912 165.5906969 -57.39453125 167.1640625 C-57.09385742 167.916875 -56.79318359 168.6696875 -56.48339844 169.4453125 C-55.06973356 173.06004198 -53.81191852 176.72817992 -52.57421875 180.40625 C-51.5647245 182.77599497 -50.27209993 184.57746642 -48.65234375 186.5703125 C-48.07484375 185.4153125 -47.49734375 184.2603125 -46.90234375 183.0703125 C-46.53882813 182.34585938 -46.1753125 181.62140625 -45.80078125 180.875 C-45.04760511 179.36352408 -44.30250788 177.84798952 -43.56640625 176.328125 C-43.22351563 175.62429687 -42.880625 174.92046875 -42.52734375 174.1953125 C-42.21539062 173.54820312 -41.9034375 172.90109375 -41.58203125 172.234375 C-40.65234375 170.5703125 -40.65234375 170.5703125 -38.65234375 168.5703125 C-37.97181182 166.90925906 -37.30673782 165.24183594 -36.65234375 163.5703125 C-35.79162864 162.00876744 -34.89378946 160.46725643 -33.96484375 158.9453125 C-33.44148438 158.08421875 -32.918125 157.223125 -32.37890625 156.3359375 C-29.99987801 152.52518638 -27.54578629 148.76435573 -25.0703125 145.015625 C-23.76847404 142.77058126 -23.20836868 141.06697991 -22.65234375 138.5703125 C-32.01650625 138.03272869 -40.73376564 139.68912617 -49.83984375 141.5703125 Z M133.34765625 138.5703125 C133.67765625 140.2203125 134.00765625 141.8703125 134.34765625 143.5703125 C135.00765625 143.5703125 135.66765625 143.5703125 136.34765625 143.5703125 C136.60160156 144.25996094 136.85554688 144.94960937 137.1171875 145.66015625 C138.52321625 148.98552583 140.22583526 152.008268 142.03515625 155.1328125 C142.38819824 155.74560059 142.74124023 156.35838867 143.10498047 156.98974609 C144.79253523 159.91368222 146.49873231 162.82547019 148.21875 165.73046875 C152.24479968 172.53619638 155.90241021 179.45266134 159.34765625 186.5703125 C162.49801433 182.91090265 164.07615133 178.81109393 165.84765625 174.3828125 C166.15735352 173.61831787 166.46705078 172.85382324 166.78613281 172.06616211 C168.83821998 166.95716143 170.75046944 161.84102897 172.34765625 156.5703125 C172.63640625 155.6834375 172.92515625 154.7965625 173.22265625 153.8828125 C173.51140625 152.9753125 173.80015625 152.0678125 174.09765625 151.1328125 C174.360625 150.30910156 174.62359375 149.48539063 174.89453125 148.63671875 C175.58516142 146.52164452 175.58516142 146.52164452 174.34765625 144.5703125 C171.41265841 143.71621408 171.41265841 143.71621408 167.8203125 143.0625 C167.15736679 142.93215363 166.49442108 142.80180725 165.81138611 142.66751099 C164.4007254 142.39268105 162.9891932 142.1222936 161.5769043 141.85595703 C159.44753009 141.45239563 157.32252968 141.03007565 155.19726562 140.60546875 C147.8865444 139.18129809 140.82788119 138.10441614 133.34765625 138.5703125 Z M-133.65234375 168.5703125 C-135.09673828 169.27607422 -135.09673828 169.27607422 -136.5703125 169.99609375 C-140.2536782 171.87745798 -143.79353314 173.94463077 -147.33984375 176.0703125 C-148.33467773 176.65619141 -148.33467773 176.65619141 -149.34960938 177.25390625 C-152.47763578 179.12505195 -155.1368218 180.94808204 -157.65234375 183.5703125 C-158.91757076 184.66018822 -160.1888105 185.74310889 -161.46484375 186.8203125 C-165.20470368 190.07627188 -168.80624396 193.48443439 -171.65234375 197.5703125 C-171.65234375 198.2303125 -171.65234375 198.8903125 -171.65234375 199.5703125 C-172.31234375 199.5703125 -172.97234375 199.5703125 -173.65234375 199.5703125 C-177.57938518 207.96786985 -179.27672392 214.49954278 -176.21484375 223.4453125 C-171.60283476 233.84652159 -162.97488291 242.25741197 -153.65234375 248.5703125 C-151.46084581 249.3366276 -151.46084581 249.3366276 -149.65234375 249.5703125 C-149.65234375 250.2303125 -149.65234375 250.8903125 -149.65234375 251.5703125 C-147.81199182 252.92956899 -147.81199182 252.92956899 -145.40234375 254.2578125 C-144.49097656 254.78503906 -143.57960937 255.31226563 -142.640625 255.85546875 C-141.65449219 256.42136719 -140.66835937 256.98726563 -139.65234375 257.5703125 C-138.15767578 258.46556641 -138.15767578 258.46556641 -136.6328125 259.37890625 C-130.7785472 262.87342918 -124.98070764 266.03275251 -118.65234375 268.5703125 C-117.68941406 268.95832031 -116.72648437 269.34632813 -115.734375 269.74609375 C-102.04237849 275.79309286 -102.04237849 275.79309286 -87.65234375 278.5703125 C-87.3735437 277.77149658 -87.3735437 277.77149658 -87.08911133 276.95654297 C-85.24823992 271.68410571 -83.40296291 266.41322974 -81.55419922 261.14355469 C-80.78382224 258.94545687 -80.01656994 256.74630184 -79.25 254.546875 C-76.63247061 247.10405981 -73.74466291 239.8272101 -70.65234375 232.5703125 C-69.35442573 229.43585918 -68.05966891 226.30011678 -66.765625 223.1640625 C-65.65234375 220.5703125 -65.65234375 220.5703125 -64.5 218.4296875 C-63.06477077 215.28144275 -63.88187523 212.87232046 -64.65234375 209.5703125 C-65.51026566 207.60388753 -66.48282331 205.73111721 -67.48828125 203.8359375 C-71.6138512 195.80630471 -74.53282024 187.2306988 -77.48730469 178.72021484 C-79.09956712 174.08678535 -80.84163779 169.53417279 -82.70703125 164.99609375 C-84.55362791 160.25751306 -86.08950818 155.4084524 -87.65234375 150.5703125 C-101.7636673 150.5703125 -121.39601691 162.162891 -133.65234375 168.5703125 Z M198.34765625 151.5703125 C196.62618093 155.34116319 195.16882172 159.01973934 194.03515625 163.0078125 C191.90586838 170.34825227 189.09763638 177.44501916 186.34765625 184.5703125 C185.98414063 185.51519531 185.620625 186.46007812 185.24609375 187.43359375 C183.54589231 191.76703401 181.71407054 196.02109004 179.78515625 200.2578125 C179.36878906 201.17304688 178.95242188 202.08828125 178.5234375 203.03125 C177.81226707 204.56700009 177.08499906 206.09562688 176.328125 207.609375 C174.34250111 211.72569119 174.00852802 214.19582695 175.34765625 218.5703125 C176.22461427 220.52294809 177.17969699 222.41386825 178.17578125 224.30859375 C183.87514474 235.30836529 188.16986008 246.93100487 192.34765625 258.5703125 C194.64544376 264.91740856 196.96443063 271.25476461 199.34765625 277.5703125 C219.21433461 273.35280536 237.33383778 263.65316532 255.34765625 254.5703125 C255.34765625 253.9103125 255.34765625 253.2503125 255.34765625 252.5703125 C256.33765625 252.2609375 256.33765625 252.2609375 257.34765625 251.9453125 C261.48395571 250.04950858 264.80632189 247.40202834 268.34765625 244.5703125 C268.96125 244.08175781 269.57484375 243.59320313 270.20703125 243.08984375 C274.34420012 239.67576413 278.2486968 235.97469442 281.34765625 231.5703125 C281.34765625 230.9103125 281.34765625 230.2503125 281.34765625 229.5703125 C282.00765625 229.5703125 282.66765625 229.5703125 283.34765625 229.5703125 C288.3721666 220.04629648 288.3721666 220.04629648 288.34765625 209.5703125 C286.96180584 206.05562723 285.23709072 202.83649953 283.34765625 199.5703125 C282.91453125 198.6834375 282.48140625 197.7965625 282.03515625 196.8828125 C279.33591652 193.18385435 275.87554596 190.46055998 272.34765625 187.5703125 C271.52265625 186.89355469 270.69765625 186.21679688 269.84765625 185.51953125 C263.36032237 180.26835093 257.12741218 175.26958801 249.57421875 171.66796875 C246.98578749 170.39191755 244.48838778 168.98408275 241.97265625 167.5703125 C233.73087417 163.07377561 225.05131976 160.07402184 216.22265625 156.9453125 C215.37517822 156.64375244 214.5277002 156.34219238 213.65454102 156.03149414 C208.59570619 154.26196318 203.56744241 152.78786077 198.34765625 151.5703125 Z M159.34765625 241.5703125 C158.82171875 242.9315625 158.82171875 242.9315625 158.28515625 244.3203125 C156.29860743 248.98727647 153.66932106 253.26156926 151.06640625 257.60546875 C149.36446863 260.54131115 147.86159678 263.5343571 146.34765625 266.5703125 C145.38732381 268.22720608 144.40866805 269.87364332 143.41015625 271.5078125 C142.89324219 272.36246094 142.37632812 273.21710938 141.84375 274.09765625 C141.35003906 274.91363281 140.85632813 275.72960937 140.34765625 276.5703125 C137.48918001 280.79606229 137.48918001 280.79606229 136.34765625 285.5703125 C135.68765625 285.5703125 135.02765625 285.5703125 134.34765625 285.5703125 C134.01765625 287.2203125 133.68765625 288.8703125 133.34765625 290.5703125 C142.8569824 291.12150382 151.77188019 289.42027761 161.03515625 287.5703125 C162.52651088 287.28031336 164.01804665 286.99124416 165.50976562 286.703125 C169.12454414 286.00288008 172.73671951 285.29013872 176.34765625 284.5703125 C174.77248794 277.87065203 173.12130969 271.42708075 170.47265625 265.0703125 C170.21508545 264.44793701 169.95751465 263.82556152 169.69213867 263.18432617 C169.16867435 261.92147454 168.64196898 260.65996083 168.11181641 259.39990234 C167.37543193 257.6368144 166.66376743 255.86346393 165.953125 254.08984375 C165.52644531 253.03152344 165.09976562 251.97320312 164.66015625 250.8828125 C164.28503906 249.95082031 163.90992188 249.01882813 163.5234375 248.05859375 C162.36874763 245.61494774 161.04781305 243.66243629 159.34765625 241.5703125 Z M-49.65234375 242.5703125 C-50.25046875 243.7046875 -50.84859375 244.8390625 -51.46484375 246.0078125 C-51.80128906 246.64589844 -52.13773438 247.28398437 -52.484375 247.94140625 C-53.81945703 250.94645711 -54.81687487 253.99524119 -55.83374023 257.11987305 C-56.65125976 259.56706765 -57.53167394 261.98021349 -58.44140625 264.39453125 C-58.74304688 265.19568359 -59.0446875 265.99683594 -59.35546875 266.82226562 C-59.97491191 268.45880295 -60.5973557 270.09420737 -61.22265625 271.72851562 C-62.82754574 276.00706799 -64.10609149 280.00098616 -64.65234375 284.5703125 C-50.24915616 288.29309373 -36.53026684 290.86095105 -21.65234375 291.5703125 C-22.31234375 289.5903125 -22.97234375 287.6103125 -23.65234375 285.5703125 C-24.31234375 285.5703125 -24.97234375 285.5703125 -25.65234375 285.5703125 C-25.87921875 284.9103125 -26.10609375 284.2503125 -26.33984375 283.5703125 C-27.74741067 280.35301668 -29.47373878 277.56224814 -31.359375 274.609375 C-33.97284963 270.48782287 -36.32982937 266.27044799 -38.46484375 261.8828125 C-41.74500931 255.21793426 -45.53292329 248.74944318 -49.65234375 242.5703125 Z M-71.65234375 307.5703125 C-81.41326184 335.5856507 -85.10144817 377.32338717 -72.16015625 404.73046875 C-70.80000686 407.17944239 -69.3605224 409.35566579 -67.65234375 411.5703125 C-66.93046875 412.5396875 -66.20859375 413.5090625 -65.46484375 414.5078125 C-58.36278835 419.71598646 -50.34413959 420.02081817 -41.83984375 419.078125 C-21.76869492 415.88051551 -5.32652273 405.49129413 11.34765625 394.5703125 C11.92418945 394.21114746 12.50072266 393.85198242 13.09472656 393.48193359 C14.54600566 392.56245009 15.95177001 391.57189251 17.34765625 390.5703125 C17.34765625 389.9103125 17.34765625 389.2503125 17.34765625 388.5703125 C18.06953125 388.33054687 18.79140625 388.09078125 19.53515625 387.84375 C22.75274346 386.38689801 24.7796915 384.61080434 27.34765625 382.1953125 C29.8963994 379.81383062 32.39407737 377.53459402 35.16015625 375.40625 C35.88203125 374.80039062 36.60390625 374.19453125 37.34765625 373.5703125 C37.34765625 372.9103125 37.34765625 372.2503125 37.34765625 371.5703125 C38.00765625 371.2403125 38.66765625 370.9103125 39.34765625 370.5703125 C37.98441882 368.5303406 37.98441882 368.5303406 36.34765625 366.5703125 C35.68765625 366.5703125 35.02765625 366.5703125 34.34765625 366.5703125 C34.12078125 365.8484375 33.89390625 365.1265625 33.66015625 364.3828125 C32.39243109 361.66625858 31.08693136 360.18258946 28.9140625 358.171875 C26.02846952 355.22151809 23.61866597 351.85834626 21.1171875 348.58203125 C20.53324219 347.91816406 19.94929688 347.25429688 19.34765625 346.5703125 C18.68765625 346.5703125 18.02765625 346.5703125 17.34765625 346.5703125 C17.07953125 345.8071875 16.81140625 345.0440625 16.53515625 344.2578125 C15.35648347 341.5902899 14.38578783 340.55541186 12.34765625 338.5703125 C11.47172055 337.45524353 10.61945745 336.32126022 9.7890625 335.171875 C9.32048828 334.52734375 8.85191406 333.8828125 8.36914062 333.21875 C7.88767578 332.55101562 7.40621094 331.88328125 6.91015625 331.1953125 C4.34800122 327.65462862 1.79613529 324.12995301 -0.9375 320.71875 C-2.65234375 318.5703125 -2.65234375 318.5703125 -3.65234375 316.5703125 C-5.89588966 316.14915958 -5.89588966 316.14915958 -8.62109375 316.04296875 C-9.6589502 315.97464844 -10.69680664 315.90632813 -11.76611328 315.8359375 C-12.88356934 315.76890625 -14.00102539 315.701875 -15.15234375 315.6328125 C-24.17764822 315.00852496 -32.91894201 314.0145343 -41.79296875 312.29296875 C-46.90215852 311.33628848 -52.02318339 310.69925109 -57.1796875 310.04296875 C-62.03581653 309.38201081 -66.843299 308.51012582 -71.65234375 307.5703125 Z M175.10668945 307.84033203 C165.07067393 310.39153058 154.99429676 311.90622955 144.73632812 313.25 C141.45454021 313.69007622 138.18342362 314.19624931 134.91015625 314.6953125 C129.01083796 315.5773876 123.17262 315.84582266 117.2109375 315.93359375 C114.21371637 316.27490634 114.21371637 316.27490634 112.765625 318.671875 C112.29769531 319.62835938 111.82976562 320.58484375 111.34765625 321.5703125 C110.57602653 322.72072686 109.78262666 323.85671897 108.97265625 324.98046875 C108.5446875 325.57794922 108.11671875 326.17542969 107.67578125 326.79101562 C107.2375 327.39880859 106.79921875 328.00660156 106.34765625 328.6328125 C105.909375 329.24447266 105.47109375 329.85613281 105.01953125 330.48632812 C103.22686512 332.98364163 101.43387949 335.46048937 99.53515625 337.87890625 C98.15612176 339.49868272 98.15612176 339.49868272 98.34765625 341.5703125 C97.68765625 341.5703125 97.02765625 341.5703125 96.34765625 341.5703125 C94.63613928 343.45016787 94.63613928 343.45016787 92.91015625 345.8203125 C92.31332031 346.60921875 91.71648437 347.398125 91.1015625 348.2109375 C90.23337891 349.37882812 90.23337891 349.37882812 89.34765625 350.5703125 C88.77917969 351.28703125 88.21070313 352.00375 87.625 352.7421875 C86.15673731 354.47185966 86.15673731 354.47185966 86.34765625 356.5703125 C84.86265625 357.0653125 84.86265625 357.0653125 83.34765625 357.5703125 C81.81881501 359.2951147 81.81881501 359.2951147 80.41015625 361.3828125 C78.25068327 364.38237971 76.07442786 367.05329255 73.34765625 369.5703125 C74.71920311 372.75450671 76.20935608 374.54143846 78.91015625 376.6953125 C82.25043403 379.37586806 82.25043403 379.37586806 83.34765625 381.5703125 C83.98703125 381.8796875 84.62640625 382.1890625 85.28515625 382.5078125 C87.34765625 383.5703125 87.34765625 383.5703125 89.34765625 386.5703125 C90.83265625 387.0653125 90.83265625 387.0653125 92.34765625 387.5703125 C93.6883356 388.89625911 95.02016822 390.23115938 96.34765625 391.5703125 C98.5143324 393.24293129 100.68034455 394.86252269 102.91015625 396.4453125 C103.53148437 396.88657471 104.1528125 397.32783691 104.79296875 397.7824707 C110.09799826 401.49367654 115.55998446 404.66466503 121.34765625 407.5703125 C121.93144043 407.86566895 122.51522461 408.16102539 123.11669922 408.46533203 C127.18296646 410.52218642 131.26251488 412.55115982 135.34765625 414.5703125 C135.99605469 414.93382812 136.64445312 415.29734375 137.3125 415.671875 C146.92937202 419.91732714 159.69892536 421.44639218 169.66015625 417.9453125 C174.14273808 415.93515471 176.60324248 413.72613906 179.34765625 409.5703125 C179.95673828 408.71953125 179.95673828 408.71953125 180.578125 407.8515625 C189.71073864 393.68898628 190.18847654 375.8292349 189.97265625 359.5703125 C189.96789276 358.59483459 189.96312927 357.61935669 189.95822144 356.61431885 C189.86127419 339.65115254 188.75562994 322.79423356 183.34765625 306.5703125 C180.39844731 306.5703125 177.94929588 307.11724689 175.10668945 307.84033203 Z M28.34765625 319.5703125 C30.41070427 323.00872587 32.34588637 326.00902591 34.78515625 329.1328125 C35.36136719 329.87660156 35.93757812 330.62039063 36.53125 331.38671875 C38.32778245 333.62627238 38.32778245 333.62627238 40.5078125 335.66015625 C42.34765625 337.5703125 42.34765625 337.5703125 43.34765625 340.5703125 C44.96604344 342.28389893 46.64437306 343.9410851 48.34765625 345.5703125 C49.62112343 346.83850652 50.89189805 348.10940924 52.16015625 349.3828125 C52.76472656 349.98738281 53.36929688 350.59195312 53.9921875 351.21484375 C54.43949219 351.66214844 54.88679688 352.10945313 55.34765625 352.5703125 C59.77437387 350.96826232 62.19211729 347.58593838 65.09765625 344.0703125 C65.60425781 343.47605469 66.11085938 342.88179688 66.6328125 342.26953125 C69.41833379 339.31849378 69.41833379 339.31849378 70.34765625 335.5703125 C71.00765625 335.5703125 71.66765625 335.5703125 72.34765625 335.5703125 C72.61578125 334.9721875 72.88390625 334.3740625 73.16015625 333.7578125 C74.36107308 331.54559729 75.57875798 330.33495862 77.34765625 328.5703125 C78.43285422 327.21315495 79.4950155 325.83730333 80.53515625 324.4453125 C81.06496094 323.74148438 81.59476562 323.03765625 82.140625 322.3125 C83.44257249 320.7865582 83.44257249 320.7865582 83.34765625 319.5703125 C65.19765625 319.5703125 47.04765625 319.5703125 28.34765625 319.5703125 Z " fill="#000000" transform="translate(200.65234375,13.4296875)"/>
<path d="M0 0 C11.61430188 -0.29569651 24.17529419 1.50146029 33.1328125 9.6484375 C33.78443359 10.37546875 33.78443359 10.37546875 34.44921875 11.1171875 C35.71765625 12.385625 35.71765625 12.385625 37.01171875 13.6796875 C38.49088542 15.15885417 39.97005208 16.63802083 41.44921875 18.1171875 C41.44921875 19.1071875 41.44921875 20.0971875 41.44921875 21.1171875 C42.10921875 21.1171875 42.76921875 21.1171875 43.44921875 21.1171875 C50.22991089 33.77447949 52.09918496 48.74058258 47.88671875 62.6796875 C45.66175377 68.33380999 42.51718763 73.58831574 38.44921875 78.1171875 C37.78921875 78.1171875 37.12921875 78.1171875 36.44921875 78.1171875 C36.18625 78.71660156 35.92328125 79.31601562 35.65234375 79.93359375 C31.86900845 86.80010164 23.48974071 89.86586976 16.42578125 92.1953125 C4.31013081 95.35379611 -8.47010274 93.85143863 -19.55078125 88.1171875 C-30.89687016 80.74839606 -39.06953216 70.82296658 -42.36328125 57.6171875 C-44.72312263 45.85866752 -43.71599794 33.73247927 -37.8671875 23.0390625 C-36.19008381 20.62980386 -34.43699307 18.36477635 -32.55078125 16.1171875 C-31.80828125 15.1065625 -31.06578125 14.0959375 -30.30078125 13.0546875 C-28.55078125 11.1171875 -28.55078125 11.1171875 -25.55078125 10.1171875 C-24.9371875 9.49199219 -24.32359375 8.86679688 -23.69140625 8.22265625 C-17.27647532 1.91308003 -8.59732446 0.39497662 0 0 Z " fill="#000000" transform="translate(252.55078125,180.8828125)"/>
</svg>
