<?xml version="1.0" encoding="UTF-8"?>
<svg version="1.1" xmlns="http://www.w3.org/2000/svg" width="640" height="427">
<path d="M0 0 C0.66019135 0.00215515 1.32038269 0.0043103 2.00057983 0.00653076 C34.12642861 0.17465006 61.08436782 12.30344858 84.25 34.3125 C84.75289551 34.78284668 85.25579102 35.25319336 85.77392578 35.73779297 C110.67230066 59.13635701 126.32875068 89.78687098 133.5 123 C133.65114258 123.69851074 133.80228516 124.39702148 133.95800781 125.11669922 C136.8265593 139.3396639 137.62520646 153.34878165 137.5625 167.8125 C137.55976578 169.12610504 137.55976578 169.12610504 137.55697632 170.46624756 C137.50764018 184.58795383 136.87219228 198.40270827 134.25 212.3125 C134.07307617 213.25174316 133.89615234 214.19098633 133.71386719 215.15869141 C126.20215811 253.57998059 107.77045837 291.69319886 74.94335938 314.72363281 C48.93876692 332.04600157 15.7703365 337.73953437 -14.89868164 332.18530273 C-18.5703171 331.3867465 -22.16271762 330.4289588 -25.75 329.3125 C-26.44577148 329.09819336 -27.14154297 328.88388672 -27.85839844 328.66308594 C-75.4905548 313.4641582 -104.06975909 267.35482643 -127.75 226.3125 C-131.29439419 230.41271964 -133.72329865 234.74898143 -136.25 239.5 C-141.51964385 249.17123005 -147.42116733 258.30405581 -153.75 267.3125 C-154.23726562 268.00617676 -154.72453125 268.69985352 -155.2265625 269.41455078 C-162.61185932 279.81863705 -170.82402973 289.20681221 -179.75 298.3125 C-180.62277588 299.21162109 -180.62277588 299.21162109 -181.51318359 300.12890625 C-202.7787625 321.78537508 -231.60122402 335.15213246 -262.07177734 335.55419922 C-297.75584001 335.6512133 -326.76437228 323.87310943 -352.75 299.3125 C-353.54921875 298.57773437 -354.3484375 297.84296875 -355.171875 297.0859375 C-384.79748976 268.87555912 -401.88033514 224.59801596 -402.91113281 184.015625 C-402.93061724 182.53131188 -402.94440459 181.04691538 -402.953125 179.5625 C-402.96371445 178.35135277 -402.96371445 178.35135277 -402.97451782 177.11573792 C-403.31579321 126.52181364 -394.87942957 74.99642173 -358.5234375 37.12109375 C-336.68090219 15.00168123 -310.1473422 2.34452854 -278.66674805 1.93212891 C-248.42078528 1.97882115 -221.60219567 9.78597026 -198.75 30.3125 C-197.7421926 31.19922455 -196.73437991 32.08594308 -195.7265625 32.97265625 C-172.44865843 53.67716053 -156.3088488 80.25784623 -141.04003906 107.10205078 C-140.00468307 108.87610702 -138.88939762 110.60340357 -137.75 112.3125 C-137.49009277 111.79155762 -137.23018555 111.27061523 -136.96240234 110.73388672 C-126.74038369 90.39175944 -115.00176399 71.0974841 -100.75 53.3125 C-100.26321777 52.70470703 -99.77643555 52.09691406 -99.27490234 51.47070312 C-74.13925142 20.43003766 -40.74216139 -0.18129498 0 0 Z M-43.75 91.3125 C-44.58917969 92.14652344 -45.42835938 92.98054688 -46.29296875 93.83984375 C-69.23882007 116.93161463 -84.88178384 146.84461381 -99.0546875 175.87890625 C-100.12721192 178.05113889 -101.23279052 180.20762596 -102.3828125 182.33984375 C-103.09050781 183.65662109 -103.09050781 183.65662109 -103.8125 185 C-104.21597656 185.72574219 -104.61945313 186.45148438 -105.03515625 187.19921875 C-105.97037323 189.96398589 -105.49415831 191.50707282 -104.75 194.3125 C-103.70615754 196.39210406 -103.70615754 196.39210406 -102.34375 198.3515625 C-101.85173096 199.09148437 -101.35971191 199.83140625 -100.8527832 200.59375 C-100.32386475 201.3671875 -99.79494629 202.140625 -99.25 202.9375 C-98.70754639 203.73929688 -98.16509277 204.54109375 -97.60620117 205.3671875 C-93.30653301 211.65165902 -88.76794281 217.57901873 -83.75 223.3125 C-82.67685547 224.56740234 -82.67685547 224.56740234 -81.58203125 225.84765625 C-61.85573568 248.43688322 -35.09171996 263.79800982 -4.82080078 266.18359375 C22.52140106 267.88563131 47.3587043 262.60222504 69.25 245.3125 C69.97058594 244.74660156 70.69117188 244.18070313 71.43359375 243.59765625 C91.12120389 227.28725799 101.55220666 201.5858748 104.07348633 176.59814453 C106.26804872 148.1811416 100.56093745 118.96560852 82.01953125 96.625 C79.8134665 94.13415925 77.55123821 91.71538301 75.25 89.3125 C74.60289062 88.60222656 73.95578125 87.89195312 73.2890625 87.16015625 C59.44861389 72.44408742 38.95214642 65.1106865 19.06640625 64.28125 C-5.52493566 64.48261206 -26.58810781 73.96663653 -43.75 91.3125 Z M-342.375 98.4375 C-362.87687053 119.67791053 -370.35094759 147.25809681 -369.96484375 176.19921875 C-369.10337656 204.29589078 -358.50901844 230.8859945 -337.9921875 250.4140625 C-319.08917854 266.41904918 -297.34267814 272.99772377 -272.75 271.3125 C-246.66200544 268.24496755 -224.96365084 251.04855457 -208.75 231.3125 C-201.05234598 221.48063458 -194.12137762 211.19272321 -187.92626953 200.35742188 C-186.65579614 198.14872841 -185.35814312 195.95732714 -184.05859375 193.765625 C-178.19773086 183.79800284 -172.71758784 173.64222522 -167.47174072 163.33963013 C-166.7854991 161.9945844 -166.09473847 160.65183416 -165.39935303 159.31149292 C-164.42228969 157.42296882 -163.46459935 155.52581708 -162.51171875 153.625 C-161.95444092 152.52800781 -161.39716309 151.43101562 -160.82299805 150.30078125 C-159.6356743 146.99410488 -159.62914539 145.59561693 -160.75 142.3125 C-161.6043306 140.43480045 -161.6043306 140.43480045 -162.71875 138.7109375 C-163.12037354 138.06141113 -163.52199707 137.41188477 -163.93579102 136.74267578 C-164.36947998 136.06446777 -164.80316895 135.38625977 -165.25 134.6875 C-165.92276978 133.62571533 -165.92276978 133.62571533 -166.60913086 132.54248047 C-170.55870009 126.41477351 -174.93775639 120.79026666 -179.75 115.3125 C-180.45640625 114.48492187 -181.1628125 113.65734375 -181.890625 112.8046875 C-202.86167652 88.74078306 -230.56671747 73.09649483 -262.72875977 70.72241211 C-293.29418887 68.83066534 -319.9431898 77.26061624 -342.375 98.4375 Z " fill="#000000" transform="translate(452.75,45.6875)"/>
</svg>
