<?xml version="1.0" encoding="UTF-8"?>
<svg version="1.1" xmlns="http://www.w3.org/2000/svg" width="175" height="40">
<path d="M0 0 C57.75 0 115.5 0 175 0 C175 13.2 175 26.4 175 40 C117.25 40 59.5 40 0 40 C0 26.8 0 13.6 0 0 Z " fill="#F9F9F9" transform="translate(0,0)"/>
<path d="M0 0 C2.08304538 -0.05418326 4.16649768 -0.09287551 6.25 -0.125 C7.99023438 -0.15980469 7.99023438 -0.15980469 9.765625 -0.1953125 C12.82786046 -0.0103949 14.44202751 0.39176977 17 2 C17.36630156 5.93774177 17.30233203 7.56539771 15 10.875 C14.34 11.57625 13.68 12.2775 13 13 C13.66 13.66 14.32 14.32 15 15 C14.66785714 21.08928571 14.66785714 21.08928571 12.625 23.875 C7.37348853 27.51066179 2.93172606 26 -4 26 C-2.02 17.75 -0.04 9.5 2 1 C1.34 0.67 0.68 0.34 0 0 Z " fill="#171717" transform="translate(51,6)"/>
<path d="M0 0 C0.90105469 0.01804687 1.80210938 0.03609375 2.73046875 0.0546875 C3.41753906 0.07789063 4.10460937 0.10109375 4.8125 0.125 C4.50235608 2.20868538 4.1892948 4.29193668 3.875 6.375 C3.70097656 7.53515625 3.52695313 8.6953125 3.34765625 9.890625 C2.9397264 12.35606961 2.47348697 14.71924562 1.8125 17.125 C2.8025 17.125 3.7925 17.125 4.8125 17.125 C4.8125 16.465 4.8125 15.805 4.8125 15.125 C5.4725 15.125 6.1325 15.125 6.8125 15.125 C6.4825 16.115 6.1525 17.105 5.8125 18.125 C3.8325 18.455 1.8525 18.785 -0.1875 19.125 C-0.8475 18.135 -1.5075 17.145 -2.1875 16.125 C-2.579375 16.640625 -2.97125 17.15625 -3.375 17.6875 C-5.1875 19.125 -5.1875 19.125 -7.8125 18.875 C-10.1875 18.125 -10.1875 18.125 -11.1875 17.125 C-11.6314141 12.51512284 -11.74527742 8.39991981 -9.875 4.125 C-6.78873388 0.46720312 -4.59891294 -0.11945228 0 0 Z " fill="#1C1C1C" transform="translate(84.1875,12.875)"/>
<path d="M0 0 C1.98 0 3.96 0 6 0 C5.68954268 1.9169986 5.37655329 3.83358723 5.0625 5.75 C4.88847656 6.81734375 4.71445313 7.8846875 4.53515625 8.984375 C4.11295829 11.36347593 3.62797116 13.66915211 3 16 C6.07678035 14.28239171 6.07678035 14.28239171 9 12 C9 10.68 9 9.36 9 8 C10.98 8 12.96 8 15 8 C13.9081525 10.63863147 13.3765904 11.79556521 10.8125 13.1875 C8.74903236 14.83067745 8.74903236 14.83067745 8.96484375 17.1875 C9.22653411 19.48177163 9.56276489 21.733031 10 24 C11.32 23.67 12.64 23.34 14 23 C13.67 23.99 13.34 24.98 13 26 C11.35 26.33 9.7 26.66 8 27 C5 20.375 5 20.375 5 17 C4.01 17 3.02 17 2 17 C1.67 20.3 1.34 23.6 1 27 C-0.32 27 -1.64 27 -3 27 C-2.83564453 26.195625 -2.83564453 26.195625 -2.66796875 25.375 C-1.02745157 17.26577686 0.48629829 9.13362385 2 1 C1.34 0.67 0.68 0.34 0 0 Z " fill="#0E0E0E" transform="translate(114,5)"/>
<path d="M0 0 C0.66 0.66 1.32 1.32 2 2 C1.34 2.66 0.68 3.32 0 4 C6.6 4.33 13.2 4.66 20 5 C20 5.66 20 6.32 20 7 C12.41 7.33 4.82 7.66 -3 8 C-3 9.32 -3 10.64 -3 12 C4.59 12.33 12.18 12.66 20 13 C20 13.66 20 14.32 20 15 C13.4 15.33 6.8 15.66 0 16 C0.66 17.32 1.32 18.64 2 20 C-1.08693704 18.64147869 -3.08641734 17.15489047 -5.3125 14.625 C-5.84488281 14.03976563 -6.37726562 13.45453125 -6.92578125 12.8515625 C-8 11 -8 11 -7.890625 9.0078125 C-6.79118099 6.52924136 -5.40364747 5.10890306 -3.4375 3.25 C-2.79683594 2.63640625 -2.15617188 2.0228125 -1.49609375 1.390625 C-1.00238281 0.93171875 -0.50867188 0.4728125 0 0 Z " fill="#101010" transform="translate(11,11)"/>
<path d="M0 0 C0 1.65 0 3.3 0 5 C-0.66 5 -1.32 5 -2 5 C-2.33 4.34 -2.66 3.68 -3 3 C-5.44480079 3.18828772 -5.44480079 3.18828772 -8 4 C-10.66181082 7.2955753 -10.15640774 10.93339881 -10 15 C-5.87026372 14.43260132 -5.87026372 14.43260132 -2 13 C-2.3125 14.875 -2.3125 14.875 -3 17 C-6 19 -6 19 -9.625 18.75 C-10.73875 18.5025 -11.8525 18.255 -13 18 C-14.60632723 14.78734554 -14.47931944 11.48478188 -14 8 C-10.38026658 1.25980674 -7.54772463 -0.2848198 0 0 Z " fill="#0F0F0F" transform="translate(108,13)"/>
<path d="M0 0 C1.65 0.33 3.3 0.66 5 1 C4.61271765 6.71241466 4.12989477 9.73688282 0 14 C-1.32 13.67 -2.64 13.34 -4 13 C-4.49230769 5.73846154 -4.49230769 5.73846154 -2 2 C-1.34 1.34 -0.68 0.68 0 0 Z " fill="#F2F2F2" transform="translate(80,15)"/>
<path d="M0 0 C5.75 -0.125 5.75 -0.125 8 1 C8.48468708 7.42210386 8.48468708 7.42210386 6.375 9.9375 C3.43969547 11.25066255 1.18136394 11.21691118 -2 11 C-1.34 7.37 -0.68 3.74 0 0 Z " fill="#F6F6F6" transform="translate(54,19)"/>
<path d="M0 0 C3.375 -0.125 3.375 -0.125 7 0 C7.66 0.66 8.32 1.32 9 2 C8.8125 4.5 8.8125 4.5 8 7 C4.5647952 9.29013653 3.014669 9.17842973 -1 9 C-0.67 6.03 -0.34 3.06 0 0 Z " fill="#F1F1F1" transform="translate(56,8)"/>
<path d="M0 0 C1.30211046 3.90633137 0.47812346 6.19538173 -0.4375 10.1875 C-0.72496094 11.45980469 -1.01242188 12.73210938 -1.30859375 14.04296875 C-1.53675781 15.01878906 -1.76492187 15.99460937 -2 17 C-1.01 17 -0.02 17 1 17 C1 16.34 1 15.68 1 15 C1.66 15 2.32 15 3 15 C2.67 15.99 2.34 16.98 2 18 C0.02 18.33 -1.96 18.66 -4 19 C-4.66 18.01 -5.32 17.02 -6 16 C-6.66 16.33 -7.32 16.66 -8 17 C-7.71125 16.443125 -7.4225 15.88625 -7.125 15.3125 C-5.41125342 11.78979869 -4.09881422 8.71993219 -3.5625 4.8125 C-3.376875 3.884375 -3.19125 2.95625 -3 2 C-2.01 1.34 -1.02 0.68 0 0 Z " fill="#111111" transform="translate(88,13)"/>
<path d="M0 0 C1.98 0 3.96 0 6 0 C4.9081525 2.63863147 4.3765904 3.79556521 1.8125 5.1875 C-0.25096764 6.83067745 -0.25096764 6.83067745 -0.03515625 9.1875 C0.22653411 11.48177163 0.56276489 13.733031 1 16 C2.32 15.67 3.64 15.34 5 15 C4.67 15.99 4.34 16.98 4 18 C2.35 18.33 0.7 18.66 -1 19 C-4.77395577 10.98034398 -4.77395577 10.98034398 -4 7 C-2.68662604 5.9739266 -1.35335895 4.97272675 0 4 C0 2.68 0 1.36 0 0 Z " fill="#151515" transform="translate(123,13)"/>
<path d="M0 0 C3 2 3 2 3.6875 4.625 C3.8421875 5.800625 3.8421875 5.800625 4 7 C8.12973628 6.43260132 8.12973628 6.43260132 12 5 C11.6875 6.875 11.6875 6.875 11 9 C8 11 8 11 4.375 10.75 C3.26125 10.5025 2.1475 10.255 1 10 C-0.60725635 6.78548731 -0.05748185 3.56387464 0 0 Z " fill="#1B1B1B" transform="translate(94,21)"/>
<path d="M0 0 C2.24658203 -0.2487793 2.24658203 -0.2487793 5.0078125 -0.07421875 C6.48701172 0.00795898 6.48701172 0.00795898 7.99609375 0.09179688 C9.02863281 0.16462891 10.06117187 0.23746094 11.125 0.3125 C12.16527344 0.37373047 13.20554687 0.43496094 14.27734375 0.49804688 C16.85273 0.65162495 19.42638232 0.81951171 22 1 C22 1.66 22 2.32 22 3 C14.08 3 6.16 3 -2 3 C-1.34 2.01 -0.68 1.02 0 0 Z " fill="#000000" transform="translate(9,15)"/>
<path d="M0 0 C4.29 0 8.58 0 13 0 C12.67 0.66 12.34 1.32 12 2 C9.69 2 7.38 2 5 2 C5 3.65 5 5.3 5 7 C4.01 7.33 3.02 7.66 2 8 C2 5.69 2 3.38 2 1 C1.34 0.67 0.68 0.34 0 0 Z " fill="#090909" transform="translate(51,6)"/>
<path d="M0 0 C1.98 0 3.96 0 6 0 C5.34 3.3 4.68 6.6 4 10 C3.34 10 2.68 10 2 10 C2 7.03 2 4.06 2 1 C1.34 0.67 0.68 0.34 0 0 Z " fill="#191919" transform="translate(114,5)"/>
<path d="M0 0 C0.2475 0.61875 0.495 1.2375 0.75 1.875 C2.20628639 4.35068687 3.37812506 4.95125002 6 6 C5.67 6.99 5.34 7.98 5 9 C0.125 8.125 0.125 8.125 -1 7 C-1.125 4 -1.125 4 -1 1 C-0.67 0.67 -0.34 0.34 0 0 Z " fill="#0B0B0B" transform="translate(74,23)"/>
<path d="M0 0 C0.66 0 1.32 0 2 0 C2.66 0.99 3.32 1.98 4 3 C4.99 3.33 5.98 3.66 7 4 C7 3.34 7 2.68 7 2 C7.66 2 8.32 2 9 2 C8.67 2.99 8.34 3.98 8 5 C6.02 5.33 4.04 5.66 2 6 C1.34 5.01 0.68 4.02 0 3 C-0.99 3.495 -0.99 3.495 -2 4 C-1.34 2.68 -0.68 1.36 0 0 Z " fill="#343434" transform="translate(82,26)"/>
<path d="M0 0 C0.33 0.66 0.66 1.32 1 2 C3.64 2 6.28 2 9 2 C9 2.66 9 3.32 9 4 C5.04 4 1.08 4 -3 4 C-2.67 3.01 -2.34 2.02 -2 1 C-1.34 0.67 -0.68 0.34 0 0 Z " fill="#080808" transform="translate(50,28)"/>
<path d="M0 0 C0.66 0.66 1.32 1.32 2 2 C-5 9 -5 9 -8 10 C-6.34908222 5.70761377 -3.26245434 3.1206085 0 0 Z " fill="#373737" transform="translate(11,11)"/>
<path d="M0 0 C0.66 1.32 1.32 2.64 2 4 C3.32 3.67 4.64 3.34 6 3 C5.67 3.99 5.34 4.98 5 6 C3.35 6.33 1.7 6.66 0 7 C-0.66 5.35 -1.32 3.7 -2 2 C-1.34 2 -0.68 2 0 2 C0 1.34 0 0.68 0 0 Z " fill="#1C1C1C" transform="translate(122,25)"/>
<path d="M0 0 C0.33 0.66 0.66 1.32 1 2 C1.66 2 2.32 2 3 2 C2.67 4.31 2.34 6.62 2 9 C1.01 8.67 0.02 8.34 -1 8 C-0.67 5.36 -0.34 2.72 0 0 Z " fill="#232323" transform="translate(50,21)"/>
<path d="M0 0 C0.33 1.32 0.66 2.64 1 4 C1.66 4 2.32 4 3 4 C2.67 5.98 2.34 7.96 2 10 C1.01 10 0.02 10 -1 10 C-0.67 6.7 -0.34 3.4 0 0 Z " fill="#2C2C2C" transform="translate(115,11)"/>
<path d="M0 0 C0.33 0.66 0.66 1.32 1 2 C1.66 2 2.32 2 3 2 C3 3.32 3 4.64 3 6 C1.68 6 0.36 6 -1 6 C-0.67 4.02 -0.34 2.04 0 0 Z " fill="#363636" transform="translate(112,26)"/>
</svg>
