<?xml version="1.0" encoding="UTF-8"?>
<svg version="1.1" xmlns="http://www.w3.org/2000/svg" width="400" height="360">
<path d="M0 0 C132 0 264 0 400 0 C400 118.8 400 237.6 400 360 C268 360 136 360 0 360 C0 241.2 0 122.4 0 0 Z " fill="#010101" transform="translate(0,0)"/>
<path d="M0 0 C0.33 0 0.66 0 1 0 C1 60.72 1 121.44 1 184 C-131 184 -263 184 -399 184 C-399 123.94 -399 63.88 -399 2 C-396.87565845 4.12434155 -396.35968724 5.47792072 -395.24118042 8.22036743 C-391.2406345 16.32453961 -384.48713357 22.1933019 -378.14111328 28.47412109 C-376.71227647 29.90646316 -375.28451957 31.33988319 -373.85775757 32.77429199 C-369.99722006 36.64902592 -366.12128384 40.50800347 -362.24190378 44.36386061 C-358.17716573 48.40843202 -354.12548804 52.4660498 -350.07199097 56.5218811 C-343.26638219 63.32743638 -336.45101226 70.12309133 -329.62939453 76.91259766 C-321.74837661 84.75669666 -313.88153332 92.61478827 -306.02244008 100.48084962 C-298.45143664 108.058162 -290.87192803 115.62690695 -283.28802109 123.19130325 C-280.06477519 126.40638529 -276.84426638 129.62417254 -273.62588882 132.84412766 C-269.83583323 136.63506336 -266.03829795 140.41834688 -262.23489761 144.19589233 C-260.84199377 145.58164616 -259.45160523 146.96993366 -258.06395721 148.36095047 C-256.16644504 150.26218915 -254.25991923 152.15391405 -252.3508606 154.04354858 C-251.80658263 154.59315447 -251.26230467 155.14276036 -250.70153344 155.70902097 C-244.03868336 162.25569933 -236.67855907 165.99196145 -227.25 166.4375 C-219.50644471 166.30282947 -213.96218664 163.51141911 -208.125 158.5625 C-201.32318816 150.36031513 -199.11521129 143.55847864 -200 133 C-201.81315218 121.0962618 -213.06825846 112.78161594 -221.19165039 104.71069336 C-222.06103241 103.84277161 -222.93041443 102.97484985 -223.82614136 102.08062744 C-225.69431884 100.21622604 -227.56335931 98.35274443 -229.43400764 96.49082756 C-232.39057062 93.54792875 -235.34318799 90.60109174 -238.29527283 87.65370178 C-244.54802825 81.41197056 -250.80506183 75.17453614 -257.0625 68.9375 C-263.85115625 62.17089807 -270.63903908 55.40352971 -277.42210001 48.63131815 C-280.35942492 45.69898177 -283.29917115 42.76910102 -286.24078286 39.84106529 C-288.48676892 37.60424641 -290.72957548 35.36424313 -292.97290039 33.12475586 C-294.20001488 31.90539085 -294.20001488 31.90539085 -295.45191956 30.66139221 C-296.55569946 29.55771805 -296.55569946 29.55771805 -297.68177795 28.43174744 C-298.32640519 27.78934081 -298.97103243 27.14693419 -299.63519382 26.48506069 C-301 25 -301 25 -301 24 C-300.12276688 23.99853479 -300.12276688 23.99853479 -299.22781187 23.99703997 C-264.55613132 23.93875091 -229.88451931 23.86494124 -195.21291682 23.77101372 C-191.04860175 23.75974574 -186.88428634 23.74860726 -182.7199707 23.73754883 C-181.89094059 23.73534514 -181.06191048 23.73314146 -180.20775824 23.730871 C-166.78933915 23.6955116 -153.37092012 23.67063981 -139.95247174 23.64965298 C-126.1809299 23.62788011 -112.40944845 23.59481557 -98.63795799 23.55129844 C-90.14219855 23.52480732 -81.64651433 23.50709325 -73.15071564 23.50065396 C-67.32253213 23.4953923 -61.49444323 23.47914923 -55.66631044 23.45433434 C-52.30519063 23.44034575 -48.94438431 23.43276796 -45.58321381 23.43499184 C-41.93402664 23.43664393 -38.2853613 23.41994946 -34.63624573 23.39872742 C-33.58077767 23.40357499 -32.52530962 23.40842257 -31.43785769 23.41341704 C-22.30715468 23.32587312 -13.76485876 21.52867915 -7 15 C-3.32929286 10.37510374 -1.3111591 5.72142154 0 0 Z " fill="#F6F6F6" transform="translate(399,176)"/>
<path d="M0 0 C73.92 0 147.84 0 224 0 C224 54.45 224 108.9 224 165 C222 162 222 162 220.80859375 159.73046875 C216.37838626 151.51375913 210.77587024 147.10148227 202 144 C199.56233584 143.70132814 199.56233584 143.70132814 197.01189709 143.73828697 C196.02659108 143.73082148 195.04128508 143.72335599 194.02612132 143.71566427 C192.95122 143.717599 191.87631869 143.71953374 190.7688446 143.7215271 C189.62117782 143.7157347 188.47351103 143.7099423 187.29106647 143.70397437 C184.10988848 143.68991348 180.92883896 143.68474424 177.74763477 143.68332577 C174.31549053 143.67962999 170.88339465 143.66447363 167.45127869 143.65071106 C161.50635472 143.62843999 155.56144797 143.61342579 149.61649132 143.60334396 C141.02109443 143.58875686 132.4257575 143.56321995 123.8303958 143.53501268 C109.8849119 143.48954526 95.93941937 143.45293024 81.99389648 143.421875 C68.44733159 143.39168926 54.9007878 143.35733887 41.35424805 143.31738281 C40.10168033 143.31369049 40.10168033 143.31369049 38.82380822 143.30992357 C34.63462123 143.29754897 30.4454345 143.28509244 26.25624788 143.27259517 C-8.49580577 143.16902812 -43.24788402 143.07982461 -78 143 C-74.76068793 139.16270377 -71.51799573 135.38962302 -67.94006348 131.86018372 C-67.19162674 131.11904327 -66.44319 130.37790283 -65.67207336 129.61430359 C-64.87085556 128.82610733 -64.06963776 128.03791107 -63.24414062 127.22583008 C-61.464304 125.46565319 -59.68447868 123.70546488 -57.90466309 121.94526672 C-56.96809372 121.02092646 -56.03152435 120.09658619 -55.0665741 119.14423561 C-52.11901586 116.23437818 -49.17820236 113.31776735 -46.2388916 110.39958191 C-45.74050891 109.90483661 -45.24212623 109.41009131 -44.72864103 108.90035373 C-43.71018155 107.88929888 -42.69173808 106.8782279 -41.67331028 105.86714113 C-34.84055073 99.08414184 -28.00360638 92.30551756 -21.14794922 85.5456543 C-16.50878513 80.97121177 -11.88059286 76.38597062 -7.26444197 71.7883026 C-4.82865664 69.36312318 -2.38783901 66.94357828 0.0665741 64.53724098 C2.80662485 61.84576615 5.52712836 59.13584626 8.24414062 56.42114258 C9.04535843 55.64306747 9.84657623 54.86499237 10.67207336 54.06333923 C17.81111244 46.85941071 23.05543649 38.81601744 23.75 28.5 C23.33580996 20.65862952 20.55150586 13.7674255 15.13671875 8.0234375 C10.60362197 4.33518641 5.60662186 2.47952521 0 1 C0 0.67 0 0.34 0 0 Z " fill="#F6F6F6" transform="translate(176,0)"/>
<path d="M0 0 C54.45 0 108.9 0 165 0 C162 2 162 2 159.09453201 3.38512135 C148.80547867 8.75445427 140.40023315 19.42828866 132.20019531 27.59106445 C130.83917542 28.94252436 129.47799009 30.29381767 128.11665344 31.6449585 C123.68329853 36.0472064 119.2552437 40.45476306 114.828125 44.86328125 C114.07198001 45.61612892 113.31583502 46.36897659 112.53677654 47.14463782 C105.39472396 54.25594763 98.25470442 61.36929287 91.11951065 68.48748493 C82.02845867 77.55660904 72.92747709 86.61550895 63.81273389 95.66082412 C57.3824306 102.04381633 50.96372582 108.43832767 44.55340838 114.84139031 C40.73334149 118.65651684 36.90844587 122.46648062 33.070961 126.2640934 C29.46256444 129.83547939 25.86882588 133.42100034 22.28551292 137.01754761 C20.97420723 138.32879961 19.65782233 139.63499655 18.3358326 140.9354763 C10.766188 148.38855857 4.97199302 154.97759207 1 165 C0.67 165 0.34 165 0 165 C0 110.55 0 56.1 0 0 Z " fill="#F6F6F6" transform="translate(0,0)"/>
<path d="M0 0 C2.60444348 -0.05394705 5.20776998 -0.09364469 7.8125 -0.125 C8.55048828 -0.14175781 9.28847656 -0.15851563 10.04882812 -0.17578125 C13.91246426 -0.21074628 15.70903668 -0.19397555 19 2 C19 2.66 19 3.32 19 4 C18.42024414 3.84152588 17.84048828 3.68305176 17.24316406 3.51977539 C13.78779602 2.71911382 10.28089697 2.62776918 6.75 2.4375 C6.00492187 2.39431641 5.25984375 2.35113281 4.4921875 2.30664062 C2.661651 2.20103275 0.83084824 2.10005799 -1 2 C-0.67 1.34 -0.34 0.68 0 0 Z " fill="#ECECEC" transform="translate(361,140)"/>
<path d="M0 0 C0.99 0.66 1.98 1.32 3 2 C-0.17320782 5.53586014 -2.16743695 7.58578031 -7 8 C-6.02133662 6.85373678 -5.04205413 5.70800212 -4.0625 4.5625 C-3.51722656 3.92441406 -2.97195312 3.28632813 -2.41015625 2.62890625 C-1.63204305 1.73008851 -0.84063472 0.84063472 0 0 Z " fill="#E3E3E3" transform="translate(107,133)"/>
<path d="M0 0 C0.66 0.66 1.32 1.32 2 2 C-0.64 4.64 -3.28 7.28 -6 10 C-6.66 9.01 -7.32 8.02 -8 7 C-5.47211993 4.20127563 -3.79588866 2.54226981 0 2 C0 1.34 0 0.68 0 0 Z " fill="#E2E2E2" transform="translate(128,28)"/>
<path d="M0 0 C1.98 0 3.96 0 6 0 C4.35 1.98 2.7 3.96 1 6 C-0.0625 4.125 -0.0625 4.125 -1 2 C-0.67 1.34 -0.34 0.68 0 0 Z " fill="#E4E4E4" transform="translate(93,60)"/>
<path d="M0 0 C0.66 0 1.32 0 2 0 C1.01 2.97 0.02 5.94 -1 9 C-1.33 9 -1.66 9 -2 9 C-2.25 3.375 -2.25 3.375 0 0 Z " fill="#DCDCDC" transform="translate(2,156)"/>
<path d="M0 0 C0.66 1.32 1.32 2.64 2 4 C0.68 5.65 -0.64 7.3 -2 9 C-2.66 8.67 -3.32 8.34 -4 8 C-2.68 5.36 -1.36 2.72 0 0 Z " fill="#CACACA" transform="translate(198,37)"/>
</svg>
