<?xml version="1.0" encoding="UTF-8"?>
<svg version="1.1" xmlns="http://www.w3.org/2000/svg" width="512" height="512">
<path d="M0 0 C2.62490998 0.00096851 5.24685055 -0.0406824 7.87133789 -0.08496094 C22.15982252 -0.18703056 34.54848102 2.60902129 47.27172852 9.31347656 C48.25906982 9.82213257 48.25906982 9.82213257 49.26635742 10.34106445 C55.25908973 13.50994644 60.70213271 17.21681139 65.95922852 21.50097656 C66.7984082 22.17644531 67.63758789 22.85191406 68.50219727 23.54785156 C84.1039157 36.80326505 94.19987135 54.71848101 98.95922852 74.50097656 C99.13271128 75.20021964 99.30619404 75.89946272 99.48493385 76.61989498 C101.4949043 85.99214443 101.25561632 95.38062523 101.24975586 104.9152832 C101.25574897 106.86797338 101.26255631 108.82066119 101.27011108 110.77334595 C101.28770157 116.0526732 101.29246361 121.33193553 101.29374266 126.61128926 C101.29516911 129.91830501 101.29944811 133.22530451 101.30473709 136.53231621 C101.32321654 148.09438999 101.33141059 159.6564178 101.32983398 171.21850586 C101.32863415 181.9549331 101.34971095 192.69115882 101.38132131 203.42753512 C101.40757547 212.67807737 101.41819742 221.92855419 101.41692317 231.17913336 C101.41641608 236.68938543 101.4219574 242.19945834 101.44327927 247.70967293 C101.46281553 252.89975176 101.46268216 258.0894834 101.448246 263.27957535 C101.44617553 265.17000913 101.45075178 267.06046553 101.46296692 268.95086098 C101.62053936 295.05541834 94.86075933 318.11622628 77.95922852 338.50097656 C77.27280273 339.38849609 77.27280273 339.38849609 76.57250977 340.29394531 C62.30405636 358.16017493 38.47481131 369.88041743 15.95922852 372.50097656 C-13.65846972 374.70856571 -39.04963524 368.04404881 -62.04077148 348.93847656 C-77.82617198 335.32904074 -88.17576731 317.71827768 -93.04077148 297.50097656 C-93.30127179 296.45294043 -93.30127179 296.45294043 -93.56703472 295.38373184 C-95.58311384 285.99590096 -95.3295078 276.58956163 -95.31542969 267.0390625 C-95.31978316 265.0815054 -95.32496842 263.12395 -95.33091736 261.16639709 C-95.34425175 255.8748684 -95.34489213 250.58341137 -95.34235406 245.29186916 C-95.34128034 240.86138505 -95.34617804 236.4309152 -95.35095948 232.00043416 C-95.36203593 221.53982926 -95.36250288 211.07926027 -95.35644531 200.61865234 C-95.35040958 189.85834093 -95.36271071 179.0981604 -95.38401538 168.33787131 C-95.40168061 159.07209055 -95.40762491 149.80635125 -95.40437764 140.54055429 C-95.40257213 135.01869663 -95.40512725 129.49693231 -95.41909218 123.97509003 C-95.43174586 118.77767644 -95.42965565 113.58046551 -95.41668129 108.38305473 C-95.41433211 106.48652767 -95.41698991 104.58998601 -95.42530441 102.69347572 C-95.54447609 73.37340071 -86.8211136 47.69875179 -66.04077148 26.50097656 C-55.36370241 16.0485401 -42.14551652 8.36290451 -28.04077148 3.50097656 C-27.34153564 3.24203613 -26.6422998 2.9830957 -25.921875 2.71630859 C-17.39094118 -0.06906574 -8.88163826 -0.0230286 0 0 Z M-47.66577148 53.12597656 C-58.99158773 66.80799099 -64.21378954 82.81320747 -64.17448425 100.48150635 C-64.17674981 101.24349925 -64.17901537 102.00549215 -64.18134958 102.79057574 C-64.18763615 105.32198816 -64.18686367 107.85334631 -64.18603516 110.38476562 C-64.18903 112.20881722 -64.19243328 114.03286819 -64.19621277 115.85691833 C-64.20502423 120.79717882 -64.20738969 125.73742197 -64.20802855 130.67768955 C-64.20874072 133.76871736 -64.21087821 136.8597408 -64.21352577 139.95076752 C-64.22277003 150.74729185 -64.22686184 161.54380387 -64.22607422 172.34033203 C-64.2254738 182.3831809 -64.23602097 192.425976 -64.25181788 202.46881127 C-64.26492057 211.10858163 -64.27025696 219.74833448 -64.26961881 228.38811469 C-64.26936461 233.54046252 -64.27217265 238.69276253 -64.28279686 243.8451004 C-64.29252375 248.69441733 -64.29252571 253.54364118 -64.28528023 258.3929615 C-64.28424005 260.16496734 -64.28656331 261.93697912 -64.29264069 263.70897484 C-64.36287888 285.62111797 -60.44740598 304.81536471 -45.10717773 321.52832031 C-31.06004964 334.93814959 -13.72912548 341.93357043 5.65063477 341.71582031 C20.40985445 340.75742942 33.35975934 335.50476033 44.95922852 326.50097656 C45.57282227 326.05238281 46.18641602 325.60378906 46.81860352 325.14160156 C59.87171257 314.96257157 67.18484653 298.89206522 69.48658371 282.81828308 C69.98048682 278.75170746 70.10484398 274.71690629 70.09967041 270.62329102 C70.10264153 269.87228748 70.10561265 269.12128395 70.10867381 268.34752274 C70.11728427 265.8530895 70.11886253 263.35870468 70.12036133 260.86425781 C70.12499503 259.06640014 70.13002043 257.26854344 70.13540649 255.47068787 C70.14848163 250.60040826 70.1549662 245.73014242 70.15941715 240.85984802 C70.16235655 237.8103314 70.16646302 234.76081847 70.17092133 231.71130371 C70.18458507 222.15064068 70.19425651 212.58998616 70.19812322 203.02931404 C70.20259754 192.02956154 70.22012114 181.0299337 70.24912381 170.03021908 C70.27081598 161.50418569 70.28083155 152.97818717 70.28216434 144.4521265 C70.28320723 139.37116249 70.28900401 134.29031582 70.30698395 129.2093811 C70.32359487 124.42239883 70.3255577 119.63562048 70.31684494 114.84861946 C70.31608141 113.10409049 70.32032551 111.35954996 70.33030319 109.61504936 C70.43771136 89.64398678 67.64982765 71.65749563 54.95922852 55.50097656 C54.38688477 54.74042969 53.81454102 53.97988281 53.22485352 53.19628906 C42.99256098 40.5589705 26.02582753 32.20968429 9.95922852 30.50097656 C-12.40419622 28.9902989 -32.25066845 36.91770268 -47.66577148 53.12597656 Z " fill="#000000" transform="translate(254.040771484375,-0.5009765625)"/>
<path d="M0 0 C3.99834603 3.2544677 6.34909716 6.07292088 6.92114258 11.33789062 C6.97423584 12.16482422 7.0273291 12.99175781 7.08203125 13.84375 C9.33472053 45.60969444 17.85152139 74.49422788 38.6875 99.1875 C39.4403125 100.08082031 40.193125 100.97414063 40.96875 101.89453125 C64.10436658 128.41088054 96.74913997 144.21969238 131.6875 147.1875 C164.40153897 149.00788081 196.61645749 140.44516368 222.6875 120.1875 C223.66074219 119.4346875 224.63398438 118.681875 225.63671875 117.90625 C252.30391379 96.65980811 270.19726265 65.08322558 274.6875 31.1875 C275.16333755 26.39012141 275.5646791 21.58643806 275.8659668 16.77490234 C276.3289261 10.37628715 277.21928325 5.58900819 282 0.9375 C286.92385306 -2.2687299 290.97857479 -3.30447226 296.73046875 -2.34765625 C301.07699748 -1.15908452 303.87073555 0.94874058 306.328125 4.67578125 C308.16740532 9.4272554 308.17836714 13.63329311 308.125 18.6875 C308.11364014 20.20404175 308.11364014 20.20404175 308.10205078 21.7512207 C307.87345359 32.49278581 306.17572118 42.75514453 303.6875 53.1875 C303.38996826 54.44143555 303.38996826 54.44143555 303.08642578 55.72070312 C296.30321925 83.15572462 281.77394343 107.55945922 262.6875 128.1875 C261.86765625 129.07824219 261.0478125 129.96898437 260.203125 130.88671875 C233.09915537 159.09787668 196.12317214 174.91686976 157.6875 179.1875 C157.6875 192.3875 157.6875 205.5875 157.6875 219.1875 C161.94914063 219.15269531 166.21078125 219.11789062 170.6015625 219.08203125 C174.00922889 219.06272517 177.41687973 219.04646146 180.8245697 219.03224945 C184.41652482 219.01643705 188.00826601 218.99532219 191.60009766 218.96118164 C195.06252525 218.92847871 198.52474596 218.91062414 201.98731613 218.90286827 C203.9448708 218.89466407 205.90234276 218.87126207 207.85977173 218.84761047 C209.66095963 218.84727058 209.66095963 218.84727058 211.49853516 218.84692383 C212.55110504 218.84026199 213.60367493 218.83360016 214.68814087 218.82673645 C219.38576425 219.39176758 222.65609423 221.12744407 225.9375 224.5 C229.14528015 229.42623381 230.17272347 233.4764898 229.2265625 239.23046875 C228.07492243 243.41142292 225.90884212 246.28942881 222.45207882 248.83123875 C219.14138695 250.45541494 216.88433281 250.56732217 213.20423889 250.57518005 C211.2380233 250.590037 211.2380233 250.590037 209.23208618 250.60519409 C207.78631498 250.60095628 206.34054468 250.59639845 204.89477539 250.59155273 C203.36684164 250.59725718 201.83891215 250.60422173 200.31098938 250.61235046 C196.16632519 250.63028905 192.02187264 250.62911219 187.87718129 250.62340808 C184.4154182 250.62031719 180.95369583 250.62640757 177.49193853 250.63244683 C169.32442521 250.64649278 161.15701649 250.64493023 152.98950195 250.63354492 C144.56710884 250.62206367 136.14503416 250.63613923 127.72268301 250.6629414 C120.48770597 250.68510189 113.25282886 250.69173499 106.0178203 250.68586498 C101.69834197 250.68249502 97.37906775 250.684913 93.059618 250.70211601 C88.99735008 250.71758871 84.93555367 250.71362632 80.87330437 250.69481087 C79.38420578 250.69112583 77.89507223 250.69423104 76.40600586 250.70469666 C74.36995473 250.71791189 72.33378171 250.70394768 70.29774475 250.68870544 C69.15937196 250.68849616 68.02099916 250.68828688 66.84813023 250.68807125 C62.09628318 249.9354878 58.91771724 247.67224494 55.875 244 C53.6118589 238.63992897 53.15979862 234.04997546 54.75 228.4375 C57.49645273 223.83054704 60.48182945 220.92272352 65.6875 219.1875 C67.63530829 219.09872825 69.58606282 219.06988692 71.53588867 219.07397461 C73.33741646 219.07408791 73.33741646 219.07408791 75.17533875 219.07420349 C77.1207531 219.08194542 77.1207531 219.08194542 79.10546875 219.08984375 C80.44639534 219.09170923 81.78732261 219.09313252 83.12825012 219.09413147 C86.65459073 219.09794644 90.18089004 219.10776801 93.70721436 219.11883545 C97.30675691 219.1290715 100.90630635 219.1336886 104.50585938 219.13867188 C111.5664427 219.14886031 118.62691268 219.16843451 125.6875 219.1875 C125.6875 205.9875 125.6875 192.7875 125.6875 179.1875 C121.3871875 178.630625 121.3871875 178.630625 117 178.0625 C74.47719931 171.93204164 35.21623289 149.11961391 9.09375 114.84375 C6.51695835 111.3629076 4.07601771 107.79954762 1.6875 104.1875 C1.29820313 103.60129883 0.90890625 103.01509766 0.5078125 102.41113281 C-15.69804423 77.65369564 -24.34535415 47.93885041 -24.75 18.4375 C-24.77239746 17.41293701 -24.79479492 16.38837402 -24.81787109 15.33276367 C-24.79885271 9.30143442 -24.35417298 5.76311876 -20.3125 1.1875 C-13.73819138 -3.57887375 -7.13446265 -3.90376258 0 0 Z " fill="#000000" transform="translate(115.3125,260.8125)"/>
</svg>
