<?xml version="1.0" encoding="UTF-8"?>
<svg version="1.1" xmlns="http://www.w3.org/2000/svg" width="95" height="77">
<path d="M0 0 C31.35 0 62.7 0 95 0 C95 25.41 95 50.82 95 77 C63.65 77 32.3 77 0 77 C0 51.59 0 26.18 0 0 Z " fill="#000000" transform="translate(0,0)"/>
<path d="M0 0 C31.35 0 62.7 0 95 0 C95 25.41 95 50.82 95 77 C63.65 77 32.3 77 0 77 C0 51.59 0 26.18 0 0 Z M3 43 C3 52.9 3 62.8 3 73 C32.04 73 61.08 73 91 73 C91 56.5 91 40 91 23 C58.72089922 20.69434994 29.64282303 23.01788273 3 43 Z " fill="#2B2C2D" transform="translate(0,0)"/>
<path d="M0 0 C31.35 0 62.7 0 95 0 C95 25.41 95 50.82 95 77 C63.65 77 32.3 77 0 77 C0 51.59 0 26.18 0 0 Z M2 3 C2 26.43 2 49.86 2 74 C31.7 74 61.4 74 92 74 C92 50.57 92 27.14 92 3 C62.3 3 32.6 3 2 3 Z " fill="#CCD0D5" transform="translate(0,0)"/>
<path d="M0 0 C30.36 0 60.72 0 92 0 C92 8.91 92 17.82 92 27 C91.67 27 91.34 27 91 27 C91 19.08 91 11.16 91 3 C61.3 3 31.6 3 1 3 C1 10.92 1 18.84 1 27 C0.67 27 0.34 27 0 27 C0 18.09 0 9.18 0 0 Z " fill="#E0E4E9" transform="translate(1,0)"/>
<path d="M0 0 C1.65 0.33 3.3 0.66 5 1 C5 1.99 5 2.98 5 4 C3.02 4 1.04 4 -1 4 C-0.67 2.68 -0.34 1.36 0 0 Z " fill="#7E7E7E" transform="translate(6,7)"/>
</svg>
