<?xml version="1.0" encoding="UTF-8"?>
<svg version="1.1" xmlns="http://www.w3.org/2000/svg" width="512" height="512">
<path d="M0 0 C1.89723982 -0.00913666 1.89723982 -0.00913666 3.83280772 -0.01845789 C7.33224095 -0.03482639 10.83144843 -0.03254586 14.33090651 -0.02708292 C18.10949746 -0.02440887 21.88802875 -0.03895159 25.66659546 -0.05117798 C33.06518326 -0.07221878 40.46369268 -0.07677359 47.86230687 -0.07499009 C53.87751039 -0.07368172 59.89268949 -0.07749047 65.90788841 -0.08491516 C67.64153995 -0.08701439 69.37519149 -0.08911199 71.10884303 -0.09120798 C71.97177506 -0.09225151 72.83470709 -0.09329504 73.72378858 -0.09437019 C90.03959882 -0.11326732 106.3553641 -0.11222406 122.67118075 -0.10540086 C137.58879378 -0.09982652 152.50623501 -0.12064708 167.4238079 -0.15376133 C182.74932077 -0.18751646 198.07475138 -0.20266434 213.40030211 -0.1980443 C222.00114193 -0.19580136 230.60182298 -0.20101703 239.202631 -0.22593689 C246.52547411 -0.24697366 253.84807142 -0.2505186 261.1709247 -0.2316373 C264.90494316 -0.22249373 268.63850363 -0.22129334 272.37248611 -0.24199295 C276.4261693 -0.26421568 280.47877807 -0.24745109 284.5324707 -0.22705078 C285.70476142 -0.23956863 286.87705214 -0.25208648 288.08486682 -0.26498365 C295.69644751 -0.18295563 300.98388115 1.39531855 307.45671082 5.39440918 C308.36421082 5.95128418 309.27171082 6.50815918 310.20671082 7.08190918 C316.7098508 13.76569194 319.57684824 20.70845818 319.59093189 29.88697243 C319.59328412 30.54030408 319.59563635 31.19363574 319.59805986 31.86676532 C319.60473922 34.06525644 319.60429196 36.26368831 319.60388184 38.46218872 C319.60718112 40.05068787 319.61090683 41.63918618 319.61502331 43.22768342 C319.62504405 47.60034865 319.62876023 51.97300015 319.63141263 56.34567523 C319.63531545 61.05886592 319.64489379 65.77204574 319.65362549 70.48522949 C319.6733903 81.8711747 319.68345603 93.25712079 319.69235328 104.64307886 C319.69673606 110.00431569 319.70210289 115.36555152 319.70734215 120.72678757 C319.72435428 138.54761106 319.73884869 156.36843393 319.74609089 174.1892643 C319.7480008 178.8141238 319.74992113 183.43898329 319.75187683 188.06384277 C319.75236057 189.21333496 319.75284431 190.36282716 319.75334271 191.54715244 C319.7616439 210.17023596 319.78698239 228.79325527 319.81945751 247.41631074 C319.85252359 266.53403675 319.87053924 285.65173012 319.87373513 304.76948488 C319.87590062 315.50427823 319.88465503 326.23897794 319.9101963 336.97374344 C319.93189709 346.11552268 319.93995675 355.25718553 319.93022952 364.39898761 C319.92568307 369.0625089 319.92759118 373.72579001 319.94699097 378.38927841 C319.96461066 382.66178888 319.96363467 386.93388372 319.94809368 391.20639853 C319.94571579 392.74884743 319.95005056 394.29132501 319.96192233 395.83373006 C320.03547553 406.02430323 318.99223905 413.9871307 313.33171082 422.64440918 C307.38884429 428.3288902 300.61180865 432.50859143 292.27970219 432.53421688 C291.2012768 432.53990812 290.12285141 432.54559936 289.01174647 432.55146307 C287.82247646 432.55264294 286.63320644 432.55382282 285.40789795 432.55503845 C284.14790023 432.56012627 282.88790252 432.56521409 281.58972305 432.57045609 C278.085184 432.58437065 274.58065535 432.59194821 271.0760957 432.59842908 C268.07172133 432.60479838 265.06736405 432.61486882 262.06300033 432.62498974 C252.16252101 432.65832467 242.2620313 432.6798394 232.36151424 432.69818959 C229.78282933 432.70298487 227.20414485 432.70796818 224.62546039 432.71299481 C208.60868865 432.743971 192.59191328 432.77065399 176.57511997 432.7874136 C172.86450761 432.79136305 169.15389531 432.79536604 165.44328308 432.79943848 C164.52103673 432.80044684 163.59879038 432.8014552 162.64859717 432.80249412 C147.7191362 432.81948965 132.78984131 432.86058534 117.86046136 432.91146147 C102.5283007 432.96327963 87.19622534 432.99236157 71.86397785 432.99961048 C63.25736963 433.00426794 54.6510332 433.01896834 46.0445118 433.05935478 C38.71211038 433.09372059 31.38002978 433.10756782 24.04755247 433.09493064 C20.30916784 433.08911859 16.57146111 433.09286321 12.83317947 433.12310028 C8.77111732 433.1556865 4.71052665 433.14126056 0.64837646 433.12266541 C-0.52081705 433.13946033 -1.69001057 433.15625526 -2.89463419 433.17355913 C-11.86808527 433.07125051 -19.66824208 430.63433791 -26.54766744 424.65116018 C-34.29387463 416.52360824 -35.69706616 406.31101688 -35.68373108 395.50048828 C-35.6867022 394.73582198 -35.68967332 393.97115567 -35.69273448 393.18331766 C-35.70136267 390.63713374 -35.70292468 388.09099715 -35.704422 385.5447998 C-35.70905414 383.71278281 -35.71407934 381.88076676 -35.71946716 380.04875183 C-35.73255034 375.083979 -35.73902751 370.11921966 -35.74347782 365.1544323 C-35.74641365 362.05122065 -35.7505193 358.94801266 -35.75498199 355.84480286 C-35.76864286 346.13091535 -35.77831781 336.41703623 -35.78218389 326.70313978 C-35.78666875 315.49726647 -35.80424246 304.29151488 -35.83318448 293.08567858 C-35.85479748 284.41628282 -35.86488788 275.74692133 -35.866225 267.07749891 C-35.86727281 261.9023517 -35.87317617 256.72731913 -35.89104462 251.55220032 C-35.90751983 246.68646562 -35.90968346 241.82093186 -35.90090561 236.95517921 C-35.90013509 235.1713946 -35.90447996 233.38759918 -35.91436386 231.60384178 C-35.92708311 229.16509905 -35.92120712 226.72706821 -35.91078186 224.28833008 C-35.91883826 223.58588748 -35.92689467 222.88344487 -35.93519521 222.15971613 C-35.87888777 216.51161787 -34.62322055 211.78247853 -30.85578918 207.45690918 C-27.43166134 205.88366125 -24.19722341 205.72017132 -20.54328918 206.39440918 C-17.73325458 208.18804829 -16.03388451 209.41321853 -14.54328918 212.39440918 C-14.4400425 214.87229628 -14.39721573 217.32254718 -14.39852905 219.8009491 C-14.39500221 220.57359393 -14.39147536 221.34623877 -14.38784164 222.14229709 C-14.37712072 224.74546476 -14.37346776 227.34859588 -14.3697052 229.95178223 C-14.36340241 231.81261857 -14.35663692 233.67345339 -14.34944153 235.5342865 C-14.33475071 239.54923374 -14.32303433 243.56417507 -14.31349373 247.5791378 C-14.29806494 253.92838155 -14.27411496 260.2775751 -14.24859619 266.62678528 C-14.17733372 284.68430409 -14.11764009 302.74185192 -14.06648254 320.79943848 C-14.03816975 330.76661588 -14.00278117 340.7337436 -13.95982879 350.7008689 C-13.93306372 357.01123592 -13.91515365 363.32154671 -13.90379155 369.63195932 C-13.89465696 373.56233156 -13.87729058 377.49263565 -13.85761261 381.42296791 C-13.85014723 383.24382072 -13.84605666 385.06469102 -13.84561729 386.88555908 C-13.84453179 389.37482448 -13.83125728 391.86374482 -13.81503296 394.35295105 C-13.81764981 395.0704771 -13.82026667 395.78800314 -13.82296282 396.5272724 C-13.77617143 401.13583442 -13.46222326 405.17643718 -11.54328918 409.39440918 C-5.68361578 412.28912904 0.99789111 411.67395768 7.4127655 411.64837646 C8.61437191 411.65149645 9.81597832 411.65461643 11.05399704 411.65783095 C14.37681027 411.66441477 17.69939651 411.6620631 21.02219582 411.65585852 C24.61052343 411.65132662 28.19883145 411.65832144 31.78715515 411.66381836 C38.81174885 411.67270613 45.83629979 411.67079309 52.86089516 411.66499308 C58.57053096 411.66047417 64.28015479 411.65986468 69.98979187 411.66204071 C70.80277858 411.66234718 71.6157653 411.66265364 72.45338798 411.6629694 C74.10501512 411.66360885 75.75664227 411.66425728 77.40826941 411.66491458 C92.8913299 411.67061607 108.3743667 411.66406282 123.85742331 411.65331385 C137.13922892 411.6443785 150.42099958 411.64593059 163.70280457 411.65515137 C179.13090719 411.66585719 194.55898906 411.67006676 209.98709488 411.66392684 C211.6326065 411.66328975 213.27811813 411.66266101 214.92362976 411.66204071 C215.73322828 411.66173216 216.5428268 411.66142361 217.37695861 411.66110571 C223.07896279 411.65937971 228.78095379 411.66229183 234.48295593 411.66699982 C241.43289146 411.67261211 248.38278181 411.67108485 255.33271217 411.66043833 C258.87786978 411.65518632 262.4229521 411.65311684 265.96810913 411.65973663 C269.81233393 411.66680624 273.65643576 411.65835802 277.50065613 411.64837646 C279.17881723 411.65506863 279.17881723 411.65506863 280.89088058 411.66189599 C286.41571612 411.63402168 291.3138918 411.5347069 296.45671082 409.39440918 C297.56535069 406.06848954 297.58205788 403.6035692 297.58255196 400.0990448 C297.5840054 399.45490006 297.58545884 398.81075531 297.58695632 398.14709103 C297.59062555 395.97389179 297.58712563 393.80076228 297.58369446 391.62756348 C297.58484591 390.05968788 297.5864336 388.49181256 297.5884217 386.9239378 C297.5926117 382.60390236 297.5905258 378.2838889 297.58743548 373.96385336 C297.58518028 369.30940696 297.5886616 364.65496444 297.59141541 360.0005188 C297.59587079 350.87786102 297.59489766 341.75521145 297.59200276 332.63255334 C297.58974783 325.22084501 297.5894366 317.80913899 297.59052658 310.39743042 C297.59067981 309.34406579 297.59083305 308.29070115 297.59099092 307.20541638 C297.59131064 305.06577818 297.59163485 302.92613997 297.59196351 300.78650177 C297.59481763 280.70538523 297.59153236 260.62427325 297.58616315 240.54315746 C297.58169517 223.29858544 297.58247112 206.05402014 297.58708191 188.80944824 C297.59242888 168.80202657 297.59454294 148.79460891 297.59146965 128.78718662 C297.59115108 126.65525373 297.59083671 124.52332083 297.59052658 122.39138794 C297.59037231 121.34233314 297.59021803 120.29327834 297.59005908 119.21243399 C297.58919429 111.80640644 297.59065598 104.40038141 297.59300613 96.99435425 C297.59580569 87.97351728 297.59506256 78.95268902 297.58972539 69.93185306 C297.58709049 65.32599963 297.58607976 60.72016074 297.58937454 56.1143074 C297.59234182 51.9026974 297.59073741 47.69111548 297.58539699 43.47950804 C297.58427466 41.95129093 297.58485994 40.42307148 297.58727278 38.89485586 C297.5902894 36.82646079 297.58721905 34.75816343 297.58255196 32.68977356 C297.5823896 31.53818913 297.58222725 30.38660471 297.58205998 29.20012379 C297.58120941 26.31195304 297.58120941 26.31195304 296.45671082 23.39440918 C290.30688164 20.83502194 284.07401866 21.11422866 277.50065613 21.14044189 C276.29904972 21.13732191 275.09744331 21.13420193 273.85942459 21.13098741 C270.53661136 21.12440359 267.21402512 21.12675526 263.89122581 21.13295984 C260.3028982 21.13749174 256.71459018 21.13049691 253.12626648 21.125 C246.10167278 21.11611223 239.07712184 21.11802526 232.05252647 21.12382528 C226.34289067 21.12834419 220.63326684 21.12895368 214.92362976 21.12677765 C214.11064305 21.12647118 213.29765633 21.12616472 212.46003366 21.12584896 C210.80840651 21.12520951 209.15677937 21.12456108 207.50515223 21.12390378 C192.02209173 21.11820229 176.53905493 21.12475554 161.05599833 21.13550451 C147.77419271 21.14443986 134.49242205 21.14288777 121.21061707 21.13366699 C105.78251444 21.12296117 90.35443257 21.1187516 74.92632675 21.12489152 C73.28081513 21.12552861 71.6353035 21.12615735 69.98979187 21.12677765 C69.18019335 21.1270862 68.37059483 21.12739475 67.53646302 21.12771265 C61.83445884 21.12943865 56.13246784 21.12652653 50.4304657 21.12181854 C43.48053017 21.11620625 36.53063982 21.11773351 29.58070946 21.12838003 C26.03555185 21.13363204 22.49046953 21.13570152 18.9453125 21.12908173 C15.1010877 21.12201212 11.25698587 21.13046034 7.4127655 21.14044189 C6.29399143 21.13598045 5.17521736 21.13151901 4.02254105 21.12692237 C-1.51046655 21.15483791 -6.38732348 21.27239161 -11.54328918 23.39440918 C-14.19893294 28.93221561 -13.81838478 34.88514748 -13.78279114 40.93200684 C-13.7848053 41.96862961 -13.78681946 43.00525238 -13.78889465 44.07328796 C-13.79242907 46.31474161 -13.79168679 48.55620524 -13.78711891 50.79765701 C-13.78151266 54.34502888 -13.79070481 57.89207541 -13.80432129 61.43942261 C-13.84140445 71.52176428 -13.8599609 81.60399336 -13.84870911 91.68640137 C-13.84286377 97.86082504 -13.86108607 104.03478813 -13.89459801 110.20911789 C-13.90255806 112.5606495 -13.90126693 114.91223122 -13.8905735 117.26375198 C-13.87627399 120.54821328 -13.89248806 123.83121999 -13.91560364 127.11560059 C-13.89795204 128.57293358 -13.89795204 128.57293358 -13.87994385 130.05970764 C-13.94383075 134.68263322 -14.03313936 136.73056207 -16.92626953 140.49533081 C-20.55068028 143.12543718 -22.81895149 143.10678248 -27.16438293 142.88659668 C-30.84429845 142.12523485 -32.42174174 140.40563781 -34.54328918 137.39440918 C-35.45631318 134.56438025 -35.67038343 131.99547584 -35.67700195 129.03244019 C-35.68126694 128.16632111 -35.68553192 127.30020203 -35.68992615 126.40783691 C-35.68947296 125.46545166 -35.68901978 124.52306641 -35.68855286 123.55212402 C-35.69191147 122.55323151 -35.69527008 121.55433899 -35.69873047 120.525177 C-35.70823863 117.21855427 -35.7101838 113.91198223 -35.71125793 110.60534668 C-35.71447161 108.303314 -35.71783577 106.00128152 -35.72134399 103.69924927 C-35.72733564 98.86895271 -35.72918396 94.03867404 -35.72859192 89.20837402 C-35.72849053 83.03494266 -35.74211902 76.8616269 -35.75936413 70.68822289 C-35.77051525 65.93026204 -35.77251014 61.17232881 -35.77198219 56.41435623 C-35.77315853 54.13950834 -35.77756076 51.86465965 -35.78531456 49.58982468 C-35.79517316 46.39748957 -35.7922128 43.20540108 -35.78620911 40.01306152 C-35.79182861 39.08282166 -35.79744812 38.15258179 -35.80323792 37.19415283 C-35.75347211 26.71728528 -34.11345282 17.79203554 -27.54328918 9.39440918 C-19.21467195 1.36987939 -11.20478451 -0.05063539 0 0 Z " fill="#000000" transform="translate(73.54328918457031,-0.3944091796875)"/>
<path d="M0 0 C3.67991552 0.76136183 5.25735881 2.48095887 7.37890625 5.4921875 C8.60223478 9.00077746 8.50535616 12.41947691 8.5075407 16.10968971 C8.50929374 16.77652836 8.51104678 17.443367 8.51285294 18.13041288 C8.51752132 20.37485518 8.51504527 22.61923294 8.51261902 24.86367798 C8.51448658 26.48517516 8.51678706 28.10667188 8.51948434 29.72816789 C8.52561576 34.19204956 8.52546717 38.65591254 8.52428997 43.11979747 C8.52408629 47.9311456 8.5296016 52.74248768 8.53434753 57.55383301 C8.54266252 66.98417341 8.54540278 76.41450757 8.54595991 85.84485133 C8.54643477 93.51057577 8.54848801 101.17629815 8.55166054 108.84202194 C8.56047024 130.57071996 8.56507954 152.29941303 8.56433006 174.02811284 C8.56427013 175.78609396 8.56427013 175.78609396 8.56420898 177.57958984 C8.5641681 178.75300695 8.56412722 179.92642406 8.5640851 181.13539927 C8.56367878 200.14645214 8.57324415 219.15748519 8.58734735 238.16853233 C8.6017106 257.68402282 8.60861753 277.19950364 8.60775357 296.71499956 C8.60742154 307.67332634 8.61017147 318.63163235 8.62093163 329.58995438 C8.63003605 338.92202022 8.63221242 348.25405589 8.6254222 357.58612426 C8.62215642 362.34678845 8.62210239 367.10739475 8.63077545 371.86805344 C8.63863899 376.22928256 8.63721047 380.59040787 8.62849132 384.95163445 C8.62695599 386.52638002 8.62877374 388.10113334 8.6343514 389.67586978 C8.67594305 402.25523832 8.39935958 413.2408796 0.37890625 423.4921875 C-8.17088103 431.72981216 -16.35354279 432.93562771 -27.84341431 432.88659668 C-29.1947071 432.89148921 -30.54599571 432.8976807 -31.89727724 432.90505457 C-35.60018657 432.92143054 -39.30288266 432.91914104 -43.00581551 432.9136796 C-47.00312528 432.91100661 -51.00037856 432.92554595 -54.99766541 432.93777466 C-62.82370625 432.95881701 -70.64967299 432.96337029 -78.47573878 432.96158677 C-84.8351877 432.96027895 -91.1946135 432.96408428 -97.55405807 432.97151184 C-99.38608467 432.97361102 -101.21811127 432.97570862 -103.05013788 432.97780466 C-103.96197443 432.97884819 -104.87381099 432.97989172 -105.81327896 432.98096687 C-123.05267876 432.99986319 -140.29203599 432.99882042 -157.53144185 432.99199754 C-173.30924351 432.98641809 -189.086883 433.0072657 -204.86464675 433.04035801 C-221.06363426 433.07407042 -237.26254402 433.0892667 -253.46156728 433.08464098 C-262.55688269 433.08239438 -271.65204806 433.08766777 -280.74733353 433.11253357 C-288.48753032 433.13351467 -296.22749474 433.13717019 -303.96770097 433.11823398 C-307.91779448 433.10905767 -311.86745435 433.10799061 -315.81751442 433.12858963 C-319.43226335 433.14723204 -323.04622144 433.14287339 -326.66093962 433.12004381 C-328.59054955 433.11384718 -330.52018976 433.13230383 -332.44971335 433.15158033 C-341.78687979 433.05528648 -341.78687979 433.05528648 -344.89011192 430.10959625 C-346.75720344 427.28637674 -347.29853298 425.84829842 -347.24609375 422.4921875 C-347.25898438 421.6671875 -347.271875 420.8421875 -347.28515625 419.9921875 C-346.55509269 417.24371293 -345.55268474 415.52224172 -343.48534083 413.55912626 C-339.17945105 411.09479589 -333.76879104 411.8189997 -328.95645142 411.8664093 C-327.00347187 411.85599248 -327.00347187 411.85599248 -325.01103818 411.84536523 C-321.39851736 411.82673262 -317.78666736 411.83917634 -314.17416525 411.8566345 C-310.27765757 411.87000477 -306.38125345 411.85452855 -302.48475647 411.84246826 C-295.73274127 411.82543627 -288.98092227 411.82644825 -282.22890091 411.83947182 C-272.45901014 411.85811477 -262.68932279 411.84733375 -252.91943948 411.82899525 C-237.05858444 411.79983805 -221.19779234 411.79149403 -205.33691406 411.79760742 C-189.94660729 411.80346812 -174.55632167 411.80454487 -159.16601562 411.7956543 C-158.21843548 411.79511173 -157.27085533 411.79456915 -156.29456063 411.79401014 C-145.94861505 411.7878431 -135.60267481 411.77910723 -125.25673485 411.76665783 C-124.34727533 411.76556534 -123.43781581 411.76447286 -122.50079691 411.76334726 C-118.86494886 411.75892786 -115.22910094 411.75445393 -111.59325342 411.74962165 C-100.94957953 411.73550099 -90.30597688 411.72947447 -79.66229592 411.73815753 C-72.98481369 411.74334118 -66.30735504 411.74196906 -59.62987401 411.73545448 C-55.77688836 411.73200749 -51.92397611 411.73195448 -48.07099724 411.7406826 C-43.8938476 411.75012092 -39.71685729 411.74426282 -35.53970337 411.73701477 C-34.32229135 411.7423601 -33.10487933 411.74770544 -31.85057604 411.75321275 C-23.47010235 411.89949475 -23.47010235 411.89949475 -15.62109375 409.4921875 C-13.86710401 404.73410856 -13.37153224 400.48863421 -13.37334728 395.44472313 C-13.3708492 394.76785985 -13.36835112 394.09099657 -13.36577734 393.39362228 C-13.35983702 391.13311678 -13.36808302 388.87289138 -13.37626648 386.61239624 C-13.37484348 384.97237159 -13.37253003 383.33234752 -13.36940414 381.69232523 C-13.3633089 377.19133738 -13.36954186 372.69043789 -13.37771475 368.18945646 C-13.38430716 363.33326605 -13.37929428 358.47708682 -13.37548828 353.62089539 C-13.37026713 345.20796307 -13.37175804 336.79505379 -13.37726402 328.38212204 C-13.38547659 315.08941514 -13.37425045 301.79675795 -13.36006165 288.50405884 C-13.35546074 283.95632755 -13.35101038 279.40859613 -13.34662342 274.86086464 C-13.34552528 273.7244219 -13.34442714 272.58797915 -13.34329572 271.41709875 C-13.33112511 258.48542455 -13.32357017 245.55374875 -13.31762695 232.62207031 C-13.31707889 231.44006631 -13.31653083 230.25806231 -13.31596617 229.04024 C-13.30749924 209.86757401 -13.31084907 190.69492203 -13.3167813 171.52225594 C-13.32239322 151.84281341 -13.30889361 132.16344171 -13.27922851 112.48402083 C-13.26166353 100.34174723 -13.26008197 88.1996781 -13.27887366 76.05740537 C-13.29045454 67.74278308 -13.28407267 59.42829915 -13.26340445 51.11369489 C-13.25205372 46.31302151 -13.24897703 41.5127043 -13.26758003 36.71204567 C-13.28444217 32.32016129 -13.27846767 27.92893119 -13.25408147 23.53708763 C-13.24933869 21.94569959 -13.25310981 20.35425948 -13.26610693 18.76291744 C-13.28252699 16.60380272 -13.26833449 14.44698512 -13.24636364 12.28796959 C-13.24628112 10.4875216 -13.24628112 10.4875216 -13.24619693 8.65070093 C-11.77889558 1.23673921 -6.71921937 -0.34046715 0 0 Z " fill="#000000" transform="translate(465.62109375,79.5078125)"/>
<path d="M0 0 C0.825 -0.01289062 1.65 -0.02578125 2.5 -0.0390625 C6.14903201 0.93021163 7.61741921 2.73564323 10 5.625 C10.62789649 8.82905632 10.62789649 8.82905632 10.63199902 12.53175449 C10.63956582 13.2177199 10.64713262 13.90368531 10.65492871 14.61043754 C10.67421532 16.91446743 10.65782924 19.2168554 10.64164734 21.52088928 C10.64812338 23.18720596 10.65677631 24.85351536 10.66742164 26.51981062 C10.69027938 31.10314685 10.68183496 35.6859767 10.66828239 40.26933038 C10.65904537 45.21093847 10.67850626 50.15244463 10.69425964 55.09402466 C10.72038298 64.77828754 10.7192477 74.46236499 10.70822146 84.14664973 C10.69966895 92.01972975 10.70048917 99.89275605 10.70801735 107.76583672 C10.70907224 108.88571589 10.71012713 110.00559507 10.71121398 111.15940998 C10.71338489 113.43439855 10.71557167 115.70938711 10.71777413 117.98437565 C10.73721804 139.33291418 10.72519442 160.6813487 10.70298818 182.02987873 C10.68475249 200.339899 10.69561723 218.64971748 10.72729492 236.9597168 C10.76407501 258.22015689 10.78107173 279.48047092 10.76788265 300.7409429 C10.76654155 303.00977955 10.76523257 305.27861623 10.76395607 307.54745293 C10.76301007 309.22190469 10.76301007 309.22190469 10.76204496 310.93018376 C10.75901961 318.78839988 10.77027025 326.64652085 10.78720665 334.50471687 C10.80755304 344.08968262 10.8066299 353.67436392 10.77857425 363.2593149 C10.76481953 368.14797614 10.76057856 373.03614118 10.78252411 377.92478371 C10.80237172 382.40541774 10.79423265 386.88512045 10.76432977 391.36569064 C10.7583505 392.98148604 10.76235848 394.59735792 10.777693 396.21309162 C10.87189443 406.92451919 9.62918057 416.19753374 2.25685614 424.61534268 C-6.86380716 433.38905297 -18.35749106 433.77528642 -30.27270508 433.76544189 C-31.40080754 433.76841302 -32.52891001 433.77138414 -33.6911974 433.7744453 C-37.46731623 433.78310977 -41.24340327 433.78463862 -45.01953125 433.78613281 C-47.72838527 433.79022656 -50.43723598 433.79576689 -53.14608765 433.80117798 C-60.50127882 433.81472934 -67.85646453 433.82078033 -75.21166611 433.82518864 C-79.80571355 433.82795509 -84.3997589 433.83219304 -88.99380493 433.83669281 C-101.7192115 433.84887868 -114.44461641 433.85918104 -127.17002869 433.8625679 C-127.98358261 433.86278747 -128.79713654 433.86300703 -129.63534361 433.86323325 C-130.8585347 433.86356067 -130.8585347 433.86356067 -132.10643673 433.8638947 C-133.75878334 433.86433816 -135.41112995 433.86478473 -137.06347656 433.86523438 C-137.88309156 433.8654558 -138.70270655 433.86567723 -139.54715836 433.86590537 C-152.83718807 433.86985611 -166.12716304 433.88732158 -179.4171716 433.9105939 C-193.069109 433.9343068 -206.72101892 433.94676963 -220.37297726 433.94793582 C-228.03527246 433.94885233 -235.69749622 433.95459919 -243.35977173 433.97275543 C-249.88152246 433.98815522 -256.40317965 433.99327742 -262.92494512 433.98501733 C-266.25146177 433.98111103 -269.57763685 433.98367184 -272.90415573 433.99607468 C-276.51203168 434.00873894 -280.11942264 434.00294701 -283.72729492 433.99249268 C-284.77603192 434.00054908 -285.82476892 434.00860548 -286.90528584 434.01690602 C-292.69722481 433.97759964 -296.92579956 433.51707155 -302 430.625 C-304.10062755 427.47405867 -304.34313286 426.4025634 -304.4375 422.75 C-304.47746094 421.90695312 -304.51742187 421.06390625 -304.55859375 420.1953125 C-303.70646176 416.27431357 -302.20682371 415.03739801 -299 412.625 C-295.28980077 411.87670284 -291.62807399 411.95661258 -287.85391235 411.9992218 C-286.14594595 411.98880498 -286.14594595 411.98880498 -284.40347517 411.97817773 C-280.57935585 411.96088313 -276.75623261 411.97924247 -272.93212891 411.99731445 C-270.19399635 411.99492351 -267.45590386 411.98497433 -264.7177887 411.97528076 C-258.81700133 411.95825429 -252.91643848 411.95925704 -247.01564407 411.97228432 C-238.47650683 411.99093446 -229.93760217 411.98014147 -221.39847343 411.96180775 C-207.5341885 411.93265495 -193.66997556 411.92430563 -179.80566406 411.93041992 C-166.3554604 411.93628027 -152.90528095 411.93735765 -139.45507812 411.9284668 C-138.6269778 411.92792423 -137.79887747 411.92738165 -136.9456832 411.92682264 C-127.90289888 411.92065472 -118.86012066 411.91191726 -109.81734276 411.89947033 C-109.02227534 411.89837784 -108.22720792 411.89728536 -107.40804755 411.89615976 C-104.22937544 411.89174022 -101.05070348 411.88726623 -97.87203197 411.88243415 C-88.56967012 411.86831865 -79.26738974 411.86228305 -69.96501981 411.87097003 C-64.12852772 411.87615627 -58.29206261 411.87477856 -52.4555719 411.86826698 C-49.08862708 411.86482227 -45.72183527 411.86587144 -42.35488701 411.8734951 C-38.70320614 411.88136708 -35.05173248 411.87707 -31.40005493 411.86982727 C-30.33828085 411.8751726 -29.27650676 411.88051794 -28.1825577 411.88602525 C-20.34795471 411.93133959 -20.34795471 411.93133959 -13 409.625 C-11.23817677 404.86997376 -10.75043882 400.6205513 -10.75225353 395.57753563 C-10.74975545 394.90067235 -10.74725737 394.22380907 -10.74468359 393.52643478 C-10.73874327 391.26592928 -10.74698927 389.00570388 -10.75517273 386.74520874 C-10.75374973 385.10518409 -10.75143628 383.46516002 -10.74831039 381.82513773 C-10.74221515 377.32414988 -10.74844811 372.82325039 -10.756621 368.32226896 C-10.76321341 363.46607855 -10.75820053 358.60989932 -10.75439453 353.75370789 C-10.74917338 345.34077557 -10.75066429 336.92786629 -10.75617027 328.51493454 C-10.76438284 315.22222764 -10.7531567 301.92957045 -10.7389679 288.63687134 C-10.73436699 284.08914005 -10.72991663 279.54140863 -10.72552967 274.99367714 C-10.72443153 273.8572344 -10.72333339 272.72079165 -10.72220197 271.54991125 C-10.71003136 258.61823705 -10.70247642 245.68656125 -10.6965332 232.75488281 C-10.69598514 231.57287881 -10.69543708 230.39087481 -10.69487242 229.1730525 C-10.68640549 210.00038651 -10.68975532 190.82773453 -10.69568755 171.65506844 C-10.70129947 151.97562591 -10.68779986 132.29625421 -10.65813476 112.61683333 C-10.64056978 100.47455973 -10.63898822 88.3324906 -10.65777991 76.19021787 C-10.66936079 67.87559558 -10.66297892 59.56111165 -10.6423107 51.24650739 C-10.63095997 46.44583401 -10.62788328 41.6455168 -10.64648628 36.84485817 C-10.66334842 32.45297379 -10.65737392 28.06174369 -10.63298772 23.66990013 C-10.62824494 22.07851209 -10.63201606 20.48707198 -10.64501318 18.89572994 C-10.66143324 16.73661522 -10.64724074 14.57979762 -10.62526989 12.42078209 C-10.62518737 10.6203341 -10.62518737 10.6203341 -10.62510318 8.78351343 C-9.49841412 3.09059319 -5.78174719 -0.0903398 0 0 Z " fill="#000000" transform="translate(423,39.375)"/>
<path d="M0 0 C1.33319778 -0.01496269 1.33319778 -0.01496269 2.69332886 -0.03022766 C4.1521347 -0.03122467 4.1521347 -0.03122467 5.64041138 -0.03224182 C7.17983902 -0.0447271 7.17983902 -0.0447271 8.75036621 -0.0574646 C12.15141567 -0.08160914 15.55227352 -0.09034208 18.95339966 -0.09693909 C21.31368061 -0.10590176 23.67396097 -0.11502354 26.03424072 -0.1242981 C30.98566063 -0.14080259 35.9370128 -0.14849092 40.88845825 -0.15138245 C47.23639068 -0.15676877 53.58368752 -0.19445372 59.93144035 -0.24012661 C64.80760021 -0.26985289 69.68360618 -0.27710504 74.55984879 -0.2781086 C76.90025876 -0.2823194 79.24066884 -0.29478793 81.58098984 -0.31562614 C84.85387814 -0.34244843 88.1252822 -0.33774156 91.39822388 -0.32521057 C92.36671265 -0.34004486 93.33520142 -0.35487915 94.33303833 -0.37016296 C98.62137601 -0.32335169 101.03564438 -0.10133034 104.74893188 2.17294312 C107.47834256 6.6284478 107.34953502 10.35672051 107.29568481 15.49290466 C107.30444641 16.51948181 107.31320801 17.54605896 107.32223511 18.60374451 C107.34422671 21.99431222 107.32967617 25.38357388 107.31277466 28.77415466 C107.31614283 31.13157908 107.32099546 33.48900181 107.32727051 35.84642029 C107.33464156 40.78604167 107.32392815 45.72521085 107.30056763 50.66477966 C107.27208053 56.99705499 107.28848314 63.32827075 107.31842995 69.6605072 C107.33649614 74.52814215 107.33074783 79.39552582 107.31779099 84.26316833 C107.31445514 86.59796779 107.31855027 88.93279004 107.33018875 91.26756287 C107.3428855 94.53079165 107.32353462 97.79230378 107.29568481 101.05540466 C107.31086655 102.50342468 107.31086655 102.50342468 107.32635498 103.98069763 C107.25872843 108.25701405 107.01838304 110.67190974 104.74694824 114.37239075 C100.29379769 117.10583029 96.56591749 116.97497512 91.42996216 116.92112732 C90.40338501 116.92988892 89.37680786 116.93865051 88.31912231 116.94767761 C84.9285546 116.96966922 81.53929294 116.95511868 78.14871216 116.93821716 C75.79128774 116.94158534 73.43386501 116.94643796 71.07644653 116.95271301 C66.13682515 116.96008407 61.19765597 116.94937065 56.25808716 116.92601013 C49.92581183 116.89752303 43.59459607 116.91392564 37.26235962 116.94387245 C32.39472467 116.96193864 27.527341 116.95619033 22.65969849 116.94323349 C20.32489903 116.93989764 17.99007678 116.94399278 15.65530396 116.95563126 C12.39207517 116.968328 9.13056304 116.94897712 5.86746216 116.92112732 C4.41944214 116.93630905 4.41944214 116.93630905 2.94216919 116.95179749 C-1.59394193 116.88006249 -3.69924539 116.75964814 -7.42745972 113.98371887 C-10.00208257 110.35756026 -10.47337639 107.49982982 -10.49172974 103.11978149 C-10.49743988 102.29981186 -10.50315002 101.47984222 -10.5090332 100.63502502 C-10.51015106 99.74403107 -10.51126892 98.85303711 -10.51242065 97.93504333 C-10.51738556 96.98985336 -10.52235046 96.04466339 -10.52746582 95.0708313 C-10.54206822 91.94458792 -10.54888621 88.81839529 -10.55441284 85.69212341 C-10.56016581 83.51742552 -10.56592353 81.34272765 -10.57168579 79.16802979 C-10.58219026 74.60761784 -10.58803658 70.04722349 -10.59152222 65.48680115 C-10.59700618 59.64932048 -10.62103464 53.81207315 -10.64949417 47.97466564 C-10.66813703 43.4818962 -10.67332703 38.98918279 -10.67485809 34.49637794 C-10.67788134 32.34464047 -10.68589877 30.1929039 -10.69904327 28.04120445 C-10.71613818 25.02777325 -10.71421498 22.01490989 -10.70773315 19.00144958 C-10.71694794 18.11652832 -10.72616272 17.23160706 -10.73565674 16.31987 C-10.69916998 10.89234942 -9.99101013 7.05679485 -7.35128784 2.27415466 C-4.23577931 0.19714897 -3.53820059 0.02130241 0 0 Z M10.64871216 20.27415466 C10.64871216 45.35415466 10.64871216 70.43415466 10.64871216 96.27415466 C35.39871216 96.27415466 60.14871216 96.27415466 85.64871216 96.27415466 C85.64871216 71.19415466 85.64871216 46.11415466 85.64871216 20.27415466 C60.89871216 20.27415466 36.14871216 20.27415466 10.64871216 20.27415466 Z " fill="#000000" transform="translate(104.35128784179688,73.72584533691406)"/>
<path d="M0 0 C1.0570816 -0.00852997 2.11416321 -0.01705994 3.20327759 -0.02584839 C4.36282959 -0.02494202 5.52238159 -0.02403564 6.71707153 -0.02310181 C7.93842804 -0.02981903 9.15978455 -0.03653625 10.41815186 -0.04345703 C13.76951864 -0.05921754 17.12063763 -0.06581309 20.47202444 -0.0670886 C23.27019426 -0.0689878 26.06834031 -0.07634563 28.86650097 -0.08343279 C35.46904716 -0.09972078 42.07153881 -0.1046014 48.67410278 -0.10317993 C55.4832606 -0.10197859 62.29210141 -0.12307765 69.101179 -0.15466726 C74.94841816 -0.18082713 80.79555377 -0.19154735 86.642851 -0.19026911 C90.134612 -0.18975935 93.62609135 -0.19544956 97.11779404 -0.21662521 C101.01299144 -0.23960261 104.90775488 -0.23048839 108.80300903 -0.21841431 C109.95851257 -0.22965332 111.11401611 -0.24089233 112.30453491 -0.25247192 C120.11403709 -0.19082478 120.11403709 -0.19082478 124.09405518 2.16131592 C127.02031728 5.59403212 127.17218782 8.86904539 126.88943481 13.26742554 C125.32762162 16.93768653 124.23032886 18.04016284 120.88943481 20.26742554 C118.56646919 20.52748775 118.56646919 20.52748775 115.77886963 20.5415802 C114.72178802 20.55155533 113.66470642 20.56153046 112.57559204 20.57180786 C111.41604004 20.57247253 110.25648804 20.57313721 109.0617981 20.57382202 C107.84044159 20.58214554 106.61908508 20.59046906 105.36071777 20.5990448 C102.00935684 20.61903434 98.65824454 20.6297895 95.30684519 20.63487124 C93.21274006 20.63851408 91.11865885 20.64475375 89.02456284 20.65187263 C81.71795349 20.67636956 74.41141516 20.68941951 67.10476685 20.69296265 C60.29554528 20.69659803 53.48677443 20.72649243 46.67769063 20.76836723 C40.83045092 20.8030653 34.98336061 20.818511 29.13601863 20.81920868 C25.64418246 20.82000169 22.15280534 20.82875001 18.66107559 20.85720634 C14.76582658 20.88824119 10.87122499 20.8793296 6.9758606 20.86679077 C5.82035706 20.88162506 4.66485352 20.89645935 3.47433472 20.91174316 C-4.33519167 20.83999395 -4.33519167 20.83999395 -8.3034668 17.90965271 C-10.44030912 14.78529442 -11.11056519 13.05940627 -11.11056519 9.26742554 C-8.93020302 2.72633903 -7.0123269 0.02554944 0 0 Z " fill="#000000" transform="translate(216.11056518554688,324.7325744628906)"/>
<path d="M0 0 C1.0570816 -0.00852997 2.11416321 -0.01705994 3.20327759 -0.02584839 C4.36282959 -0.02494202 5.52238159 -0.02403564 6.71707153 -0.02310181 C7.93842804 -0.02981903 9.15978455 -0.03653625 10.41815186 -0.04345703 C13.76951864 -0.05921754 17.12063763 -0.06581309 20.47202444 -0.0670886 C23.27019426 -0.0689878 26.06834031 -0.07634563 28.86650097 -0.08343279 C35.46904716 -0.09972078 42.07153881 -0.1046014 48.67410278 -0.10317993 C55.4832606 -0.10197859 62.29210141 -0.12307765 69.101179 -0.15466726 C74.94841816 -0.18082713 80.79555377 -0.19154735 86.642851 -0.19026911 C90.134612 -0.18975935 93.62609135 -0.19544956 97.11779404 -0.21662521 C101.01299144 -0.23960261 104.90775488 -0.23048839 108.80300903 -0.21841431 C109.95851257 -0.22965332 111.11401611 -0.24089233 112.30453491 -0.25247192 C120.11403709 -0.19082478 120.11403709 -0.19082478 124.09405518 2.16131592 C127.02031728 5.59403212 127.17218782 8.86904539 126.88943481 13.26742554 C125.32762162 16.93768653 124.23032886 18.04016284 120.88943481 20.26742554 C118.56646919 20.52748775 118.56646919 20.52748775 115.77886963 20.5415802 C114.72178802 20.55155533 113.66470642 20.56153046 112.57559204 20.57180786 C111.41604004 20.57247253 110.25648804 20.57313721 109.0617981 20.57382202 C107.84044159 20.58214554 106.61908508 20.59046906 105.36071777 20.5990448 C102.00935684 20.61903434 98.65824454 20.6297895 95.30684519 20.63487124 C93.21274006 20.63851408 91.11865885 20.64475375 89.02456284 20.65187263 C81.71795349 20.67636956 74.41141516 20.68941951 67.10476685 20.69296265 C60.29554528 20.69659803 53.48677443 20.72649243 46.67769063 20.76836723 C40.83045092 20.8030653 34.98336061 20.818511 29.13601863 20.81920868 C25.64418246 20.82000169 22.15280534 20.82875001 18.66107559 20.85720634 C14.76582658 20.88824119 10.87122499 20.8793296 6.9758606 20.86679077 C5.82035706 20.88162506 4.66485352 20.89645935 3.47433472 20.91174316 C-4.33519167 20.83999395 -4.33519167 20.83999395 -8.3034668 17.90965271 C-10.44030912 14.78529442 -11.11056519 13.05940627 -11.11056519 9.26742554 C-8.93020302 2.72633903 -7.0123269 0.02554944 0 0 Z " fill="#000000" transform="translate(216.11056518554688,248.73257446289063)"/>
<path d="M0 0 C2.44597914 1.90242822 3.35040209 2.80586139 4.25 5.75 C4.8785872 11.40728481 3.6688881 14.4149015 0.25 18.75 C-2.04497422 21.33150151 -4.45661244 23.78429575 -6.89453125 26.23046875 C-7.58254318 26.92513748 -8.27055511 27.61980621 -8.97941589 28.33552551 C-10.43001462 29.7962089 -11.88330031 31.25422825 -13.33911133 32.7097168 C-15.55553948 34.93052572 -17.75546902 37.16684398 -19.95507812 39.40429688 C-21.37141349 40.8264998 -22.78870008 42.24775619 -24.20703125 43.66796875 C-24.85831497 44.3336235 -25.50959869 44.99927826 -26.18061829 45.68510437 C-30.12763893 49.59340357 -33.42696692 52.05312043 -38.75 53.75 C-45.44447304 53.01969385 -49.1331549 49.25350193 -53.75 44.75 C-54.52996338 44.0065332 -54.52996338 44.0065332 -55.32568359 43.24804688 C-57.08210558 41.57202976 -58.82415744 39.88225154 -60.5625 38.1875 C-61.12598145 37.64569092 -61.68946289 37.10388184 -62.27001953 36.5456543 C-65.61309319 33.22820383 -67.99112168 30.20582507 -69.75 25.75 C-69.75 21.37433957 -69.22084778 19.36882851 -66.5625 15.875 C-63.40147397 13.48666922 -61.68946858 12.83207226 -57.75 12.75 C-52.73766658 14.09060706 -49.90980036 17.23815564 -46.4375 20.875 C-45.61282227 21.71998047 -45.61282227 21.71998047 -44.77148438 22.58203125 C-43.42404562 23.96462058 -42.08605727 25.35640916 -40.75 26.75 C-36.66989681 25.13775503 -33.98787213 22.20895325 -30.99609375 19.12109375 C-30.45396744 18.5713942 -29.91184113 18.02169464 -29.35328674 17.45533752 C-27.62645501 15.70413189 -25.90623659 13.94664916 -24.1875 12.1875 C-21.92109884 9.86797265 -19.64822043 7.55508702 -17.37109375 5.24609375 C-16.85228134 4.71068466 -16.33346893 4.17527557 -15.79893494 3.62364197 C-11.05329481 -1.18632521 -6.43735655 -2.92607116 0 0 Z " fill="#000000" transform="translate(167.75,233.25)"/>
<path d="M0 0 C3.18057478 2.77280878 3.90337353 4.56146447 4.8125 8.6875 C4.57412331 12.65693034 3.01350027 14.49996791 0.34375 17.36328125 C-0.47182373 18.23831299 -1.28739746 19.11334473 -2.12768555 20.01489258 C-7.16363859 25.27398487 -12.27314951 30.4591233 -17.42211914 35.60742188 C-19.33182988 37.51935235 -21.23335135 39.43919757 -23.13476562 41.359375 C-24.35628243 42.58382076 -25.57827033 43.80779678 -26.80078125 45.03125 C-27.36436844 45.60202271 -27.92795563 46.17279541 -28.50862122 46.76086426 C-32.15898831 50.39009016 -34.74607199 52.70600939 -39.875 53.375 C-47.76833603 52.42779968 -53.43191346 44.90082279 -58.75 39.5625 C-60.04357422 38.2930957 -60.04357422 38.2930957 -61.36328125 36.99804688 C-62.18699219 36.17498047 -63.01070313 35.35191406 -63.859375 34.50390625 C-64.60670898 33.75955322 -65.35404297 33.0152002 -66.12402344 32.24829102 C-69.06982019 28.71785865 -70.01944046 26.08866559 -69.9375 21.5 C-68.77422053 17.15708998 -67.71020082 15.55076306 -64 13 C-60.79037838 12.13798734 -58.21385632 12.15085402 -55 13 C-51.9203027 14.95980737 -49.50892067 17.36484433 -47 20 C-45.83379959 21.14630787 -44.66717899 22.29218854 -43.5 23.4375 C-42.675 24.283125 -41.85 25.12875 -41 26 C-37.03590687 24.41482898 -34.46098109 21.65184043 -31.5703125 18.625 C-30.51720707 17.54660151 -29.46381263 16.46848519 -28.41015625 15.390625 C-26.76499854 13.69588182 -25.12320683 11.99813361 -23.48681641 10.29492188 C-21.89856623 8.64600771 -20.29789457 7.00997172 -18.6953125 5.375 C-17.97313034 4.61243896 -17.97313034 4.61243896 -17.23635864 3.83447266 C-11.8162481 -1.66404457 -7.17968864 -3.05801553 0 0 Z " fill="#000000" transform="translate(168,310)"/>
<path d="M0 0 C1.15903839 -0.01248528 1.15903839 -0.01248528 2.3414917 -0.02522278 C4.89844792 -0.04933813 7.45514912 -0.05809668 10.01220703 -0.06469727 C11.78956174 -0.07366245 13.56691566 -0.08278427 15.3442688 -0.09205627 C19.07165359 -0.108553 22.79894849 -0.11624762 26.52636719 -0.11914062 C31.30050133 -0.12452514 36.07378961 -0.16220462 40.84768486 -0.20788479 C44.51945066 -0.23764107 48.19101243 -0.24486387 51.86288834 -0.24586678 C53.62276204 -0.25007196 55.38263618 -0.26251826 57.1423912 -0.28338432 C59.60597502 -0.31027026 62.06759393 -0.30548297 64.53125 -0.29296875 C65.25661957 -0.30780304 65.98198914 -0.32263733 66.7293396 -0.33792114 C70.63634881 -0.28146366 72.26445291 0.20100377 75.34500122 2.68760681 C77.57304156 5.53381018 78.0756417 6.74657769 78.02001953 10.30639648 C78.03935547 11.54389648 78.03935547 11.54389648 78.05908203 12.80639648 C77.08127907 16.48753705 75.33812323 17.92616899 72.39501953 20.30639648 C69.5807652 20.80208359 67.37058523 20.99271426 64.56298828 20.95336914 C63.79000397 20.96213074 63.01701965 20.97089233 62.22061157 20.97991943 C59.6740042 21.00186614 57.1291435 20.9873789 54.58251953 20.97045898 C52.80802071 20.97382851 51.03352414 20.97868227 49.2590332 20.98495483 C45.54339586 20.99231971 41.82836026 20.98163341 38.11279297 20.95825195 C33.3542847 20.92976398 28.59718642 20.94617008 23.83872986 20.97611427 C20.17547008 20.99419791 16.5125436 20.98842442 12.84927368 20.97547531 C11.09501986 20.97214423 9.3407356 20.97621795 7.58651733 20.98787308 C5.13254874 21.00059999 2.68085058 20.98118239 0.22705078 20.95336914 C-0.85629044 20.96855087 -0.85629044 20.96855087 -1.96151733 20.98403931 C-5.83382271 20.90288928 -7.47938663 20.40769312 -10.53198242 17.94564819 C-12.97686918 14.83292382 -13.60498047 13.25846312 -13.60498047 9.30639648 C-10.9402659 1.31225279 -7.99765062 0.00728776 0 0 Z " fill="#000000" transform="translate(259.60498046875,169.693603515625)"/>
<path d="M0 0 C1.15903839 -0.01248528 1.15903839 -0.01248528 2.3414917 -0.02522278 C4.89844792 -0.04933813 7.45514912 -0.05809668 10.01220703 -0.06469727 C11.78956174 -0.07366245 13.56691566 -0.08278427 15.3442688 -0.09205627 C19.07165359 -0.108553 22.79894849 -0.11624762 26.52636719 -0.11914062 C31.30050133 -0.12452514 36.07378961 -0.16220462 40.84768486 -0.20788479 C44.51945066 -0.23764107 48.19101243 -0.24486387 51.86288834 -0.24586678 C53.62276204 -0.25007196 55.38263618 -0.26251826 57.1423912 -0.28338432 C59.60597502 -0.31027026 62.06759393 -0.30548297 64.53125 -0.29296875 C65.25661957 -0.30780304 65.98198914 -0.32263733 66.7293396 -0.33792114 C70.63634881 -0.28146366 72.26445291 0.20100377 75.34500122 2.68760681 C77.57304156 5.53381018 78.0756417 6.74657769 78.02001953 10.30639648 C78.03935547 11.54389648 78.03935547 11.54389648 78.05908203 12.80639648 C77.08127907 16.48753705 75.33812323 17.92616899 72.39501953 20.30639648 C69.5807652 20.80208359 67.37058523 20.99271426 64.56298828 20.95336914 C63.79000397 20.96213074 63.01701965 20.97089233 62.22061157 20.97991943 C59.6740042 21.00186614 57.1291435 20.9873789 54.58251953 20.97045898 C52.80802071 20.97382851 51.03352414 20.97868227 49.2590332 20.98495483 C45.54339586 20.99231971 41.82836026 20.98163341 38.11279297 20.95825195 C33.3542847 20.92976398 28.59718642 20.94617008 23.83872986 20.97611427 C20.17547008 20.99419791 16.5125436 20.98842442 12.84927368 20.97547531 C11.09501986 20.97214423 9.3407356 20.97621795 7.58651733 20.98787308 C5.13254874 21.00059999 2.68085058 20.98118239 0.22705078 20.95336914 C-0.85629044 20.96855087 -0.85629044 20.96855087 -1.96151733 20.98403931 C-5.83382271 20.90288928 -7.47938663 20.40769312 -10.53198242 17.94564819 C-12.97686918 14.83292382 -13.60498047 13.25846312 -13.60498047 9.30639648 C-10.9402659 1.31225279 -7.99765062 0.00728776 0 0 Z " fill="#000000" transform="translate(259.60498046875,121.693603515625)"/>
<path d="M0 0 C1.15903839 -0.01248528 1.15903839 -0.01248528 2.3414917 -0.02522278 C4.89844792 -0.04933813 7.45514912 -0.05809668 10.01220703 -0.06469727 C11.78956174 -0.07366245 13.56691566 -0.08278427 15.3442688 -0.09205627 C19.07165359 -0.108553 22.79894849 -0.11624762 26.52636719 -0.11914062 C31.30050133 -0.12452514 36.07378961 -0.16220462 40.84768486 -0.20788479 C44.51945066 -0.23764107 48.19101243 -0.24486387 51.86288834 -0.24586678 C53.62276204 -0.25007196 55.38263618 -0.26251826 57.1423912 -0.28338432 C59.60597502 -0.31027026 62.06759393 -0.30548297 64.53125 -0.29296875 C65.25661957 -0.30780304 65.98198914 -0.32263733 66.7293396 -0.33792114 C70.63634881 -0.28146366 72.26445291 0.20100377 75.34500122 2.68760681 C77.57304156 5.53381018 78.0756417 6.74657769 78.02001953 10.30639648 C78.03935547 11.54389648 78.03935547 11.54389648 78.05908203 12.80639648 C77.08127907 16.48753705 75.33812323 17.92616899 72.39501953 20.30639648 C69.5807652 20.80208359 67.37058523 20.99271426 64.56298828 20.95336914 C63.79000397 20.96213074 63.01701965 20.97089233 62.22061157 20.97991943 C59.6740042 21.00186614 57.1291435 20.9873789 54.58251953 20.97045898 C52.80802071 20.97382851 51.03352414 20.97868227 49.2590332 20.98495483 C45.54339586 20.99231971 41.82836026 20.98163341 38.11279297 20.95825195 C33.3542847 20.92976398 28.59718642 20.94617008 23.83872986 20.97611427 C20.17547008 20.99419791 16.5125436 20.98842442 12.84927368 20.97547531 C11.09501986 20.97214423 9.3407356 20.97621795 7.58651733 20.98787308 C5.13254874 21.00059999 2.68085058 20.98118239 0.22705078 20.95336914 C-0.85629044 20.96855087 -0.85629044 20.96855087 -1.96151733 20.98403931 C-5.83382271 20.90288928 -7.47938663 20.40769312 -10.53198242 17.94564819 C-12.97686918 14.83292382 -13.60498047 13.25846312 -13.60498047 9.30639648 C-10.9402659 1.31225279 -7.99765062 0.00728776 0 0 Z " fill="#000000" transform="translate(259.60498046875,73.693603515625)"/>
<path d="M0 0 C2.8100346 1.79363911 4.50940468 3.01880935 6 6 C6.65753556 10.78122289 6.71680862 13.98803489 3.875 18 C0.62399027 20.26157198 -1.04509656 21 -5 21 C-9.34986291 19.5500457 -11.4325645 18.85115325 -14 15 C-14.70413451 11.00539077 -15.08917358 6.80995021 -12.9375 3.234375 C-8.83870373 -0.6416606 -5.25702269 -0.75100324 0 0 Z " fill="#000000" transform="translate(93,452)"/>
<path d="M0 0 C2.4375 1.5625 2.4375 1.5625 4 4 C4.84715191 8.66370227 4.65619755 11.95008392 2.125 16 C-1.14515677 19.0777946 -3.46385754 19.35512509 -7.96484375 19.2734375 C-11.31522623 18.82329014 -12.81086861 17.51106247 -15 15 C-16.89854516 10.80737943 -17.18346666 8.73386665 -16.0625 4.25 C-11.94898849 -2.23189692 -6.79834532 -2.95022533 0 0 Z " fill="#000000" transform="translate(55,168)"/>
</svg>
